<svg width="342" height="294" viewBox="0 0 342 294" fill="none" xmlns="http://www.w3.org/2000/svg">
<path d="M277.926 86.3093H259.53V108.653H254.795V96.0021H231.399V116.031H228.303V69.0251H207.97V81.931H197.548V97.981H194.394V87.884H175.907V118.016H170.502V93.5177H153.596V74.9195H142.1V64.3276H128.805V111.313H124.337V91.7036H102.429V119.771H99.4025V96.8639H77.1867V76.2228H64.7383V172.353H277.926V86.3093Z" fill="#EBEBEB"/>
<path d="M272.56 93.3896H275.672V89.1178H272.56V93.3896Z" fill="white"/>
<path d="M267.165 93.3896H270.277V89.1178H267.165V93.3896Z" fill="white"/>
<path d="M261.763 93.3896H264.875V89.1178H261.763V93.3896Z" fill="white"/>
<path d="M272.56 99.8164H275.672V95.5446H272.56V99.8164Z" fill="white"/>
<path d="M267.165 99.8164H270.277V95.5446H267.165V99.8164Z" fill="white"/>
<path d="M261.763 99.8164H264.875V95.5446H261.763V99.8164Z" fill="white"/>
<path d="M272.56 106.243H275.672V101.971H272.56V106.243Z" fill="white"/>
<path d="M267.165 106.243H270.277V101.971H267.165V106.243Z" fill="white"/>
<path d="M261.763 106.243H264.875V101.971H261.763V106.243Z" fill="white"/>
<path d="M272.56 112.674H275.672V108.402H272.56V112.674Z" fill="white"/>
<path d="M267.165 112.674H270.277V108.402H267.165V112.674Z" fill="white"/>
<path d="M261.763 112.674H264.875V108.402H261.763V112.674Z" fill="white"/>
<path d="M164.794 100.141H167.906V96.5763H164.794V100.141Z" fill="white"/>
<path d="M159.4 100.141H162.512V96.5763H159.4V100.141Z" fill="white"/>
<path d="M154.001 100.141H157.113V96.5763H154.001V100.141Z" fill="white"/>
<path d="M164.794 105.498H167.906V101.934H164.794V105.498Z" fill="white"/>
<path d="M159.4 105.498H162.512V101.934H159.4V105.498Z" fill="white"/>
<path d="M154.001 105.498H157.113V101.934H154.001V105.498Z" fill="white"/>
<path d="M164.794 110.86H167.906V107.296H164.794V110.86Z" fill="white"/>
<path d="M159.4 110.86H162.512V107.296H159.4V110.86Z" fill="white"/>
<path d="M154.001 110.86H157.113V107.296H154.001V110.86Z" fill="white"/>
<path d="M164.794 116.223H167.906V112.658H164.794V116.223Z" fill="white"/>
<path d="M159.4 116.223H162.512V112.658H159.4V116.223Z" fill="white"/>
<path d="M154.001 116.223H157.113V112.658H154.001V116.223Z" fill="white"/>
<path d="M164.794 121.718H167.906V118.154H164.794V121.718Z" fill="white"/>
<path d="M159.4 121.718H162.512V118.154H159.4V121.718Z" fill="white"/>
<path d="M154.001 121.718H157.113V118.154H154.001V121.718Z" fill="white"/>
<path d="M164.794 127.213H167.906V123.649H164.794V127.213Z" fill="white"/>
<path d="M159.4 127.213H162.512V123.649H159.4V127.213Z" fill="white"/>
<path d="M154.001 127.213H157.113V123.649H154.001V127.213Z" fill="white"/>
<path d="M164.794 132.704H167.906V129.139H164.794V132.704Z" fill="white"/>
<path d="M159.4 132.704H162.512V129.139H159.4V132.704Z" fill="white"/>
<path d="M154.001 132.704H157.113V129.139H154.001V132.704Z" fill="white"/>
<path d="M164.794 138.199H167.906V134.635H164.794V138.199Z" fill="white"/>
<path d="M159.4 138.199H162.512V134.635H159.4V138.199Z" fill="white"/>
<path d="M154.001 138.199H157.113V134.635H154.001V138.199Z" fill="white"/>
<path d="M234.219 101.412H252.137V98.7415H234.219V101.412Z" fill="white"/>
<path d="M234.219 106.599H252.137V103.929H234.219V106.599Z" fill="white"/>
<path d="M234.219 111.781H252.137V109.11H234.219V111.781Z" fill="white"/>
<path d="M234.219 116.962H252.137V114.291H234.219V116.962Z" fill="white"/>
<path d="M234.219 122.149H252.137V119.478H234.219V122.149Z" fill="white"/>
<path d="M234.219 127.331H252.137V124.66H234.219V127.331Z" fill="white"/>
<path d="M234.219 132.518H252.137V129.847H234.219V132.518Z" fill="white"/>
<path d="M234.219 137.694H252.137V135.023H234.219V137.694Z" fill="white"/>
<path d="M105.208 96.8638H121.684V94.1932H105.208V96.8638Z" fill="white"/>
<path d="M105.208 102.051H121.684V99.3802H105.208V102.051Z" fill="white"/>
<path d="M105.208 107.237H121.684V104.567H105.208V107.237Z" fill="white"/>
<path d="M105.208 112.419H121.684V109.748H105.208V112.419Z" fill="white"/>
<path d="M105.208 117.601H121.684V114.93H105.208V117.601Z" fill="white"/>
<path d="M105.208 122.788H121.684V120.117H105.208V122.788Z" fill="white"/>
<path d="M105.208 127.969H121.684V125.298H105.208V127.969Z" fill="white"/>
<path d="M105.208 133.156H121.684V130.485H105.208V133.156Z" fill="white"/>
<path d="M105.208 138.077H121.684V135.406H105.208V138.077Z" fill="white"/>
<path d="M105.208 143.003H121.684V140.332H105.208V143.003Z" fill="white"/>
<path d="M105.208 147.929H121.684V145.259H105.208V147.929Z" fill="white"/>
<path d="M105.208 152.85H121.684V150.18H105.208V152.85Z" fill="white"/>
<path d="M105.208 157.776H121.684V155.105H105.208V157.776Z" fill="white"/>
<path d="M78.5753 103.125H95.9766V100.454H78.5753V103.125Z" fill="white"/>
<path d="M78.5753 108.312H95.9766V105.641H78.5753V108.312Z" fill="white"/>
<path d="M78.5753 113.499H95.9766V110.828H78.5753V113.499Z" fill="white"/>
<path d="M78.5753 118.681H95.9766V116.01H78.5753V118.681Z" fill="white"/>
<path d="M78.5753 123.862H95.9766V121.191H78.5753V123.862Z" fill="white"/>
<path d="M78.5753 129.049H95.9766V126.378H78.5753V129.049Z" fill="white"/>
<path d="M78.5753 134.23H95.9766V131.56H78.5753V134.23Z" fill="white"/>
<path d="M78.5753 139.417H95.9766V136.747H78.5753V139.417Z" fill="white"/>
<path d="M78.5753 144.056H95.9766V141.386H78.5753V144.056Z" fill="white"/>
<path d="M78.5753 148.695H95.9766V146.025H78.5753V148.695Z" fill="white"/>
<path d="M78.5753 153.334H95.9766V150.663H78.5753V153.334Z" fill="white"/>
<path d="M183.452 92.8843H188.984V90.3042H183.452V92.8843Z" fill="white"/>
<path d="M183.452 97.8906H188.984V95.3105H183.452V97.8906Z" fill="white"/>
<path d="M183.452 102.896H188.984V100.316H183.452V102.896Z" fill="white"/>
<path d="M183.452 107.902H188.984V105.322H183.452V107.902Z" fill="white"/>
<path d="M183.452 112.908H188.984V110.328H183.452V112.908Z" fill="white"/>
<path d="M183.452 117.915H188.984V115.334H183.452V117.915Z" fill="white"/>
<path d="M183.452 122.92H188.984V120.34H183.452V122.92Z" fill="white"/>
<path d="M183.452 127.926H188.984V125.346H183.452V127.926Z" fill="white"/>
<path d="M175.924 92.8843H181.457V90.3042H175.924V92.8843Z" fill="white"/>
<path d="M175.924 97.8906H181.457V95.3105H175.924V97.8906Z" fill="white"/>
<path d="M175.924 102.896H181.457V100.316H175.924V102.896Z" fill="white"/>
<path d="M175.924 107.902H181.457V105.322H175.924V107.902Z" fill="white"/>
<path d="M175.924 112.908H181.457V110.328H175.924V112.908Z" fill="white"/>
<path d="M175.924 117.915H181.457V115.334H175.924V117.915Z" fill="white"/>
<path d="M175.924 122.92H181.457V120.34H175.924V122.92Z" fill="white"/>
<path d="M175.924 127.926H181.457V125.346H175.924V127.926Z" fill="white"/>
<path d="M219.452 75.8022H225.219V71.7326H219.452V75.8022Z" fill="white"/>
<path d="M210.858 75.8022H216.625V71.7326H210.858V75.8022Z" fill="white"/>
<path d="M219.452 81.7769H225.219V77.7072H219.452V81.7769Z" fill="white"/>
<path d="M210.858 81.7769H216.625V77.7072H210.858V81.7769Z" fill="white"/>
<path d="M219.452 87.7563H225.219V83.6867H219.452V87.7563Z" fill="white"/>
<path d="M210.858 87.7563H216.625V83.6867H210.858V87.7563Z" fill="white"/>
<path d="M219.452 93.7305H225.219V89.6608H219.452V93.7305Z" fill="white"/>
<path d="M210.858 93.7305H216.625V89.6608H210.858V93.7305Z" fill="white"/>
<path d="M219.452 99.71H225.219V95.6403H219.452V99.71Z" fill="white"/>
<path d="M210.858 99.71H216.625V95.6403H210.858V99.71Z" fill="white"/>
<path d="M219.452 105.689H225.219V101.62H219.452V105.689Z" fill="white"/>
<path d="M210.858 105.689H216.625V101.62H210.858V105.689Z" fill="white"/>
<path d="M219.452 111.664H225.219V107.594H219.452V111.664Z" fill="white"/>
<path d="M210.858 111.664H216.625V107.594H210.858V111.664Z" fill="white"/>
<path d="M219.452 117.643H225.219V113.573H219.452V117.643Z" fill="white"/>
<path d="M210.858 117.643H216.625V113.573H210.858V117.643Z" fill="white"/>
<path d="M200.202 87.7563H205.969V83.6867H200.202V87.7563Z" fill="white"/>
<path d="M200.202 93.7305H205.969V89.6608H200.202V93.7305Z" fill="white"/>
<path d="M200.202 99.71H205.969V95.6403H200.202V99.71Z" fill="white"/>
<path d="M200.202 105.689H205.969V101.62H200.202V105.689Z" fill="white"/>
<path d="M200.202 111.664H205.969V107.594H200.202V111.664Z" fill="white"/>
<path d="M200.202 117.643H205.969V113.573H200.202V117.643Z" fill="white"/>
<path d="M219.452 123.548H225.219V119.479H219.452V123.548Z" fill="white"/>
<path d="M210.858 123.548H216.625V119.479H210.858V123.548Z" fill="white"/>
<path d="M200.202 123.548H205.969V119.479H200.202V123.548Z" fill="white"/>
<path d="M219.452 129.448H225.219V125.378H219.452V129.448Z" fill="white"/>
<path d="M210.858 129.448H216.625V125.378H210.858V129.448Z" fill="white"/>
<path d="M200.202 129.448H205.969V125.378H200.202V129.448Z" fill="white"/>
<path d="M219.452 135.353H225.219V131.283H219.452V135.353Z" fill="white"/>
<path d="M210.858 135.353H216.625V131.283H210.858V135.353Z" fill="white"/>
<path d="M200.202 135.353H205.969V131.283H200.202V135.353Z" fill="white"/>
<path d="M219.452 141.258H225.219V137.188H219.452V141.258Z" fill="white"/>
<path d="M210.858 141.258H216.625V137.188H210.858V141.258Z" fill="white"/>
<path d="M200.202 141.258H205.969V137.188H200.202V141.258Z" fill="white"/>
<path d="M219.452 147.163H225.219V143.093H219.452V147.163Z" fill="white"/>
<path d="M210.858 147.163H216.625V143.093H210.858V147.163Z" fill="white"/>
<path d="M200.202 147.163H205.969V143.093H200.202V147.163Z" fill="white"/>
<path d="M148.138 81.1011H151.25V77.5368H148.138V81.1011Z" fill="white"/>
<path d="M142.743 81.1011H145.855V77.5368H142.743V81.1011Z" fill="white"/>
<path d="M148.138 86.4634H151.25V82.8991H148.138V86.4634Z" fill="white"/>
<path d="M142.743 86.4634H145.855V82.8991H142.743V86.4634Z" fill="white"/>
<path d="M148.138 91.8257H151.25V88.2614H148.138V91.8257Z" fill="white"/>
<path d="M142.743 91.8257H145.855V88.2614H142.743V91.8257Z" fill="white"/>
<path d="M148.138 97.1934H151.25V93.6291H148.138V97.1934Z" fill="white"/>
<path d="M142.743 97.1934H145.855V93.6291H142.743V97.1934Z" fill="white"/>
<path d="M148.138 102.689H151.25V99.1247H148.138V102.689Z" fill="white"/>
<path d="M142.743 102.689H145.855V99.1247H142.743V102.689Z" fill="white"/>
<path d="M148.138 108.179H151.25V104.615H148.138V108.179Z" fill="white"/>
<path d="M142.743 108.179H145.855V104.615H142.743V108.179Z" fill="white"/>
<path d="M148.138 113.674H151.25V110.11H148.138V113.674Z" fill="white"/>
<path d="M142.743 113.674H145.855V110.11H142.743V113.674Z" fill="white"/>
<path d="M148.138 119.17H151.25V115.606H148.138V119.17Z" fill="white"/>
<path d="M142.743 119.17H145.855V115.606H142.743V119.17Z" fill="white"/>
<path d="M148.138 124.724H151.25V121.159H148.138V124.724Z" fill="white"/>
<path d="M142.743 124.724H145.855V121.159H142.743V124.724Z" fill="white"/>
<path d="M148.138 130.272H151.25V126.708H148.138V130.272Z" fill="white"/>
<path d="M142.743 130.272H145.855V126.708H142.743V130.272Z" fill="white"/>
<path d="M148.138 135.826H151.25V132.262H148.138V135.826Z" fill="white"/>
<path d="M142.743 135.826H145.855V132.262H142.743V135.826Z" fill="white"/>
<path d="M148.138 141.386H151.25V137.821H148.138V141.386Z" fill="white"/>
<path d="M142.743 141.386H145.855V137.821H142.743V141.386Z" fill="white"/>
<path d="M72.1223 82.314H75.2344V78.1166H72.1223V82.314Z" fill="white"/>
<path d="M66.7316 82.314H69.8438V78.1166H66.7316V82.314Z" fill="white"/>
<path d="M72.1223 88.6338H75.2344V84.4364H72.1223V88.6338Z" fill="white"/>
<path d="M66.7316 88.6338H69.8438V84.4364H66.7316V88.6338Z" fill="white"/>
<path d="M72.1223 94.9487H75.2344V90.7514H72.1223V94.9487Z" fill="white"/>
<path d="M66.7316 94.9487H69.8438V90.7514H66.7316V94.9487Z" fill="white"/>
<path d="M72.1223 101.269H75.2344V97.0712H72.1223V101.269Z" fill="white"/>
<path d="M66.7316 101.269H69.8438V97.0712H66.7316V101.269Z" fill="white"/>
<path d="M72.1223 107.743H75.2344V103.545H72.1223V107.743Z" fill="white"/>
<path d="M66.7316 107.743H69.8438V103.545H66.7316V107.743Z" fill="white"/>
<path d="M72.1223 114.217H75.2344V110.02H72.1223V114.217Z" fill="white"/>
<path d="M66.7316 114.217H69.8438V110.02H66.7316V114.217Z" fill="white"/>
<path d="M72.1223 120.686H75.2344V116.489H72.1223V120.686Z" fill="white"/>
<path d="M66.7316 120.686H69.8438V116.489H66.7316V120.686Z" fill="white"/>
<path d="M72.1223 127.166H75.2344V122.968H72.1223V127.166Z" fill="white"/>
<path d="M66.7316 127.166H69.8438V122.968H66.7316V127.166Z" fill="white"/>
<path d="M72.1223 133.709H75.2344V129.512H72.1223V133.709Z" fill="white"/>
<path d="M66.7316 133.709H69.8438V129.512H66.7316V133.709Z" fill="white"/>
<path d="M72.1223 140.247H75.2344V136.05H72.1223V140.247Z" fill="white"/>
<path d="M66.7316 140.247H69.8438V136.05H66.7316V140.247Z" fill="white"/>
<path d="M72.1223 146.791H75.2344V142.593H72.1223V146.791Z" fill="white"/>
<path d="M66.7316 146.791H69.8438V142.593H66.7316V146.791Z" fill="white"/>
<path d="M72.1223 153.334H75.2344V149.137H72.1223V153.334Z" fill="white"/>
<path d="M66.7316 153.334H69.8438V149.137H66.7316V153.334Z" fill="white"/>
<path d="M136.595 81.1011H139.707V77.5368H136.595V81.1011Z" fill="white"/>
<path d="M131.2 81.1011H134.312V77.5368H131.2V81.1011Z" fill="white"/>
<path d="M136.595 75.6055H139.707V72.0412H136.595V75.6055Z" fill="white"/>
<path d="M131.2 75.6055H134.312V72.0412H131.2V75.6055Z" fill="white"/>
<path d="M136.595 70.1104H139.707V66.546H136.595V70.1104Z" fill="white"/>
<path d="M131.2 70.1104H134.312V66.546H131.2V70.1104Z" fill="white"/>
<path d="M136.595 86.4634H139.707V82.8991H136.595V86.4634Z" fill="white"/>
<path d="M131.2 86.4634H134.312V82.8991H131.2V86.4634Z" fill="white"/>
<path d="M136.595 91.8257H139.707V88.2614H136.595V91.8257Z" fill="white"/>
<path d="M131.2 91.8257H134.312V88.2614H131.2V91.8257Z" fill="white"/>
<path d="M136.595 97.1934H139.707V93.6291H136.595V97.1934Z" fill="white"/>
<path d="M131.2 97.1934H134.312V93.6291H131.2V97.1934Z" fill="white"/>
<path d="M136.595 102.689H139.707V99.1247H136.595V102.689Z" fill="white"/>
<path d="M131.2 102.689H134.312V99.1247H131.2V102.689Z" fill="white"/>
<path d="M136.595 108.179H139.707V104.615H136.595V108.179Z" fill="white"/>
<path d="M131.2 108.179H134.312V104.615H131.2V108.179Z" fill="white"/>
<path d="M136.595 113.674H139.707V110.11H136.595V113.674Z" fill="white"/>
<path d="M131.2 113.674H134.312V110.11H131.2V113.674Z" fill="white"/>
<path d="M136.595 119.17H139.707V115.606H136.595V119.17Z" fill="white"/>
<path d="M131.2 119.17H134.312V115.606H131.2V119.17Z" fill="white"/>
<path d="M136.595 124.724H139.707V121.159H136.595V124.724Z" fill="white"/>
<path d="M131.2 124.724H134.312V121.159H131.2V124.724Z" fill="white"/>
<path d="M136.595 130.272H139.707V126.708H136.595V130.272Z" fill="white"/>
<path d="M131.2 130.272H134.312V126.708H131.2V130.272Z" fill="white"/>
<path d="M136.595 135.826H139.707V132.262H136.595V135.826Z" fill="white"/>
<path d="M131.2 135.826H134.312V132.262H131.2V135.826Z" fill="white"/>
<path d="M136.595 141.386H139.707V137.821H136.595V141.386Z" fill="white"/>
<path d="M131.2 141.386H134.312V137.821H131.2V141.386Z" fill="white"/>
<path d="M275.662 56.667H218.383C218.383 56.667 224.064 41.1543 232.805 41.1543C241.545 41.1543 244.28 51.8632 244.28 51.8632C244.28 51.8632 250.18 46.0432 255.026 46.0432C259.872 46.0432 264.07 53.7304 264.07 53.7304C264.07 53.7304 270.927 49.5969 275.662 56.667Z" fill="#EBEBEB"/>
<path d="M243.602 25.9873H216.832C216.832 25.9873 222.812 17.3213 227.525 17.3213C232.238 17.3213 233.632 23.0987 233.632 23.0987C233.632 23.0987 236.957 20.4015 240.016 20.8856C243.075 21.3697 243.602 25.9873 243.602 25.9873Z" fill="#EBEBEB"/>
<path d="M119.146 52.0494H67.0117C67.0117 52.0494 74.151 36.0898 81.7903 35.1109C89.4296 34.1321 93.079 46.9529 93.079 46.9529C93.079 46.9529 98.0052 42.4151 101.878 42.4151C105.751 42.4151 108.746 48.3946 108.746 48.3946C108.746 48.3946 116.486 44.2983 119.146 52.0494Z" fill="#EBEBEB"/>
<path d="M168.699 12.5919H133.477C133.477 12.5919 139.525 1.04249 146.09 0.888214C152.655 0.733939 156.102 9.62874 156.102 9.62874C156.102 9.62874 166.311 1.4202 168.699 12.5919Z" fill="#EBEBEB"/>
<path d="M192.751 200C240.653 200 279.485 197.43 279.485 194.26C279.485 191.089 240.653 188.52 192.751 188.52C144.848 188.52 106.016 191.089 106.016 194.26C106.016 197.43 144.848 200 192.751 200Z" fill="#EBEBEB"/>
<path d="M295.999 172.353L264.83 172.481L233.666 172.528L171.333 172.614L109.001 172.528L77.837 172.481L46.668 172.353L77.837 172.22L109.001 172.172L171.333 172.087L233.666 172.172L264.83 172.22L295.999 172.353Z" fill="#263238"/>
<path d="M167.441 90.0705C176.443 99.4334 203.483 141.104 205.59 142.349C205.59 142.349 205.59 169.602 190.53 164.16C175.469 158.718 161.664 109.823 158.717 94.2359C157.163 86.0061 160.089 82.4311 167.441 90.0705Z" fill="#CB8D5F"/>
<path d="M165.151 122.288L192.751 119.149C192.751 119.149 175.631 96.4383 166.785 88.3309C157.56 79.883 153.038 81.0693 157.315 97.0714C161.614 113.169 165.151 122.288 165.151 122.288Z" fill="#073C6A"/>
<path d="M163.852 107.254C163.549 108.015 163.355 108.816 163.278 109.632C164.241 108.301 164.84 106.742 165.017 105.11C164.525 105.763 164.132 106.485 163.852 107.254ZM179.354 107.876C178.595 107.572 177.796 107.379 176.982 107.301C178.31 108.265 179.867 108.865 181.498 109.041C180.846 108.548 180.123 108.155 179.354 107.876ZM175.242 118.611C174.917 117.861 174.487 117.161 173.965 116.531C174.087 117.339 174.324 118.126 174.668 118.867C174.982 119.622 175.409 120.325 175.934 120.952C175.814 120.143 175.582 119.355 175.242 118.611ZM159.048 84.0324C158.91 83.7398 158.772 83.4525 158.612 83.1653C158.423 83.1467 158.232 83.1467 158.043 83.1653C158.171 83.5536 158.314 83.926 158.474 84.2984C158.793 85.052 159.222 85.7546 159.745 86.3838C159.626 85.5709 159.391 84.7792 159.048 84.0324ZM190.856 116.664L190.324 116.877C189.571 117.201 188.867 117.629 188.233 118.149C189.044 118.028 189.834 117.794 190.579 117.452C190.792 117.356 190.999 117.255 191.207 117.143L190.856 116.664ZM169.576 94.7413C168.825 95.0634 168.123 95.4897 167.491 96.0074C168.302 95.891 169.092 95.6581 169.837 95.3158C170.589 94.993 171.291 94.5649 171.922 94.0444C171.107 94.1614 170.313 94.3962 169.566 94.7413H169.576ZM167.725 94.7891C167.694 94.8105 167.664 94.8336 167.635 94.8583H167.73C167.73 94.8583 167.714 94.8051 167.714 94.7891H167.725Z" fill="white"/>
<path d="M166.475 117.324C167.118 117.175 167.794 117.116 168.448 117.026L170.481 116.744C171.848 116.553 173.22 116.382 174.593 116.212C177.338 115.893 180.083 115.558 182.833 115.286C183.589 115.212 184.349 115.137 185.105 115.079C185.86 115.02 186.701 115.02 187.499 114.962C187.547 114.962 187.547 115.031 187.499 115.036C186.823 115.137 186.153 115.292 185.477 115.398C184.802 115.505 184.083 115.6 183.387 115.685C182.019 115.861 180.641 116.021 179.269 116.175C176.566 116.467 173.859 116.776 171.146 117.015L168.879 117.207C168.087 117.276 167.283 117.393 166.485 117.388C166.479 117.385 166.474 117.382 166.469 117.377C166.465 117.372 166.463 117.365 166.461 117.359C166.46 117.352 166.461 117.346 166.463 117.34C166.466 117.334 166.47 117.328 166.475 117.324Z" fill="#263238"/>
<path opacity="0.1" d="M178.539 120.766L165.154 122.287C165.154 122.287 161.616 113.169 157.313 97.0714C155.499 90.2832 155.27 86.1603 156.313 84.3037L178.539 120.766Z" fill="black"/>
<path d="M172.806 179.051H130.827C130.481 177.699 130.146 176.391 129.811 175.061C129.428 173.555 129.05 172.087 128.688 170.656C128.608 170.337 128.523 170.017 128.444 169.704C128.167 168.608 127.896 167.544 127.63 166.512C127.47 165.879 127.31 165.256 127.156 164.639C127.002 164.022 126.837 163.394 126.683 162.793C126.64 162.634 126.603 162.474 126.56 162.32L126.433 161.788L126.273 161.165C126.215 160.947 126.161 160.734 126.108 160.522C126.002 160.117 125.901 159.718 125.805 159.33C125.656 158.755 125.512 158.191 125.374 157.643C125.316 157.404 125.252 157.165 125.193 156.931C125.092 156.548 124.996 156.175 124.906 155.808C124.842 155.563 124.784 155.324 124.725 155.09C124.477 154.125 124.246 153.221 124.033 152.377C123.975 152.153 123.922 151.935 123.863 151.722C123.773 151.355 123.682 151.004 123.597 150.659C123.537 150.446 123.484 150.238 123.438 150.036C123.251 149.313 123.081 148.653 122.938 148.073C122.895 147.919 122.858 147.77 122.82 147.626C122.725 147.243 122.634 146.903 122.56 146.599C122.528 146.477 122.501 146.36 122.469 146.254L122.384 145.919C122.384 145.844 122.347 145.77 122.331 145.706L122.257 145.418C122.257 145.372 122.246 145.33 122.225 145.291L122.129 144.913H162.991C162.991 144.913 164.337 149.552 166.491 157.032C166.927 158.553 167.401 160.224 167.906 161.942C169.337 166.932 171.008 172.752 172.806 179.051Z" fill="#37474F"/>
<path d="M137.698 179.05H136.634C135.08 172.62 133.575 166.178 132.117 159.723C131.763 158.152 131.408 156.581 131.053 155.01L130.957 154.568C130.956 154.553 130.959 154.538 130.968 154.525C130.977 154.512 130.99 154.503 131.005 154.499C131.02 154.495 131.035 154.497 131.049 154.504C131.063 154.511 131.074 154.522 131.08 154.536C131.08 154.584 131.106 154.632 131.122 154.68C131.594 156.368 132.064 158.058 132.532 159.75C134.33 166.166 136.052 172.599 137.698 179.05Z" fill="#263238"/>
<path d="M161.666 144.918L159.863 153.962L158.384 161.367L155.867 173.986L155.607 175.279L155.176 177.433L154.841 179.051H130.822C130.481 177.694 130.141 176.391 129.811 175.061C129.428 173.555 129.05 172.087 128.688 170.656C128.608 170.337 128.523 170.017 128.444 169.704C128.167 168.608 127.896 167.544 127.63 166.512C127.47 165.879 127.31 165.256 127.156 164.639C127.002 164.022 126.837 163.394 126.683 162.793C126.64 162.634 126.603 162.474 126.56 162.32L126.433 161.788L126.273 161.165C126.215 160.947 126.161 160.734 126.108 160.522C126.002 160.117 125.901 159.718 125.805 159.33C125.656 158.755 125.512 158.191 125.374 157.643C125.31 157.399 125.252 157.165 125.193 156.931C125.092 156.548 124.996 156.175 124.906 155.808C124.842 155.563 124.784 155.324 124.725 155.09C124.477 154.125 124.246 153.221 124.033 152.377C123.975 152.153 123.922 151.935 123.863 151.722C123.773 151.355 123.682 151.004 123.597 150.659C123.537 150.446 123.484 150.238 123.438 150.036C123.251 149.313 123.081 148.653 122.938 148.073C122.895 147.919 122.858 147.77 122.82 147.626C122.725 147.243 122.634 146.903 122.56 146.599C122.528 146.477 122.501 146.36 122.469 146.254L122.384 145.919C122.384 145.844 122.347 145.77 122.331 145.706L122.257 145.418C122.257 145.372 122.246 145.33 122.225 145.291L122.129 144.913L161.666 144.918Z" fill="#263238"/>
<path d="M161.671 144.902C161.671 145.126 161.501 147.562 161.107 151.286C160.996 152.35 160.863 153.563 160.708 154.84C160.469 156.856 160.176 159.096 159.804 161.431C159.176 165.533 158.357 170.007 157.293 174.38C156.915 175.975 156.5 177.513 156.059 179.04H103.312C103.935 171.001 104.504 163.729 104.956 158C105.589 149.935 106.02 144.886 106.02 144.886H153.867L161.671 144.902Z" fill="#37474F"/>
<path d="M161.557 149.749C161.499 151.637 161.419 153.521 161.297 155.398C161.169 157.436 160.983 159.468 160.717 161.5C160.717 161.575 160.717 161.649 160.69 161.724C160.442 163.628 160.156 165.527 159.834 167.421C159.53 169.188 159.302 171.092 158.525 172.741C158.23 173.374 157.81 173.94 157.291 174.406C156.816 174.841 156.234 175.142 155.604 175.279C155.501 175.305 155.396 175.322 155.29 175.332H155.2C155.219 175.343 155.235 175.359 155.246 175.379C155.256 175.399 155.26 175.421 155.259 175.444C155.259 176.077 155.259 176.72 155.184 177.348C155.184 177.375 155.184 177.401 155.184 177.428C155.12 177.96 155.019 178.519 154.918 179.061H154.014V179.029C154.173 178.433 154.306 177.832 154.455 177.231C154.604 176.63 154.817 176.018 154.961 175.396C154.969 175.372 154.983 175.352 155.003 175.337C154.429 175.365 153.86 175.216 153.373 174.911C152.887 174.605 152.505 174.158 152.279 173.63C152.052 172.821 152.038 171.967 152.237 171.151C152.402 170.087 152.561 168.991 152.726 167.911C153.035 165.926 153.434 163.963 153.79 161.99L153.95 161.091C154.657 157.074 155.397 153.058 156.285 149.078C156.317 148.914 156.354 148.749 156.392 148.584C156.429 148.419 156.594 148.504 156.583 148.61C156.557 148.876 156.53 149.142 156.498 149.414C156.342 150.942 156.165 152.464 155.966 153.978C155.711 155.76 155.535 157.553 155.285 159.335C155.2 159.942 155.115 160.548 155.024 161.155C154.615 164.086 154.189 167.006 153.689 169.938C153.455 171.294 152.625 173.725 154.562 174.146C155.009 174.245 155.477 174.187 155.886 173.981C156.748 173.461 157.393 172.646 157.7 171.688C158.179 170.091 158.526 168.458 158.738 166.804C159.057 165.031 159.341 163.242 159.589 161.437C159.908 159.199 160.241 156.963 160.589 154.728C160.763 153.59 160.94 152.451 161.121 151.313L161.376 149.717C161.382 149.605 161.557 149.637 161.557 149.749Z" fill="#263238"/>
<path d="M114.883 163.772C117.08 163.749 119.265 163.454 121.389 162.894C122.368 162.644 123.336 162.33 124.299 162.016C125.253 161.753 126.146 161.305 126.927 160.697C128.406 159.42 129.092 157.415 129.736 155.627C130.435 153.615 131.002 151.559 131.433 149.472C131.433 149.371 131.603 149.408 131.609 149.504C131.66 151.864 131.36 154.218 130.72 156.489C130.188 158.42 129.475 160.569 127.917 161.921C126.358 163.272 124.055 163.846 121.953 164.102C119.597 164.376 117.215 164.344 114.867 164.006C114.836 164.004 114.807 163.99 114.787 163.966C114.766 163.943 114.756 163.912 114.758 163.881C114.76 163.85 114.775 163.821 114.798 163.801C114.821 163.78 114.852 163.77 114.883 163.772Z" fill="#263238"/>
<path d="M111.216 149.536C111.099 152.486 110.975 155.441 110.844 158.399C110.542 165.282 110.211 172.166 109.849 179.05H108.859C109.313 172.152 109.79 165.258 110.29 158.367C110.507 155.419 110.73 152.474 110.961 149.53C110.961 149.496 110.976 149.464 111 149.441C111.024 149.417 111.057 149.405 111.091 149.405C111.125 149.406 111.157 149.42 111.181 149.445C111.204 149.469 111.217 149.502 111.216 149.536Z" fill="#263238"/>
<path d="M170.753 166.751L99.1953 161.325C99.1953 161.325 113.591 104.269 142.015 83.293C149.282 77.9359 157.235 81.3725 160.815 85.3784C169.912 95.5818 170.965 166.522 170.753 166.751Z" fill="#073C6A"/>
<path d="M145.322 85.8889C145.022 86.6494 144.828 87.4479 144.747 88.2616C145.237 87.6118 145.631 86.8952 145.918 86.1336C146.218 85.3731 146.411 84.5746 146.492 83.761C146.004 84.412 145.61 85.1283 145.322 85.8889ZM137.555 116.67C137.249 117.43 137.057 118.231 136.986 119.048C137.944 117.715 138.541 116.157 138.72 114.526C138.231 115.181 137.839 115.903 137.555 116.67ZM111.988 129.868C111.685 130.63 111.491 131.43 111.413 132.246C112.376 130.916 112.975 129.357 113.153 127.724C112.668 128.382 112.276 129.104 111.988 129.868ZM132.623 149.312C132.314 150.07 132.121 150.87 132.049 151.685C133.007 150.352 133.605 148.795 133.783 147.163C133.295 147.82 132.905 148.544 132.623 149.312ZM163.851 107.243C163.548 108.004 163.354 108.805 163.276 109.621C164.239 108.29 164.839 106.732 165.016 105.099C164.523 105.755 164.13 106.481 163.851 107.253V107.243ZM151.115 145.945C150.806 146.703 150.61 147.502 150.535 148.317C151.024 147.668 151.417 146.951 151.7 146.189C152.003 145.43 152.196 144.631 152.275 143.817C151.787 144.466 151.397 145.183 151.115 145.945ZM125.33 105.796C125.026 106.555 124.833 107.354 124.755 108.168C125.719 106.839 126.318 105.28 126.49 103.647C126 104.302 125.609 105.026 125.33 105.796ZM153.919 95.5817C153.16 95.2753 152.361 95.0817 151.546 95.0071C152.196 95.4932 152.913 95.8838 153.674 96.1669C154.434 96.4745 155.235 96.6681 156.052 96.7414C155.401 96.2539 154.682 95.8633 153.919 95.5817ZM162.026 121.229C161.267 120.924 160.468 120.73 159.653 120.654C160.302 121.142 161.019 121.533 161.781 121.814C162.54 122.121 163.339 122.316 164.154 122.394C163.504 121.911 162.787 121.526 162.026 121.25V121.229ZM164.202 151.882C163.442 151.578 162.643 151.385 161.829 151.307C162.478 151.797 163.195 152.19 163.957 152.472C164.717 152.774 165.516 152.968 166.33 153.047C165.677 152.568 164.961 152.183 164.202 151.903V151.882ZM113.264 149.36C112.505 149.056 111.706 148.863 110.892 148.786C112.22 149.75 113.777 150.349 115.408 150.525C114.752 150.043 114.03 149.658 113.264 149.381V149.36ZM131.676 129.677C130.917 129.372 130.118 129.176 129.304 129.097C129.954 129.586 130.67 129.98 131.432 130.267C132.192 130.567 132.991 130.761 133.804 130.842C133.153 130.359 132.437 129.972 131.676 129.693V129.677ZM159.047 84.0163C158.973 83.8567 158.898 83.7025 158.818 83.5482C158.558 83.3513 158.286 83.1598 157.994 82.9736C158.125 83.4196 158.285 83.8567 158.472 84.2823C158.792 85.0359 159.22 85.7385 159.744 86.3677C159.623 85.5603 159.388 84.7741 159.047 84.0323V84.0163ZM138.135 100.561C137.814 99.8081 137.386 99.1057 136.863 98.4757C137.119 100.098 137.798 101.625 138.832 102.902C138.715 102.092 138.48 101.303 138.135 100.561ZM156.6 163.511C156.279 162.759 155.853 162.057 155.334 161.426C155.452 162.235 155.684 163.023 156.025 163.766C156.329 164.466 156.72 165.124 157.19 165.724H157.276C157.153 164.959 156.925 164.214 156.6 163.511ZM149.806 126.437C149.483 125.685 149.055 124.983 148.535 124.351C148.799 125.971 149.475 127.495 150.498 128.778C150.38 127.968 150.147 127.18 149.806 126.437ZM101.066 154.707C101.034 154.818 101.002 154.93 100.965 155.036C101.034 155.111 101.098 155.191 101.162 155.265C101.14 155.083 101.108 154.901 101.066 154.723V154.707ZM122.345 140.513C122.022 139.763 121.594 139.063 121.074 138.433C121.331 140.054 122.01 141.578 123.042 142.854C122.915 142.049 122.675 141.267 122.329 140.529L122.345 140.513ZM126.91 160.995C126.587 160.243 126.159 159.541 125.638 158.909C125.902 160.531 126.58 162.058 127.607 163.341C127.482 162.536 127.241 161.753 126.894 161.016L126.91 160.995ZM162.696 136.353C161.945 136.677 161.243 137.105 160.611 137.625C161.421 137.505 162.209 137.27 162.952 136.928C163.706 136.607 164.41 136.178 165.043 135.656C164.225 135.778 163.429 136.018 162.681 136.369L162.696 136.353ZM106.253 139.46L105.981 140.194C106.555 139.917 107.091 139.569 107.577 139.157C107.121 139.216 106.671 139.323 106.237 139.476L106.253 139.46ZM142.736 157.186C141.984 157.506 141.282 157.932 140.651 158.452C141.462 158.333 142.252 158.1 142.997 157.76C143.748 157.434 144.45 157.004 145.082 156.483C144.264 156.604 143.468 156.846 142.72 157.202L142.736 157.186ZM110.11 161.931L109.743 162.106L110.993 162.202C111.515 161.938 112.005 161.613 112.45 161.234C111.635 161.359 110.842 161.599 110.094 161.947L110.11 161.931ZM122.643 118.186C121.894 118.513 121.192 118.941 120.558 119.457C122.179 119.195 123.706 118.519 124.989 117.494C124.172 117.614 123.376 117.852 122.627 118.202L122.643 118.186ZM140.986 138.561C140.234 138.886 139.532 139.315 138.901 139.838C140.524 139.577 142.051 138.899 143.332 137.869C142.515 137.991 141.72 138.23 140.97 138.577L140.986 138.561ZM150.562 110.552C149.812 110.878 149.11 111.306 148.476 111.823C150.098 111.566 151.624 110.889 152.903 109.86C152.082 109.981 151.283 110.219 150.53 110.568L150.562 110.552Z" fill="white"/>
<path d="M156.759 97.3003C152.631 96.6885 148.439 88.3577 147.715 82.676C147.667 82.2824 154.099 70.0095 155.104 67.4506C155.312 66.9186 169.654 77.7499 169.654 77.7499C169.654 77.7499 165.93 82.4952 164.191 86.9798C164.068 87.3522 160.749 97.8855 156.759 97.3003Z" fill="#CB8D5F"/>
<path d="M169.676 77.7495C169.676 77.7495 165.952 82.4948 164.207 86.9741C164.175 87.0646 163.963 87.7242 163.612 88.6658C156.238 84.9419 153.232 78.2921 152.02 73.9032C153.413 71.1103 154.711 68.4876 155.126 67.4503C155.334 66.9236 169.676 77.7495 169.676 77.7495Z" fill="#263238"/>
<path d="M158.419 47.5168C154.222 52.3738 150.024 69.8921 152.423 75.2758C155.908 83.0747 165.191 87.7615 172.703 82.7768C180.007 77.9411 185.071 55.0125 182.055 49.7565C177.618 42.0108 164.611 40.3457 158.419 47.5168Z" fill="#CB8D5F"/>
<path d="M169.636 61.7475C169.104 61.7901 168.572 61.7475 168.04 61.7475C167.475 61.8244 166.901 61.7122 166.407 61.4283C166.269 61.3086 166.174 61.1468 166.138 60.9679C166.101 60.789 166.125 60.603 166.205 60.4388C166.412 60.1388 166.696 59.8998 167.028 59.7464C167.359 59.593 167.725 59.5309 168.088 59.5664C168.834 59.5225 169.57 59.7576 170.152 60.226C170.275 60.3421 170.363 60.4911 170.403 60.6554C170.444 60.8197 170.437 60.9923 170.383 61.1526C170.329 61.3129 170.229 61.4542 170.097 61.5597C169.964 61.6652 169.804 61.7304 169.636 61.7475Z" fill="#263238"/>
<path d="M169.166 64.3168C169.166 64.269 169.059 64.3541 169.049 64.4073C168.852 65.6042 168.421 66.9448 167.266 67.1257C167.229 67.1257 167.219 67.1896 167.266 67.1949C168.612 67.2694 169.166 65.4872 169.166 64.3168Z" fill="#263238"/>
<path d="M168.345 62.8592C166.457 62.3272 165.542 66.1522 167.281 66.6363C169.021 67.1204 169.925 63.3008 168.345 62.8592Z" fill="#263238"/>
<path d="M176.03 65.7906C176.03 65.748 176.11 65.8704 176.099 65.9183C175.78 67.0886 175.61 68.4877 176.583 69.1102C176.615 69.1102 176.583 69.19 176.557 69.174C175.296 68.7059 175.541 66.8546 176.03 65.7906Z" fill="#263238"/>
<path d="M177.38 64.812C179.316 65.1206 178.556 68.9668 176.763 68.6795C174.97 68.3923 175.757 64.5513 177.38 64.812Z" fill="#263238"/>
<path d="M179.344 62.918C178.855 62.6909 178.379 62.4369 177.918 62.1573C177.378 61.9575 176.919 61.5831 176.615 61.0933C176.548 60.9221 176.541 60.7337 176.593 60.5575C176.645 60.3813 176.753 60.2274 176.902 60.1198C177.557 59.6942 178.312 59.891 178.982 60.2209C179.666 60.5321 180.21 61.0855 180.509 61.7743C180.572 61.9362 180.586 62.1131 180.55 62.283C180.513 62.4528 180.427 62.6082 180.303 62.73C180.179 62.8517 180.023 62.9344 179.852 62.9678C179.682 63.0012 179.505 62.9839 179.344 62.918Z" fill="#263238"/>
<path d="M165.208 74.5578C165.421 74.9035 165.612 75.3504 166.033 75.4887C166.476 75.5844 166.935 75.5844 167.379 75.4887C167.388 75.4879 167.397 75.4899 167.404 75.4945C167.412 75.4991 167.418 75.5061 167.422 75.5143C167.425 75.5226 167.426 75.5318 167.424 75.5406C167.422 75.5494 167.417 75.5573 167.411 75.5632C167.187 75.7545 166.915 75.8818 166.625 75.9314C166.335 75.981 166.036 75.9512 165.761 75.8452C165.535 75.7258 165.349 75.5415 165.228 75.316C165.107 75.0905 165.055 74.8339 165.081 74.579C165.081 74.5099 165.176 74.5046 165.208 74.5578Z" fill="#263238"/>
<path d="M167.292 71.3179C167.482 71.8567 167.781 72.3506 168.17 72.7688C168.559 73.1871 169.03 73.5208 169.553 73.7491C170.008 73.9545 170.49 74.0942 170.984 74.1641C171.077 74.1849 171.171 74.1956 171.266 74.196C171.357 74.2017 171.447 74.2017 171.538 74.196C171.603 74.2 171.669 74.1817 171.723 74.144C171.777 74.1064 171.817 74.0516 171.836 73.9885C171.838 73.946 171.838 73.9033 171.836 73.8608V73.7544C172.075 72.8501 172.32 71.4456 172.32 71.4456C172.612 71.6903 174.123 72.8607 174.214 72.3766C174.921 68.3867 175.703 63.9499 175.565 59.827C175.565 59.7974 175.553 59.769 175.532 59.7481C175.511 59.7271 175.483 59.7153 175.453 59.7153C175.423 59.7153 175.395 59.7271 175.374 59.7481C175.353 59.769 175.341 59.7974 175.341 59.827C174.511 63.6361 174.357 67.5674 173.58 71.4084C173.06 70.9809 172.482 70.6298 171.862 70.3657C171.724 70.3657 171.442 73.0895 171.298 73.4831C171.3 73.4973 171.3 73.5115 171.298 73.5257C169.702 73.3554 168.681 72.616 167.441 71.2381C167.362 71.1477 167.245 71.2062 167.292 71.3179Z" fill="#263238"/>
<path d="M170.56 73.5737C169.904 74.1025 169.124 74.4542 168.293 74.5951C167.839 74.6584 167.376 74.5784 166.969 74.3663C166.086 73.8929 166.267 73.0204 166.618 72.3182C166.809 71.9481 167.043 71.6017 167.315 71.2861C168.124 72.3758 169.261 73.1775 170.56 73.5737Z" fill="#263238"/>
<path d="M168.293 74.5948C167.839 74.6581 167.376 74.5781 166.969 74.366C166.086 73.8925 166.267 73.0201 166.618 72.3179C167.607 72.6637 168.442 73.5946 168.293 74.5948Z" fill="#FF97B8"/>
<path d="M183.662 56.5768C176.214 59.6943 168.681 51.0708 168.681 51.0708C167.828 52.3796 166.574 53.3776 165.108 53.9164C163.641 54.4551 162.04 54.5057 160.542 54.0605C160.542 54.0605 156.967 64.8439 154.052 64.1949C149.62 63.2479 151.392 47.8948 153.397 45.2243C155.403 42.5537 159.34 42.5643 159.34 42.5643C159.34 42.5643 160.09 40.3247 163.271 38.7979C166.782 37.1062 176.571 42.4101 176.571 42.4101C177.459 41.1359 178.635 40.0881 180.002 39.3511C180.332 39.1656 180.696 39.049 181.073 39.0084C181.45 38.9679 181.83 39.0041 182.192 39.115C182.555 39.226 182.89 39.4092 183.18 39.6537C183.469 39.8982 183.705 40.1989 183.875 40.5375C183.148 41.2365 182.59 42.0915 182.242 43.0378C181.045 46.1659 183.689 46.7138 184.279 43.7719C184.536 42.6801 184.392 41.5325 183.875 40.5375C185.577 38.8883 187.838 38.7074 188.918 40.0055C190.902 42.3835 189.86 53.9914 183.662 56.5768Z" fill="#263238"/>
<path d="M165.394 70.2382C164.478 69.9444 163.662 69.3991 163.041 68.6646C162.419 67.93 162.016 67.0356 161.878 66.0832C161.739 65.1309 161.871 64.1588 162.258 63.2777C162.645 62.3966 163.272 61.6419 164.067 61.0995C164.862 60.5571 165.793 60.2489 166.755 60.2098C167.716 60.1707 168.669 60.4025 169.506 60.8786C170.342 61.3548 171.028 62.0562 171.485 62.903C171.942 63.7498 172.153 64.708 172.092 65.6684C172.042 66.4484 171.814 67.2066 171.427 67.8856C171.04 68.5645 170.503 69.1463 169.858 69.5868C169.212 70.0273 168.475 70.3149 167.701 70.4278C166.928 70.5407 166.139 70.4758 165.394 70.2382ZM168.331 61.1146C167.986 61.0029 167.629 60.9332 167.267 60.9072C166.133 60.8267 165.011 61.1819 164.13 61.9003C163.249 62.6187 162.676 63.6462 162.526 64.7731C162.377 65.9 162.663 67.0414 163.327 67.9645C163.99 68.8875 164.981 69.5226 166.097 69.7402C167.212 69.9577 168.369 69.7414 169.331 69.1353C170.292 68.5291 170.987 67.5789 171.272 66.4785C171.557 65.378 171.411 64.2103 170.865 63.2135C170.318 62.2168 169.412 61.4661 168.331 61.1146Z" fill="#073C6A"/>
<path d="M176.733 72.3872C174.892 71.6957 173.934 69.1953 174.605 66.5833C174.89 65.3336 175.562 64.2057 176.525 63.3594C176.914 62.9673 177.398 62.6829 177.93 62.5339C178.462 62.3849 179.023 62.3764 179.559 62.5094C180.096 62.6423 180.588 62.9121 180.989 63.2924C181.389 63.6726 181.684 64.1503 181.845 64.6788C182.296 65.8791 182.361 67.1902 182.031 68.4293C181.35 71.1743 179.132 72.999 177.084 72.4883C176.964 72.4652 176.846 72.4314 176.733 72.3872ZM179.611 63.2637L179.361 63.1892C178.931 63.1024 178.486 63.1204 178.065 63.2417C177.644 63.363 177.258 63.5841 176.94 63.8861C176.09 64.6403 175.497 65.6408 175.243 66.7482C174.653 69.1315 175.53 71.4084 177.217 71.8233C178.903 72.2383 180.744 70.6423 181.334 68.2644C181.63 67.1667 181.575 66.0037 181.175 64.9394C181.046 64.566 180.84 64.2238 180.571 63.9351C180.302 63.6464 179.974 63.4176 179.611 63.2637Z" fill="#073C6A"/>
<path d="M171.81 66.2218L171.48 65.6206C172.369 65.1259 174.305 64.6152 175.279 66.1526L174.694 66.5143C173.827 65.1365 171.89 66.1739 171.81 66.2218Z" fill="#073C6A"/>
<path d="M149.106 63.0827L148.574 62.6571C148.776 62.4071 150.569 60.21 152.117 60.2632C153.57 60.3164 162.432 62.9231 162.81 63.0561L162.613 63.7157C160.07 62.9603 153.218 60.9867 152.096 60.9494C151.064 60.9122 149.59 62.4762 149.106 63.0827Z" fill="#073C6A"/>
<path d="M155.952 63.1945C155.952 63.1945 154.521 56.3425 151.563 56.6351C148.605 56.9277 148.105 65.7427 150.473 67.993C150.755 68.3023 151.098 68.5513 151.479 68.7249C151.861 68.8984 152.273 68.993 152.692 69.003C153.111 69.0129 153.528 68.938 153.917 68.7827C154.306 68.6274 154.66 68.395 154.957 68.0994L155.952 63.1945Z" fill="#CB8D5F"/>
<path d="M151.483 59.1674C151.441 59.1408 151.404 59.1993 151.435 59.2365C153.069 60.875 153.319 63.1466 153.239 65.349C152.962 64.3702 152.334 63.6254 151.058 63.9074C150.994 63.9074 151.01 64.0191 151.058 64.035C151.452 64.0714 151.824 64.2299 152.124 64.4884C152.423 64.7469 152.635 65.0924 152.728 65.4767C152.884 66.1182 152.972 66.7745 152.989 67.4344C152.989 67.6525 153.361 67.6951 153.383 67.4344C153.38 67.4168 153.38 67.3989 153.383 67.3812C154.521 64.9234 154.074 60.5718 151.483 59.1674Z" fill="#263238"/>
<path d="M192.425 111.286C193.771 107.743 224.977 114.159 223.732 119.59C219.162 139.486 206.427 157.265 203.208 161.33C198.984 166.65 190.579 165.469 187.515 162.245C183.073 157.569 191.095 114.797 192.425 111.286Z" fill="#CB8D5F"/>
<path d="M190.227 121.053C189.533 122.96 188.984 124.916 188.583 126.905C188.131 128.873 187.737 130.852 187.418 132.842C186.787 136.867 186.432 140.93 186.354 145.003C186.296 147.28 186.354 149.552 186.354 151.829C186.354 151.882 186.439 151.876 186.439 151.829C186.439 149.812 186.562 147.78 186.727 145.769C186.891 143.758 187.094 141.71 187.354 139.694C187.86 135.731 188.418 131.773 189.136 127.841C189.335 126.738 189.543 125.639 189.759 124.543C189.988 123.405 190.248 122.271 190.397 121.117C190.397 121.032 190.264 120.957 190.227 121.053Z" fill="#263238"/>
<path d="M184.898 55.2092C184.693 57.9184 184.287 60.6087 183.685 63.2582C183.584 63.7104 183.472 64.1732 183.361 64.6307C182.914 66.4501 182.382 68.2801 181.765 70.041C181.623 70.4666 181.474 70.8868 181.318 71.3018C179.429 76.4035 176.934 80.7924 174.125 82.6544C173.412 83.1327 172.655 83.5424 171.865 83.8779C167.838 81.5295 164.475 78.1951 162.093 74.1886C159.71 70.1821 158.386 65.6352 158.246 60.9759L157.395 60.7419C157.528 60.5344 157.666 60.3216 157.799 60.0982C157.932 59.8747 158.097 59.5928 158.24 59.3268C158.454 52.4776 161.22 45.9557 165.997 41.0424C172.684 39.2443 180.69 41.8138 184.058 47.6816C184.877 49.1339 185.127 51.8683 184.898 55.2092Z" fill="#CB8D5F"/>
<path d="M170.881 60.3801C170.315 60.4094 169.749 60.4094 169.184 60.3801C168.529 60.3801 168.008 60.428 167.449 60.0396C167.299 59.9124 167.196 59.738 167.158 59.5448C167.119 59.3516 167.147 59.151 167.237 58.9757C167.646 58.2522 168.444 58.066 169.232 58.05C170.022 58.0032 170.801 58.2516 171.418 58.7469C171.555 58.8682 171.653 59.0269 171.701 59.2034C171.749 59.3799 171.744 59.5665 171.686 59.7402C171.629 59.9139 171.523 60.067 171.379 60.1807C171.236 60.2944 171.063 60.3638 170.881 60.3801Z" fill="#263238"/>
<path d="M170.383 63.1308C170.383 63.0829 170.271 63.1733 170.26 63.2212C170.053 64.4926 169.595 65.913 168.372 66.1046C168.335 66.1046 168.324 66.1737 168.372 66.179C169.798 66.2322 170.383 64.3437 170.383 63.1308Z" fill="#263238"/>
<path d="M169.519 61.5611C167.519 61.0026 166.55 65.0456 168.402 65.5617C170.253 66.0777 171.195 62.0293 169.519 61.5611Z" fill="#263238"/>
<path d="M177.658 64.6628C177.658 64.6203 177.744 64.7479 177.728 64.8011C177.387 66.0407 177.196 67.5196 178.26 68.2059C178.291 68.2059 178.26 68.291 178.233 68.275C176.882 67.7483 177.137 65.7906 177.658 64.6628Z" fill="#263238"/>
<path d="M179.087 63.6253C181.135 63.9551 180.326 68.0301 178.427 67.7269C176.528 67.4237 177.368 63.3486 179.087 63.6253Z" fill="#263238"/>
<path d="M181.163 61.6199C180.631 61.3912 180.168 61.0879 179.657 60.8166C179.087 60.6073 178.601 60.2167 178.274 59.7048C178.204 59.5241 178.196 59.3255 178.251 59.1398C178.306 58.9541 178.42 58.7918 178.577 58.678C179.274 58.2259 180.072 58.4333 180.779 58.7844C181.497 59.116 182.065 59.7017 182.375 60.4283C182.436 60.5967 182.447 60.7788 182.407 60.9532C182.367 61.1275 182.278 61.2868 182.15 61.4122C182.023 61.5376 181.862 61.6237 181.687 61.6606C181.512 61.6974 181.33 61.6833 181.163 61.6199Z" fill="#263238"/>
<path d="M166.194 73.9511C166.423 74.3129 166.625 74.7864 167.072 74.9353C167.54 75.039 168.025 75.039 168.492 74.9353C168.502 74.935 168.511 74.9375 168.519 74.9424C168.527 74.9473 168.533 74.9544 168.537 74.9629C168.541 74.9714 168.543 74.9809 168.541 74.9902C168.54 74.9995 168.536 75.0081 168.53 75.0151C168.292 75.2184 168.004 75.3534 167.696 75.4059C167.388 75.4583 167.071 75.4263 166.779 75.313C166.54 75.1858 166.345 74.9905 166.217 74.7518C166.089 74.5131 166.035 74.2419 166.061 73.9724C166.056 73.898 166.157 73.8979 166.194 73.9511Z" fill="#263238"/>
<path d="M168.404 70.5146C168.602 71.0862 168.917 71.6105 169.328 72.0546C169.739 72.4986 170.238 72.8528 170.792 73.0947C171.274 73.312 171.785 73.459 172.308 73.5309C172.408 73.5535 172.51 73.5659 172.612 73.5681C172.706 73.574 172.8 73.574 172.894 73.5681C172.964 73.5726 173.033 73.5536 173.091 73.5141C173.149 73.4745 173.192 73.4168 173.213 73.35C173.218 73.3077 173.218 73.2647 173.213 73.2224V73.1106C173.468 72.1531 173.745 70.6635 173.745 70.6635C174.053 70.9242 175.655 72.1637 175.745 71.653C176.495 67.3971 177.341 62.721 177.181 58.3534C177.181 58.3223 177.169 58.2926 177.147 58.2706C177.125 58.2487 177.095 58.2363 177.064 58.2363C177.033 58.2363 177.004 58.2487 176.982 58.2706C176.96 58.2926 176.947 58.3223 176.947 58.3534C176.064 62.3858 175.883 66.5513 175.08 70.589C174.511 70.1487 173.882 69.7905 173.213 69.5251C173.069 69.5251 172.766 72.4084 172.617 72.8287C172.619 72.8428 172.619 72.8572 172.617 72.8712C170.952 72.6904 169.845 71.9137 168.537 70.4454C168.473 70.339 168.35 70.3975 168.404 70.5146Z" fill="#263238"/>
<path d="M171.862 72.9086C171.168 73.4639 170.341 73.8304 169.463 73.9726C168.983 74.0415 168.493 73.9558 168.064 73.7279C167.122 73.2278 167.319 72.3022 167.692 71.5627C167.892 71.1698 168.139 70.8019 168.426 70.4668C169.281 71.627 170.485 72.4827 171.862 72.9086Z" fill="#263238"/>
<path d="M169.459 73.9885C168.979 74.0575 168.489 73.9718 168.06 73.7438C167.118 73.2437 167.315 72.3181 167.688 71.5786C168.73 71.9457 169.619 72.9245 169.459 73.9885Z" fill="#FF97B8"/>
<path d="M185.737 54.9064C185.455 55.0234 185.173 55.1245 184.896 55.2096C177.278 57.5716 169.868 49.0705 169.868 49.0705C168.968 50.4611 167.642 51.5233 166.089 52.0986C164.536 52.6739 162.838 52.7313 161.25 52.2624C160.424 54.6967 159.412 57.0639 158.223 59.3431C158.366 54.8194 159.624 50.4011 161.884 46.4801C164.145 42.5592 167.339 39.2571 171.182 36.8667C173.609 37.7182 175.97 38.7459 178.247 39.9416C179.19 38.5922 180.436 37.4826 181.885 36.7018C182.235 36.5051 182.62 36.3812 183.019 36.3378C183.417 36.2943 183.82 36.3322 184.204 36.4491C184.587 36.5659 184.943 36.7594 185.249 37.0177C185.556 37.276 185.807 37.5939 185.987 37.952C185.219 38.6983 184.628 39.6072 184.258 40.6119C182.992 43.9209 185.79 44.5007 186.413 41.3886C186.688 40.2309 186.536 39.0128 185.987 37.9573C187.79 36.2177 190.184 36.0262 191.307 37.4253C193.403 39.8831 192.307 52.1666 185.737 54.9064Z" fill="#263238"/>
<path d="M171.528 60.0135C170.642 59.2757 169.545 58.8396 168.394 58.7686C168.048 58.7462 167.7 58.7587 167.357 58.8059C166.495 58.9173 165.672 59.234 164.957 59.7292C164.242 60.2244 163.657 60.8838 163.25 61.652C163.132 61.8668 163.033 62.091 162.952 62.3223C162.767 62.8137 162.658 63.3303 162.627 63.8544C162.553 65.0616 162.882 66.2593 163.563 67.2589C164.244 68.2586 165.238 69.0035 166.389 69.3764C166.82 69.5122 167.267 69.5961 167.719 69.6265H168.059C169.363 69.6289 170.625 69.1639 171.616 68.3158C172.606 67.4676 173.26 66.2925 173.459 65.0035C173.459 64.8492 173.496 64.695 173.507 64.5354C173.517 64.3758 173.507 64.3013 173.507 64.1896C173.505 63.3907 173.327 62.602 172.984 61.8801C172.642 61.1581 172.145 60.5207 171.528 60.0135ZM167.761 68.8976C166.617 68.8244 165.539 68.337 164.729 67.5265C163.919 66.716 163.431 65.638 163.358 64.4942C163.285 63.3505 163.632 62.2193 164.332 61.3123C165.033 60.4053 166.04 59.7847 167.165 59.5666C167.556 59.4909 167.955 59.4659 168.352 59.4921C168.742 59.5176 169.128 59.5909 169.501 59.7103C169.976 59.8629 170.423 60.0911 170.825 60.3859C171.652 60.9846 172.262 61.8358 172.563 62.8112C172.864 63.7867 172.84 64.8336 172.494 65.7941C172.148 66.7546 171.5 67.5766 170.646 68.1364C169.792 68.6962 168.78 68.9634 167.761 68.8976Z" fill="#073C6A"/>
<path d="M183.779 63.4871L183.683 63.2583C183.357 62.5104 182.797 61.8886 182.087 61.4868C181.858 61.3593 181.613 61.2627 181.358 61.1995C180.988 61.1093 180.604 61.0877 180.225 61.1357C179.454 61.2436 178.731 61.5746 178.145 62.0879C177.705 62.4626 177.325 62.9021 177.017 63.3913C176.783 63.7538 176.585 64.1387 176.427 64.5404C176.318 64.7994 176.229 65.0661 176.161 65.3384C176.142 65.3924 176.126 65.4475 176.113 65.5033C175.797 66.7096 175.831 67.9805 176.209 69.1687C176.366 69.7189 176.644 70.2273 177.022 70.6569C177.4 71.0866 177.869 71.4268 178.395 71.6531C178.507 71.6956 178.618 71.7275 178.736 71.7594C179.176 71.8594 179.632 71.8705 180.077 71.7919C180.522 71.7134 180.947 71.5468 181.326 71.3019C182.681 70.4164 183.636 69.0359 183.986 67.4557C184.333 66.1436 184.261 64.7558 183.779 63.4871ZM183.247 67.2801C183.005 68.3177 182.488 69.2713 181.752 70.0411C181.405 70.4454 180.958 70.7515 180.456 70.9289C179.954 71.1062 179.414 71.1487 178.89 71.0519C177.102 70.6104 176.171 68.2005 176.799 65.6788C177.067 64.5065 177.694 63.4467 178.592 62.6465C178.93 62.3269 179.34 62.0929 179.787 61.9642C180.234 61.8356 180.705 61.816 181.161 61.9071C181.25 61.9281 181.337 61.9547 181.422 61.9869C181.807 62.1511 182.154 62.394 182.44 62.7C182.725 63.0059 182.944 63.3683 183.082 63.7637C183.196 64.0436 183.281 64.334 183.337 64.6308C183.507 65.5085 183.484 66.4126 183.268 67.2801H183.247Z" fill="#073C6A"/>
<path d="M173.182 65.1204L172.836 64.482C173.778 63.95 175.831 63.418 176.858 65.0672L176.241 65.4502C175.32 63.9713 173.272 65.0725 173.182 65.1204Z" fill="#073C6A"/>
<path d="M163.646 61.769L163.438 62.4659L162.954 62.3223C161.757 61.9712 159.991 61.4605 158.23 60.971L157.379 60.737C157.512 60.5295 157.65 60.3167 157.783 60.0933L158.214 60.2156C160.342 60.8008 162.401 61.402 163.252 61.652L163.646 61.769Z" fill="#073C6A"/>
<g opacity="0.3">
<path opacity="0.3" d="M191.549 86.9581C186.249 88.1254 180.721 87.6948 175.666 85.7207C170.61 83.7466 166.254 80.3176 163.147 75.8675C160.041 71.4173 158.323 66.1459 158.213 60.7197C158.102 55.2936 159.603 49.9566 162.526 45.3835C165.448 40.8105 169.662 37.2068 174.632 35.0283C179.603 32.8498 185.109 32.1943 190.452 33.1447C195.795 34.0951 200.737 36.6087 204.652 40.3676C208.566 44.1265 211.279 48.9619 212.445 54.2623C213.22 57.7812 213.295 61.4184 212.664 64.9661C212.034 68.5138 210.71 71.9025 208.77 74.9387C206.829 77.9749 204.31 80.5991 201.355 82.6614C198.4 84.7237 195.068 86.1837 191.549 86.9581Z" fill="white"/>
<path opacity="0.3" d="M161.582 73.334C165.058 79.6789 170.898 84.3955 177.832 86.4586C184.766 88.5216 192.235 87.7644 198.614 84.3514L161.582 73.334Z" fill="#EBEBEB"/>
<path opacity="0.3" d="M162.371 45.6547L213.091 60.7471C213.135 58.5679 212.92 56.3911 212.452 54.2622C211.922 51.82 211.053 49.4637 209.872 47.2613L172.431 36.1162C168.317 38.383 164.853 41.6672 162.371 45.6547Z" fill="#EBEBEB"/>
<path opacity="0.3" d="M158.411 63.3645L206.721 77.7281C207.872 76.3457 208.886 74.8544 209.748 73.2754L158.305 57.9648C158.156 59.7637 158.192 61.5729 158.411 63.3645Z" fill="#EBEBEB"/>
<path opacity="0.3" d="M160.613 48.9743L212.748 64.4923C212.801 64.1624 212.849 63.8326 212.886 63.5028L161.028 48.0752C160.885 48.3678 160.741 48.6657 160.613 48.9743Z" fill="#EBEBEB"/>
<path opacity="0.3" d="M181.109 33.105L204.251 39.9889C203.65 39.4303 203.017 38.925 202.362 38.393L183.567 32.8071C182.743 32.8642 181.923 32.9637 181.109 33.105Z" fill="#EBEBEB"/>
</g>
<path d="M195.322 120.879L202.367 119.327L195.544 88.3472L188.5 89.8987L195.322 120.879Z" fill="#EBEBEB"/>
<path d="M215.443 53.6028C214.145 47.7109 211.13 42.336 206.778 38.1579C202.426 33.9797 196.932 31.1859 190.993 30.1298C185.053 29.0736 178.933 29.8025 173.407 32.2244C167.882 34.6462 163.198 38.6522 159.949 43.7358C156.7 48.8193 155.032 54.7521 155.155 60.7839C155.278 66.8158 157.186 72.6757 160.64 77.6227C164.093 82.5698 168.935 86.3817 174.555 88.5766C180.175 90.7714 186.319 91.2506 192.211 89.9534C200.111 88.2114 206.996 83.4038 211.352 76.5874C215.708 69.771 217.18 61.5037 215.443 53.6028ZM191.546 86.9583C186.246 88.1267 180.718 87.6971 175.662 85.7238C170.606 83.7504 166.249 80.3221 163.142 75.8722C160.034 71.4224 158.316 66.151 158.205 60.7248C158.094 55.2985 159.594 49.9611 162.516 45.3875C165.438 40.814 169.651 37.2098 174.622 35.0307C179.593 32.8517 185.098 32.1957 190.442 33.1457C195.786 34.0957 200.727 36.609 204.643 40.3678C208.558 44.1266 211.27 48.962 212.437 54.2625C213.212 57.7811 213.287 61.4179 212.657 64.9653C212.026 68.5128 210.704 71.9013 208.764 74.9374C206.824 77.9735 204.305 80.5978 201.35 82.6604C198.396 84.7229 195.065 86.1834 191.546 86.9583Z" fill="#455A64"/>
<path d="M198.232 142.679L208.888 140.333L202.845 112.866L192.184 115.212L198.232 142.679Z" fill="#263238"/>
<path d="M202.886 56.5662C202.874 56.535 202.865 56.503 202.859 56.4704C202.731 56.0129 202.997 56.9119 202.901 56.614C202.806 56.3161 202.667 55.8959 202.534 55.5501C202.069 54.3159 201.499 53.1235 200.832 51.9858C200.742 51.8262 200.641 51.6666 200.55 51.507C200.518 51.4538 200.784 51.8794 200.55 51.5442L200.364 51.2569C200.119 50.8899 199.869 50.5281 199.608 50.193C199.032 49.4145 198.405 48.6751 197.731 47.9799L197.241 47.4905C197.018 47.2724 197.502 47.7299 197.193 47.4479L196.885 47.166C196.486 46.8202 196.076 46.485 195.651 46.1658C195.225 45.8466 194.72 45.4955 194.235 45.1923C194.012 45.054 193.789 44.921 193.56 44.7933C193.166 44.5646 193.73 44.8731 193.437 44.7242L193.017 44.5114C191.746 43.886 190.417 43.3871 189.049 43.0218H188.979L188.83 42.9899L188.219 42.8569C187.82 42.7771 187.426 42.7079 187.022 42.6494C186.177 42.5285 185.326 42.4504 184.474 42.4153C184.237 42.3884 184.007 42.3152 183.799 42.1997C183.59 42.0842 183.407 41.9288 183.258 41.7423C182.958 41.3657 182.821 40.8854 182.875 40.4071C182.929 39.9288 183.171 39.4917 183.548 39.1919C183.925 38.8921 184.405 38.7542 184.883 38.8085C190.319 38.9766 195.517 41.0758 199.545 44.7295C202.221 47.2355 204.313 50.2994 205.673 53.7041C205.984 54.4641 206.244 55.2444 206.45 56.0395C206.523 56.5148 206.406 56.9999 206.123 57.3887C205.839 57.7775 205.414 58.0383 204.939 58.1142C204.465 58.178 203.985 58.0565 203.599 57.775C203.212 57.4936 202.949 57.0739 202.864 56.6034L202.886 56.5662Z" fill="white"/>
<path d="M203.63 61.9125C203.684 62.2623 203.841 62.5882 204.08 62.8489C204.32 63.1097 204.631 63.2934 204.975 63.377C205.319 63.4605 205.68 63.4401 206.012 63.3182C206.345 63.1963 206.633 62.9786 206.842 62.6925C207.05 62.4064 207.169 62.0648 207.183 61.7112C207.197 61.3575 207.106 61.0076 206.921 60.7058C206.736 60.4041 206.465 60.164 206.144 60.0161C205.822 59.8682 205.464 59.8191 205.115 59.875C204.648 59.9496 204.23 60.2058 203.952 60.5875C203.674 60.9693 203.558 61.4457 203.63 61.9125Z" fill="white"/>
<path d="M221.635 125.809C221.635 125.809 229.253 113.286 219.768 101.338C215.863 96.4225 206.649 87.6075 187.955 88.8364C183.518 89.129 177.406 92.688 184.822 94.8425C190.088 96.3746 193.892 95.7522 196.797 97.1992C196.797 97.1992 189.556 102.652 190.025 107.083C190.232 109.062 190.386 113.388 191.53 117.505C191.53 117.505 193.03 118.569 194.249 118.388C194.249 118.388 197.531 127.858 209.336 130.768L221.635 125.809Z" fill="#CB8D5F"/>
<path d="M215.764 99.7313C212.711 98.5131 206.189 96.0447 200.151 95.8744C193.442 95.6882 180.467 97.1405 180.387 102.093C180.323 105.727 185.324 105.604 185.324 105.604C185.324 105.604 180.089 107.333 180.754 110.626C181.356 113.627 185.218 113.286 185.218 113.286C185.218 113.286 182.223 114.882 183.361 117.659C184.728 121 190.777 117.127 195.065 119.298C196.054 119.808 215.764 99.7313 215.764 99.7313Z" fill="#CB8D5F"/>
<path d="M201.123 102.993C198.064 102.322 190.717 102.578 185.387 105.488C185.265 105.551 185.249 105.679 185.387 105.642C190.509 104.148 195.793 103.28 201.123 103.056C201.171 103.056 201.171 103.03 201.123 102.993Z" fill="#263238"/>
<path d="M200.752 109.759C198.05 109.451 190.49 110.052 185.191 113.185C185.069 113.255 185.064 113.382 185.191 113.34C190.232 111.583 195.456 110.403 200.763 109.823C200.771 109.822 200.779 109.817 200.784 109.81C200.789 109.803 200.791 109.795 200.789 109.786C200.788 109.778 200.783 109.77 200.776 109.765C200.769 109.76 200.76 109.758 200.752 109.759Z" fill="#263238"/>
<path d="M211.64 131.581C208.932 130.938 206.318 129.95 203.862 128.639C201.39 127.301 199.202 125.494 197.42 123.319C196.888 122.654 196.356 121.963 195.893 121.255C195.43 120.548 194.92 119.744 194.372 119.042C194.329 118.989 194.228 119.042 194.26 119.09C194.876 120.567 195.635 121.98 196.526 123.309C197.325 124.552 198.28 125.687 199.367 126.687C201.514 128.597 204.057 130.007 206.815 130.815C208.381 131.251 209.983 131.541 211.603 131.682C211.683 131.703 211.714 131.597 211.64 131.581Z" fill="#263238"/>
<path d="M133.986 91.507C120.282 109.908 97.4116 157.867 94.0494 164.921C91.7672 169.709 116.786 182.317 117.845 178.838C119.207 174.38 141.577 115.532 144.71 94.0765C146.423 82.3143 138.726 85.1392 133.986 91.507Z" fill="#CB8D5F"/>
<path d="M118.521 176.444C117.941 180.779 114.994 189.515 112.802 190.85C110.611 192.185 99.0932 191.914 93.2893 191.914C87.4853 191.914 86.3735 190.291 86.4426 188.296C86.5118 186.301 98.7155 185.918 98.7155 185.918C98.7155 185.918 82.4474 190.557 78.3564 191.339C74.2655 192.121 64.844 194.478 63.4608 191.089C62.849 189.557 65.4292 188.009 65.4292 188.009C65.4292 188.009 61.4765 189.164 60.8435 187.201C60.1306 184.961 63.2746 183.732 63.2746 183.732C63.2746 183.732 60.8009 184.227 60.7424 182.402C60.636 178.306 76.1061 176.305 76.1061 176.305C76.1061 176.305 64.2641 182.072 63.8705 178.742C63.3385 174.14 87.6183 169.092 90.1452 167.086C91.9838 165.553 93.7035 163.884 95.2895 162.091L118.521 176.444Z" fill="#CB8D5F"/>
<path d="M86.5263 189.286C86.4853 189.003 86.5122 188.715 86.6047 188.445C86.6972 188.175 86.8527 187.931 87.0583 187.732C87.4755 187.35 87.9538 187.041 88.4734 186.817C89.5467 186.361 90.6597 186.005 91.7983 185.753C94.0859 185.174 96.4319 184.764 98.7673 184.158C96.3599 184.121 93.9576 184.39 91.6175 184.955C90.4217 185.23 89.2703 185.67 88.1968 186.264C87.641 186.57 87.1539 186.986 86.7657 187.488C86.5749 187.742 86.4527 188.041 86.4107 188.355C86.3688 188.67 86.4086 188.991 86.5263 189.286Z" fill="#263238"/>
<path d="M65.4648 187.988C67.1406 187.578 68.7898 187.11 70.4336 186.631C72.0774 186.152 73.7159 185.652 75.3545 185.158L80.254 183.626C81.8872 183.094 83.5204 182.604 85.1696 182.109C83.4575 182.298 81.7602 182.602 80.0891 183.019C78.4081 183.402 76.7589 183.881 75.1151 184.381C73.4712 184.881 71.8434 185.445 70.2368 186.041C68.6302 186.637 67.0076 187.264 65.4648 187.988Z" fill="#263238"/>
<path d="M81.2223 178.04C79.6443 178.139 78.0758 178.356 76.5302 178.689C74.9792 178.997 73.4465 179.391 71.9391 179.87C70.4282 180.338 68.9451 180.892 67.4971 181.529C66.0439 182.15 64.6375 182.876 63.2891 183.7C64.7839 183.168 66.2416 182.609 67.7258 182.104C69.2101 181.599 70.689 181.098 72.1839 180.641C73.6787 180.183 75.1736 179.731 76.6791 179.29C78.1847 178.848 79.6955 178.465 81.2223 178.04Z" fill="#263238"/>
<path d="M78.8314 174.167C76.2897 174.371 73.7859 174.908 71.3836 175.762C68.9578 176.566 66.6486 177.686 64.5156 179.093C66.9202 178.236 69.2609 177.332 71.6496 176.534C74.0382 175.736 76.4055 174.949 78.8314 174.167Z" fill="#263238"/>
<path d="M139.813 123.048L112.043 122.282C112.043 122.282 127.178 98.1941 135.285 89.3578C143.749 80.1544 148.356 80.9471 145.468 97.2525C142.558 113.67 139.813 123.048 139.813 123.048Z" fill="#073C6A"/>
<path d="M122.628 118.202C121.879 118.529 121.177 118.957 120.543 119.473C122.164 119.211 123.691 118.535 124.974 117.51C124.163 117.626 123.373 117.859 122.628 118.202ZM138.136 100.561C137.815 99.808 137.387 99.1056 136.864 98.4756C137.12 100.098 137.799 101.625 138.833 102.902C138.716 102.092 138.481 101.303 138.136 100.561ZM125.331 105.796C125.028 106.555 124.834 107.354 124.756 108.168C125.721 106.839 126.319 105.28 126.491 103.647C126.001 104.302 125.61 105.026 125.331 105.796ZM137.567 116.67C137.261 117.43 137.069 118.231 136.997 119.047C137.956 117.715 138.553 116.157 138.732 114.526C138.239 115.18 137.843 115.902 137.556 116.67H137.567ZM145.706 85.043C145.573 85.3196 145.451 85.6016 145.333 85.8888C145.033 86.6494 144.84 87.4478 144.759 88.2615C145.249 87.6118 145.643 86.8951 145.929 86.1335C145.956 86.0644 145.977 86.0005 145.998 85.9314C145.923 85.6273 145.821 85.3301 145.695 85.043H145.706Z" fill="white"/>
<path d="M138.072 118.218C137.413 118.122 136.737 118.122 136.077 118.09L134.029 117.978C132.653 117.911 131.272 117.856 129.885 117.813C127.119 117.728 124.358 117.632 121.597 117.595C120.836 117.595 120.075 117.595 119.315 117.595C118.554 117.595 117.719 117.675 116.921 117.68C116.873 117.68 116.878 117.755 116.921 117.755C117.602 117.797 118.283 117.898 118.969 117.941C119.655 117.984 120.368 118.026 121.07 118.053C122.453 118.106 123.836 118.154 125.22 118.186C127.938 118.25 130.662 118.324 133.38 118.329H135.689C136.482 118.329 137.285 118.372 138.083 118.303C138.104 118.287 138.115 118.223 138.072 118.218Z" fill="#263238"/>
<path d="M145.194 104.987C145.194 104.934 145.131 104.902 145.104 104.955C144.589 105.904 144.148 106.891 143.785 107.908C143.88 107.424 143.992 106.94 144.083 106.45C144.386 104.886 144.662 103.312 144.971 101.747C144.968 101.738 144.962 101.73 144.954 101.724C144.945 101.718 144.936 101.715 144.926 101.715C144.916 101.715 144.906 101.718 144.898 101.724C144.89 101.73 144.884 101.738 144.881 101.747C144.162 104.439 143.327 107.105 142.689 109.818C142.05 112.531 141.407 115.244 140.811 117.968C140.486 119.473 140.194 121.351 139.864 122.851C139.061 122.947 138.029 122.851 137.161 122.963C137.087 122.963 137.108 123.096 137.161 123.096C138.077 123.123 139.167 123.33 140.13 123.272C140.252 123.272 142.582 113.595 143.551 108.961C144.146 107.642 144.7 106.323 145.194 104.987Z" fill="#263238"/>
<path d="M164.949 89.9429C164.56 91.2143 164.119 92.4698 163.614 93.6987C163.192 94.8058 162.674 95.8739 162.065 96.8906C160.916 98.7047 159.15 100.205 156.911 100.2C154.783 100.2 152.836 98.9654 151.474 97.3907C149.984 95.6724 148.995 93.5179 148.106 91.4431C147.574 90.161 147.042 88.8523 146.617 87.5277C146.399 86.8574 146.17 86.1871 145.978 85.5061C145.787 84.8252 145.622 84.1389 145.388 83.474C145.388 83.4208 145.271 83.4261 145.287 83.474C145.68 85.0061 146.824 89.8578 147.282 91.092C148.122 93.3529 149.069 95.6883 150.585 97.5929C152.022 99.391 153.974 100.753 156.309 100.976C158.645 101.2 160.645 99.9708 161.932 98.1195C162.689 96.9534 163.28 95.6875 163.688 94.3584C164.183 92.9007 164.598 91.4059 164.975 89.911C164.997 89.9323 164.949 89.9269 164.949 89.9429Z" fill="#263238"/>
<path d="M252.121 193.201H213.972L212.27 159.665H252.121V193.201Z" fill="#DBDBDB"/>
<path d="M252.117 159.665L265.821 142.508L276.727 159.665L275.025 193.201H252.117V159.665Z" fill="#C7C7C7"/>
<path d="M225.584 137.061H266.307L280.996 161.022H276.266L266.307 144.434L254.822 163.001H208.906L225.584 137.061Z" fill="#A6A6A6"/>
<path d="M230.302 144.642H221.546L216.875 150.238H226.983L230.302 144.642Z" fill="#C7C7C7"/>
<path d="M223.67 149.281V156.095H218.797V149.281L221.233 146.232L223.67 149.281Z" fill="#DBDBDB"/>
<path d="M223.668 149.275H227.498L223.668 156.095V149.275Z" fill="#C7C7C7"/>
<path d="M222.494 149.387H219.723V154.063H222.494V149.387Z" fill="#FBFAFF"/>
<path d="M220.956 149.711H220.062V151.217H220.956V149.711Z" fill="#EBEBEB"/>
<path d="M222.148 149.711H221.254V151.217H222.148V149.711Z" fill="#EBEBEB"/>
<path d="M220.956 151.488H220.062V153.717H220.956V151.488Z" fill="#EBEBEB"/>
<path d="M222.148 151.488H221.254V153.717H222.148V151.488Z" fill="#EBEBEB"/>
<path d="M251.742 144.642H242.985L238.602 150.238H248.401L251.742 144.642Z" fill="#C7C7C7"/>
<path d="M245.107 149.281V156.095H240.234V149.281L242.671 146.232L245.107 149.281Z" fill="#DBDBDB"/>
<path d="M245.105 149.275H248.941L245.105 156.095V149.275Z" fill="#C7C7C7"/>
<path d="M243.932 149.387H241.16V154.063H243.932V149.387Z" fill="#FBFAFF"/>
<path d="M242.394 149.711H241.5V151.217H242.394V149.711Z" fill="#EBEBEB"/>
<path d="M243.593 149.711H242.699V151.217H243.593V149.711Z" fill="#EBEBEB"/>
<path d="M242.394 151.488H241.5V153.717H242.394V151.488Z" fill="#EBEBEB"/>
<path d="M243.593 151.488H242.699V153.717H243.593V151.488Z" fill="#EBEBEB"/>
<path d="M259.002 136.093H254.129V142.509H259.002V136.093Z" fill="#DBDBDB"/>
<path d="M259.004 136.093H262.834V137.125L259.004 142.509V136.093Z" fill="#C7C7C7"/>
<path d="M259.003 133.912H253.582V136.093H259.003V133.912Z" fill="#C7C7C7"/>
<path d="M263.254 133.912H259.004V136.093H263.254V133.912Z" fill="#A6A6A6"/>
<path d="M224.037 165.746H218.004V175.933H224.037V165.746Z" fill="#FBFAFF"/>
<path d="M220.688 166.453H218.746V169.735H220.688V166.453Z" fill="#EBEBEB"/>
<path d="M223.289 166.453H221.348V169.735H223.289V166.453Z" fill="#EBEBEB"/>
<path d="M220.688 170.326H218.746V175.189H220.688V170.326Z" fill="#EBEBEB"/>
<path d="M223.289 170.326H221.348V175.189H223.289V170.326Z" fill="#EBEBEB"/>
<path d="M246.443 165.746H240.41V175.933H246.443V165.746Z" fill="#FBFAFF"/>
<path d="M243.098 166.453H241.156V169.735H243.098V166.453Z" fill="#EBEBEB"/>
<path d="M245.7 166.453H243.758V169.735H245.7V166.453Z" fill="#EBEBEB"/>
<path d="M243.098 170.326H241.156V175.189H243.098V170.326Z" fill="#EBEBEB"/>
<path d="M245.7 170.326H243.758V175.189H245.7V170.326Z" fill="#EBEBEB"/>
<path d="M224.037 179.902H218.004V190.089H224.037V179.902Z" fill="#FBFAFF"/>
<path d="M220.688 180.609H218.746V183.892H220.688V180.609Z" fill="#EBEBEB"/>
<path d="M223.289 180.609H221.348V183.892H223.289V180.609Z" fill="#EBEBEB"/>
<path d="M220.688 184.482H218.746V189.344H220.688V184.482Z" fill="#EBEBEB"/>
<path d="M223.289 184.482H221.348V189.344H223.289V184.482Z" fill="#EBEBEB"/>
<path d="M246.443 179.902H240.41V190.089H246.443V179.902Z" fill="#FBFAFF"/>
<path d="M243.098 180.609H241.156V183.892H243.098V180.609Z" fill="#EBEBEB"/>
<path d="M245.7 180.609H243.758V183.892H245.7V180.609Z" fill="#EBEBEB"/>
<path d="M243.098 184.482H241.156V189.344H243.098V184.482Z" fill="#EBEBEB"/>
<path d="M245.7 184.482H243.758V189.344H245.7V184.482Z" fill="#EBEBEB"/>
<path d="M235.208 165.746H229.176V175.933H235.208V165.746Z" fill="#FBFAFF"/>
<path d="M231.86 166.453H229.918V169.735H231.86V166.453Z" fill="#EBEBEB"/>
<path d="M234.469 166.453H232.527V169.735H234.469V166.453Z" fill="#EBEBEB"/>
<path d="M231.86 170.326H229.918V175.189H231.86V170.326Z" fill="#EBEBEB"/>
<path d="M234.469 170.326H232.527V175.189H234.469V170.326Z" fill="#EBEBEB"/>
<path d="M235.208 179.971H229.176V190.158H235.208V179.971Z" fill="#FBFAFF"/>
<path d="M231.86 180.673H229.918V183.956H231.86V180.673Z" fill="#EBEBEB"/>
<path d="M234.469 180.673H232.527V183.956H234.469V180.673Z" fill="#EBEBEB"/>
<path d="M231.86 184.551H229.918V189.414H231.86V184.551Z" fill="#EBEBEB"/>
<path d="M234.469 184.551H232.527V189.414H234.469V184.551Z" fill="#EBEBEB"/>
<path d="M262.959 175.933H268.992V165.746H262.959V175.933Z" fill="#FBFAFF"/>
<path d="M268.25 166.453H266.309V169.735H268.25V166.453Z" fill="#EBEBEB"/>
<path d="M265.641 166.453H263.699V169.735H265.641V166.453Z" fill="#EBEBEB"/>
<path d="M268.25 170.326H266.309V175.189H268.25V170.326Z" fill="#EBEBEB"/>
<path d="M265.641 170.326H263.699V175.189H265.641V170.326Z" fill="#EBEBEB"/>
<path d="M262.959 160.187H268.992V151.563H262.959V160.187Z" fill="#FBFAFF"/>
<path d="M268.25 152.265H266.309V155.547H268.25V152.265Z" fill="#EBEBEB"/>
<path d="M265.641 152.265H263.699V155.547H265.641V152.265Z" fill="#EBEBEB"/>
<path d="M268.25 156.175H266.309V159.458H268.25V156.175Z" fill="#EBEBEB"/>
<path d="M265.641 156.175H263.699V159.458H265.641V156.175Z" fill="#EBEBEB"/>
<path d="M262.103 193.264L269.418 193.298L269.481 180.015L262.166 179.98L262.103 193.264Z" fill="#FBFAFF"/>
<path d="M265.025 180.9L265.016 182.89L266.59 182.897L266.6 180.907L265.025 180.9Z" fill="#EBEBEB"/>
<path d="M262.966 180.889L262.957 182.879L264.532 182.886L264.541 180.897L262.966 180.889Z" fill="#EBEBEB"/>
<path d="M264.113 190.113L267.438 190.129L267.44 189.65L264.115 189.634L264.113 190.113Z" fill="#EBEBEB"/>
<path d="M266.008 179.886V181.875H267.583V179.886H266.008Z" fill="#EBEBEB"/>
<path d="M265.017 183.412L265.008 185.402L266.582 185.409L266.592 183.42L265.017 183.412Z" fill="#EBEBEB"/>
<path d="M262.947 183.396L262.938 185.386L264.512 185.393L264.522 183.404L262.947 183.396Z" fill="#EBEBEB"/>
<path d="M267.084 183.423L267.074 185.413L268.649 185.42L268.658 183.43L267.084 183.423Z" fill="#EBEBEB"/>
<path d="M265.009 185.93L265 187.919L266.575 187.927L266.584 185.937L265.009 185.93Z" fill="#EBEBEB"/>
<path d="M262.939 185.919L262.93 187.909L264.504 187.916L264.514 185.927L262.939 185.919Z" fill="#EBEBEB"/>
<path d="M267.072 185.941L267.062 187.93L268.637 187.938L268.647 185.948L267.072 185.941Z" fill="#EBEBEB"/>
<path d="M147.126 193.292H113.239L111.723 176.87H147.126V193.292Z" fill="#DBDBDB"/>
<path d="M147.117 176.848L159.289 161.612L168.982 176.848L167.466 193.271H147.117V176.848Z" fill="#C7C7C7"/>
<path d="M123.352 156.792H160.16L173.795 179.833H170.076L159.66 162.49L149.653 179.833H108.871L123.352 156.792Z" fill="#A6A6A6"/>
<path d="M122.261 182.966H116.898V190.626H122.261V182.966Z" fill="#FBFAFF"/>
<path d="M119.282 183.594H117.559V186.509H119.282V183.594Z" fill="#DBDBDB"/>
<path d="M121.595 183.594H119.871V186.509H121.595V183.594Z" fill="#DBDBDB"/>
<path d="M119.282 187.062H117.559V189.978H119.282V187.062Z" fill="#DBDBDB"/>
<path d="M121.595 187.062H119.871V189.978H121.595V187.062Z" fill="#DBDBDB"/>
<path d="M141.956 182.966H136.594V190.626H141.956V182.966Z" fill="#FBFAFF"/>
<path d="M138.978 183.594H137.254V186.509H138.978V183.594Z" fill="#DBDBDB"/>
<path d="M141.29 183.594H139.566V186.509H141.29V183.594Z" fill="#DBDBDB"/>
<path d="M138.978 187.062H137.254V189.978H138.978V187.062Z" fill="#DBDBDB"/>
<path d="M141.29 187.062H139.566V189.978H141.29V187.062Z" fill="#DBDBDB"/>
<path d="M132.141 182.556H126.23V193.292H132.141V182.556Z" fill="#FBFAFF"/>
<path d="M129.822 183.296H128.551V184.902H129.822V183.296Z" fill="#DBDBDB"/>
<path d="M131.49 183.296H130.219V184.902H131.49V183.296Z" fill="#DBDBDB"/>
<path d="M130.526 190.345H127.84V190.733H130.526V190.345Z" fill="#DBDBDB"/>
<path d="M128.15 183.296H126.879V184.902H128.15V183.296Z" fill="#DBDBDB"/>
<path d="M129.822 185.328H128.551V186.935H129.822V185.328Z" fill="#DBDBDB"/>
<path d="M131.49 185.328H130.219V186.935H131.49V185.328Z" fill="#DBDBDB"/>
<path d="M128.15 185.328H126.879V186.935H128.15V185.328Z" fill="#DBDBDB"/>
<path d="M129.822 187.36H128.551V188.967H129.822V187.36Z" fill="#DBDBDB"/>
<path d="M131.49 187.36H130.219V188.967H131.49V187.36Z" fill="#DBDBDB"/>
<path d="M128.15 187.36H126.879V188.967H128.15V187.36Z" fill="#DBDBDB"/>
<path d="M131.139 155.872H126.809V161.57H131.139V155.872Z" fill="#DBDBDB"/>
<path d="M131.141 155.872H134.545V156.787L131.141 161.57V155.872Z" fill="#C7C7C7"/>
<path d="M131.139 153.93H126.324V155.867H131.139V153.93Z" fill="#C7C7C7"/>
<path d="M134.918 153.93H131.141V155.867H134.918V153.93Z" fill="#A6A6A6"/>
<path d="M160.523 193.297H171.514L172.562 181.971H160.523V193.297Z" fill="#C7C7C7"/>
<path d="M160.521 181.971L155.09 179.519L155.212 193.297H160.521V181.971Z" fill="#DBDBDB"/>
<path d="M168.939 184.902H164.316V193.292H168.939V184.902Z" fill="#FBFAFF"/>
<path d="M167.124 185.477H166.129V186.733H167.124V185.477Z" fill="#DBDBDB"/>
<path d="M168.428 185.477H167.434V186.733H168.428V185.477Z" fill="#DBDBDB"/>
<path d="M167.676 190.424H165.574V190.728H167.676V190.424Z" fill="#DBDBDB"/>
<path d="M165.819 185.477H164.824V186.733H165.819V185.477Z" fill="#DBDBDB"/>
<path d="M154.262 178.955H170.232L175.392 182.881H160.06L154.262 178.955Z" fill="#A6A6A6"/>
<path d="M160.06 182.881H154.262V178.955L160.06 182.881Z" fill="#C7C7C7"/>
<path d="M156.629 173.215C156.629 173.757 156.79 174.287 157.091 174.737C157.392 175.188 157.82 175.539 158.321 175.747C158.822 175.954 159.373 176.008 159.905 175.902C160.437 175.795 160.925 175.534 161.308 175.15C161.691 174.767 161.951 174.278 162.056 173.746C162.161 173.214 162.106 172.663 161.898 172.163C161.69 171.662 161.338 171.235 160.887 170.934C160.436 170.634 159.905 170.474 159.363 170.475C158.638 170.477 157.942 170.766 157.429 171.279C156.917 171.793 156.629 172.489 156.629 173.215Z" fill="#FBFAFF"/>
<path d="M157.238 173.215C157.238 173.779 157.462 174.321 157.862 174.72C158.261 175.119 158.802 175.343 159.366 175.343C159.546 175.344 159.725 175.321 159.898 175.274C160.394 175.139 160.824 174.83 161.109 174.403C161.395 173.976 161.516 173.461 161.452 172.952C161.387 172.442 161.14 171.973 160.757 171.632C160.374 171.29 159.88 171.098 159.366 171.092C159.187 171.091 159.008 171.115 158.834 171.161C158.587 171.222 158.353 171.33 158.148 171.481C157.869 171.676 157.64 171.935 157.482 172.237C157.323 172.539 157.24 172.874 157.238 173.215Z" fill="#C7C7C7"/>
<path d="M159.07 175.715H159.66V170.672H159.07V175.715Z" fill="#FBFAFF"/>
<path d="M161.891 173.486V172.896H156.847V173.486H161.891Z" fill="#FBFAFF"/>
<path d="M176.182 193.297H159.057L157.887 180.63H176.182V193.297Z" fill="#C7C7C7"/>
<path opacity="0.2" d="M176.182 193.297H159.057L157.887 180.63H176.182V193.297Z" fill="black"/>
<path d="M176.184 180.63L185.573 168.874L193.048 180.63L191.882 193.297H176.184V180.63Z" fill="#C7C7C7"/>
<path d="M177.315 182.179H154.078L168.213 164.405H185.667L196.158 182.179H193.493L185.667 170.002L177.315 182.179Z" fill="#C7C7C7"/>
<path opacity="0.4" d="M177.315 182.179H154.078L168.213 164.405H185.667L196.158 182.179H193.493L185.667 170.002L177.315 182.179Z" fill="black"/>
<path d="M200.767 148.685H195.926V155.058H200.767V148.685Z" fill="#C7C7C7"/>
<path opacity="0.2" d="M200.767 148.685H195.926V155.058H200.767V148.685Z" fill="black"/>
<path d="M204.575 148.685H200.766V155.058H204.575V148.685Z" fill="#C7C7C7"/>
<path d="M200.767 146.514H195.383V148.679H200.767V146.514Z" fill="#C7C7C7"/>
<path opacity="0.5" d="M200.767 146.514H195.383V148.679H200.767V146.514Z" fill="black"/>
<path d="M204.99 146.514H200.766V148.679H204.99V146.514Z" fill="#C7C7C7"/>
<path opacity="0.4" d="M204.99 146.514H200.766V148.679H204.99V146.514Z" fill="black"/>
<path d="M217.781 193.281H179.877L178.18 174.912H217.781V193.281Z" fill="#C7C7C7"/>
<path opacity="0.2" d="M217.781 193.281H179.877L178.18 174.912H217.781V193.281Z" fill="black"/>
<path d="M217.777 174.912L231.391 157.862L242.233 174.912L240.536 193.281H217.777V174.912Z" fill="#C7C7C7"/>
<path d="M231.229 158.941L242.422 176.252H246.332L231.564 152.451H191.245L170.816 178.226H220.062L231.229 158.941Z" fill="#C7C7C7"/>
<path opacity="0.5" d="M231.229 158.941L242.422 176.252H246.332L231.564 152.451H191.245L170.816 178.226H220.062L231.229 158.941Z" fill="black"/>
<path d="M227.856 177.492H233.852V168.921H227.856V177.492Z" fill="#FBFAFF"/>
<path d="M233.111 169.619H231.18V172.88H233.111V169.619Z" fill="#C7C7C7"/>
<path d="M230.525 169.619H228.594V172.88H230.525V169.619Z" fill="#C7C7C7"/>
<path d="M233.111 173.502H231.18V176.763H233.111V173.502Z" fill="#C7C7C7"/>
<path d="M230.525 173.502H228.594V176.763H230.525V173.502Z" fill="#C7C7C7"/>
<path d="M189.96 181.727H183.965V190.297H189.96V181.727Z" fill="#FBFAFF"/>
<path d="M186.638 182.429H184.707V185.69H186.638V182.429Z" fill="#C7C7C7"/>
<path d="M189.228 182.429H187.297V185.69H189.228V182.429Z" fill="#C7C7C7"/>
<path d="M186.638 186.312H184.707V189.573H186.638V186.312Z" fill="#C7C7C7"/>
<path d="M189.228 186.312H187.297V189.573H189.228V186.312Z" fill="#C7C7C7"/>
<path d="M200.98 181.727H194.984V190.297H200.98V181.727Z" fill="#FBFAFF"/>
<path d="M197.65 182.429H195.719V185.69H197.65V182.429Z" fill="#C7C7C7"/>
<path d="M200.24 182.429H198.309V185.69H200.24V182.429Z" fill="#C7C7C7"/>
<path d="M197.65 186.312H195.719V189.573H197.65V186.312Z" fill="#C7C7C7"/>
<path d="M200.24 186.312H198.309V189.573H200.24V186.312Z" fill="#C7C7C7"/>
<path d="M211.992 181.727H205.996V190.297H211.992V181.727Z" fill="#FBFAFF"/>
<path d="M208.665 182.429H206.734V185.69H208.665V182.429Z" fill="#C7C7C7"/>
<path d="M211.251 182.429H209.32V185.69H211.251V182.429Z" fill="#C7C7C7"/>
<path d="M208.665 186.312H206.734V189.573H208.665V186.312Z" fill="#C7C7C7"/>
<path d="M211.251 186.312H209.32V189.573H211.251V186.312Z" fill="#C7C7C7"/>
<path d="M227.548 193.276H234.16V181.269H227.548V193.276Z" fill="#FBFAFF"/>
<path d="M231.566 182.099H230.141V183.897H231.566V182.099Z" fill="#C7C7C7"/>
<path d="M229.699 182.099H228.273V183.897H229.699V182.099Z" fill="#C7C7C7"/>
<path d="M229.35 190.419H232.355V189.983H229.35V190.419Z" fill="#C7C7C7"/>
<path d="M233.43 182.099H232.004V183.897H233.43V182.099Z" fill="#C7C7C7"/>
<path d="M231.566 184.371H230.141V186.169H231.566V184.371Z" fill="#C7C7C7"/>
<path d="M229.699 184.371H228.273V186.169H229.699V184.371Z" fill="#C7C7C7"/>
<path d="M233.43 184.371H232.004V186.169H233.43V184.371Z" fill="#C7C7C7"/>
<path d="M231.566 186.642H230.141V188.44H231.566V186.642Z" fill="#C7C7C7"/>
<path d="M229.699 186.642H228.273V188.44H229.699V186.642Z" fill="#C7C7C7"/>
<path d="M233.43 186.642H232.004V188.44H233.43V186.642Z" fill="#C7C7C7"/>
<path d="M206.853 158.623H198.15L193.676 164.208H203.528L206.853 158.623Z" fill="#C7C7C7"/>
<path opacity="0.4" d="M206.853 158.623H198.15L193.676 164.208H203.528L206.853 158.623Z" fill="black"/>
<path d="M200.26 163.229V170.001H195.414V163.229L197.84 160.202L200.26 163.229Z" fill="#C7C7C7"/>
<path opacity="0.2" d="M200.26 163.229V170.001H195.414V163.229L197.84 160.202L200.26 163.229Z" fill="black"/>
<path d="M200.262 163.229H204.071L200.262 170.002V163.229Z" fill="#C7C7C7"/>
<path d="M199.086 163.336H196.336V167.98H199.086V163.336Z" fill="#FBFAFF"/>
<path d="M197.564 163.655H196.676V165.15H197.564V163.655Z" fill="#C7C7C7"/>
<path d="M198.752 163.655H197.863V165.15H198.752V163.655Z" fill="#C7C7C7"/>
<path d="M197.564 165.426H196.676V167.645H197.564V165.426Z" fill="#C7C7C7"/>
<path d="M198.752 165.426H197.863V167.645H198.752V165.426Z" fill="#C7C7C7"/>
<path d="M257.312 93.9433C259.681 95.958 261.444 98.5915 262.403 101.55C263.363 104.508 263.481 107.675 262.745 110.697C262.009 113.719 260.447 116.476 258.235 118.662C256.022 120.848 253.246 122.376 250.215 123.075L246.491 130.698L242.879 123.128C240.178 122.549 237.664 121.306 235.564 119.511C233.886 118.082 232.505 116.337 231.5 114.375C230.496 112.413 229.888 110.272 229.711 108.075C229.353 103.638 230.773 99.2409 233.657 95.8504C236.542 92.46 240.655 90.3544 245.092 89.9967C249.529 89.639 253.927 91.0587 257.317 93.9433H257.312Z" fill="white"/>
<path d="M257.313 93.9435C259.681 95.9588 261.447 98.5897 262.414 101.546C262.657 102.281 262.852 103.031 263 103.791C263.127 104.554 263.207 105.326 263.239 106.099C263.311 107.651 263.166 109.205 262.808 110.717C262.456 112.232 261.896 113.691 261.143 115.053C260.762 115.731 260.334 116.382 259.861 117C259.404 117.63 258.899 118.224 258.35 118.777C256.132 121.011 253.333 122.581 250.269 123.309L250.434 123.181L246.753 130.826L246.487 131.385L246.221 130.826L242.582 123.272L242.805 123.447C239.635 122.76 236.728 121.179 234.428 118.892C232.129 116.605 230.532 113.707 229.827 110.54C229.123 107.374 229.34 104.072 230.453 101.025C231.566 97.9785 233.528 95.3143 236.108 93.3477C238.154 91.814 240.517 90.7563 243.024 90.2515C245.529 89.7442 248.118 89.813 250.593 90.4526C253.068 91.0921 255.366 92.2858 257.313 93.9435ZM257.313 93.9435C255.379 92.2931 253.093 91.1087 250.63 90.4814C248.166 89.8542 245.592 89.8009 243.105 90.3256C240.618 90.8504 238.284 91.9392 236.284 93.5082C234.285 95.0771 232.672 97.0843 231.57 99.3751C230.471 101.64 229.904 104.125 229.91 106.642C229.941 109.147 230.515 111.615 231.591 113.877C232.683 116.128 234.271 118.101 236.235 119.649C238.204 121.189 240.492 122.269 242.933 122.809L243.093 122.846L243.157 122.99L246.747 130.571H246.215L249.998 122.974L250.046 122.868H250.157C253.165 122.209 255.929 120.724 258.137 118.58C258.686 118.045 259.193 117.468 259.653 116.856C260.129 116.255 260.562 115.62 260.946 114.957C261.717 113.626 262.298 112.193 262.67 110.701C263.055 109.208 263.22 107.667 263.159 106.126C263.132 105.356 263.059 104.589 262.941 103.828C262.797 103.07 262.607 102.322 262.372 101.588C261.424 98.6215 259.673 95.9755 257.313 93.9435Z" fill="#263238"/>
<path d="M251 102.466C250.814 102.276 250.607 102.108 250.383 101.966C250.086 101.774 249.775 101.605 249.452 101.46C248.67 101.106 247.833 100.89 246.978 100.822V105.61L247.419 105.7C248.181 105.882 248.933 106.106 249.67 106.371C250.277 106.584 250.849 106.887 251.367 107.27C251.817 107.616 252.181 108.062 252.431 108.573C252.697 109.164 252.827 109.808 252.808 110.456C252.83 111.176 252.68 111.891 252.372 112.542C252.088 113.113 251.672 113.609 251.159 113.989C250.616 114.385 250.005 114.677 249.356 114.85C248.638 115.048 247.898 115.154 247.153 115.164V117.59H245.956V115.116C244.867 115.051 243.792 114.83 242.765 114.462C241.775 114.106 240.848 113.594 240.02 112.946L241.195 110.733C241.418 110.961 241.666 111.163 241.935 111.334C242.295 111.569 242.672 111.777 243.062 111.956C243.522 112.169 243.997 112.346 244.483 112.488C245.004 112.643 245.538 112.751 246.079 112.813V108.025C245.988 107.999 245.887 107.967 245.792 107.945C245.694 107.925 245.598 107.898 245.504 107.866C244.783 107.679 244.072 107.452 243.376 107.185C242.829 106.98 242.318 106.688 241.866 106.317C241.476 105.996 241.165 105.591 240.956 105.131C240.732 104.609 240.624 104.044 240.642 103.477C240.627 102.788 240.762 102.103 241.036 101.471C241.291 100.894 241.669 100.378 242.142 99.9602C242.632 99.5266 243.198 99.1891 243.813 98.9654C244.497 98.7161 245.214 98.5656 245.941 98.5185V96.1831H247.138V98.5185C248.088 98.5669 249.024 98.7699 249.909 99.1197C250.704 99.4296 251.457 99.8389 252.149 100.338L251 102.466ZM243.382 103.062C243.363 103.342 243.415 103.623 243.534 103.878C243.654 104.133 243.835 104.354 244.063 104.519C244.697 104.918 245.395 105.206 246.127 105.37V100.822C245.379 100.804 244.647 101.036 244.047 101.482C243.825 101.679 243.651 101.923 243.536 102.197C243.421 102.47 243.368 102.765 243.382 103.062ZM250.069 110.728C250.083 110.423 250.015 110.121 249.873 109.851C249.731 109.582 249.519 109.356 249.26 109.195C248.554 108.776 247.791 108.46 246.994 108.259V112.829C247.788 112.868 248.576 112.683 249.271 112.297C249.53 112.128 249.74 111.895 249.88 111.619C250.02 111.344 250.085 111.036 250.069 110.728Z" fill="#073C6A"/>
<path d="M95.5135 266.436H92.326C92.2351 265.913 92.0675 265.45 91.8232 265.046C91.5788 264.637 91.2749 264.291 90.9112 264.007C90.5476 263.723 90.1328 263.509 89.6669 263.367C89.2067 263.22 88.7095 263.146 88.1754 263.146C87.2266 263.146 86.3857 263.384 85.6527 263.862C84.9197 264.333 84.3459 265.027 83.9311 265.941C83.5163 266.85 83.3089 267.961 83.3089 269.274C83.3089 270.609 83.5163 271.734 83.9311 272.649C84.3516 273.558 84.9254 274.245 85.6527 274.711C86.3857 275.171 87.2237 275.402 88.1669 275.402C88.6896 275.402 89.1783 275.333 89.6328 275.197C90.093 275.055 90.505 274.848 90.8686 274.575C91.2379 274.302 91.5476 273.967 91.7976 273.569C92.0533 273.171 92.2294 272.717 92.326 272.206L95.5135 272.223C95.3942 273.052 95.1357 273.831 94.7379 274.558C94.3459 275.285 93.8317 275.927 93.1953 276.484C92.5589 277.035 91.8146 277.467 90.9624 277.779C90.1101 278.086 89.1641 278.24 88.1243 278.24C86.5902 278.24 85.2209 277.884 84.0163 277.174C82.8118 276.464 81.8629 275.438 81.1697 274.098C80.4766 272.757 80.13 271.149 80.13 269.274C80.13 267.393 80.4794 265.785 81.1783 264.45C81.8771 263.109 82.8288 262.083 84.0334 261.373C85.2379 260.663 86.6016 260.308 88.1243 260.308C89.0959 260.308 89.9993 260.444 90.8345 260.717C91.6697 260.99 92.4141 261.39 93.0675 261.919C93.7209 262.441 94.2578 263.083 94.6783 263.845C95.1044 264.6 95.3828 265.464 95.5135 266.436ZM102.04 278.265C101.21 278.265 100.463 278.117 99.7983 277.822C99.1392 277.521 98.6165 277.078 98.2301 276.492C97.8494 275.907 97.6591 275.186 97.6591 274.328C97.6591 273.589 97.7955 272.978 98.0682 272.495C98.3409 272.012 98.7131 271.626 99.1847 271.336C99.6563 271.046 100.188 270.828 100.778 270.68C101.375 270.527 101.991 270.416 102.628 270.348C103.395 270.268 104.017 270.197 104.494 270.134C104.972 270.066 105.318 269.964 105.534 269.828C105.756 269.686 105.866 269.467 105.866 269.171V269.12C105.866 268.478 105.676 267.981 105.295 267.629C104.915 267.277 104.366 267.1 103.651 267.1C102.895 267.1 102.295 267.265 101.852 267.595C101.415 267.924 101.119 268.313 100.966 268.762L98.0852 268.353C98.3125 267.558 98.6875 266.893 99.2102 266.359C99.733 265.819 100.372 265.416 101.128 265.149C101.884 264.876 102.719 264.74 103.634 264.74C104.264 264.74 104.892 264.813 105.517 264.961C106.142 265.109 106.713 265.353 107.23 265.694C107.747 266.029 108.162 266.487 108.474 267.066C108.793 267.646 108.952 268.37 108.952 269.24V278.001H105.986V276.203H105.884C105.696 276.566 105.432 276.907 105.091 277.225C104.756 277.538 104.332 277.791 103.821 277.984C103.315 278.171 102.722 278.265 102.04 278.265ZM102.841 275.998C103.46 275.998 103.997 275.876 104.452 275.632C104.906 275.382 105.256 275.052 105.5 274.643C105.75 274.234 105.875 273.788 105.875 273.305V271.762C105.778 271.842 105.614 271.916 105.381 271.984C105.153 272.052 104.898 272.112 104.614 272.163C104.33 272.214 104.048 272.259 103.77 272.299C103.491 272.339 103.25 272.373 103.045 272.402C102.585 272.464 102.173 272.566 101.81 272.708C101.446 272.85 101.159 273.049 100.949 273.305C100.739 273.555 100.634 273.879 100.634 274.277C100.634 274.845 100.841 275.274 101.256 275.563C101.67 275.853 102.199 275.998 102.841 275.998ZM112.054 282.91V264.91H115.088V267.075H115.267C115.426 266.757 115.651 266.419 115.94 266.061C116.23 265.697 116.622 265.387 117.116 265.132C117.611 264.87 118.241 264.74 119.009 264.74C120.02 264.74 120.932 264.998 121.744 265.515C122.563 266.027 123.21 266.785 123.688 267.791C124.17 268.791 124.412 270.018 124.412 271.473C124.412 272.91 124.176 274.132 123.705 275.137C123.233 276.143 122.591 276.91 121.778 277.438C120.966 277.967 120.045 278.231 119.017 278.231C118.267 278.231 117.645 278.106 117.151 277.856C116.656 277.606 116.259 277.305 115.957 276.953C115.662 276.595 115.432 276.257 115.267 275.938H115.139V282.91H112.054ZM115.08 271.456C115.08 272.302 115.199 273.044 115.438 273.68C115.682 274.316 116.031 274.813 116.486 275.171C116.946 275.524 117.503 275.7 118.156 275.7C118.838 275.7 119.409 275.518 119.869 275.154C120.33 274.785 120.676 274.282 120.909 273.646C121.148 273.004 121.267 272.274 121.267 271.456C121.267 270.643 121.151 269.921 120.918 269.291C120.685 268.66 120.338 268.166 119.878 267.808C119.418 267.45 118.844 267.271 118.156 267.271C117.497 267.271 116.938 267.444 116.477 267.791C116.017 268.137 115.668 268.623 115.429 269.248C115.196 269.873 115.08 270.609 115.08 271.456ZM127.054 278.001V264.91H130.139V278.001H127.054ZM128.605 263.052C128.116 263.052 127.696 262.89 127.344 262.566C126.991 262.237 126.815 261.842 126.815 261.382C126.815 260.916 126.991 260.521 127.344 260.197C127.696 259.867 128.116 259.703 128.605 259.703C129.099 259.703 129.52 259.867 129.866 260.197C130.219 260.521 130.395 260.916 130.395 261.382C130.395 261.842 130.219 262.237 129.866 262.566C129.52 262.89 129.099 263.052 128.605 263.052ZM139.849 264.91V267.296H132.323V264.91H139.849ZM134.181 261.774H137.266V274.063C137.266 274.478 137.329 274.796 137.454 275.018C137.585 275.234 137.755 275.382 137.965 275.461C138.175 275.541 138.408 275.581 138.664 275.581C138.857 275.581 139.033 275.566 139.192 275.538C139.357 275.509 139.482 275.484 139.567 275.461L140.087 277.873C139.923 277.93 139.687 277.992 139.38 278.061C139.079 278.129 138.71 278.169 138.272 278.18C137.499 278.203 136.803 278.086 136.184 277.831C135.565 277.569 135.073 277.166 134.71 276.62C134.352 276.075 134.175 275.393 134.181 274.575V261.774ZM146.196 278.265C145.366 278.265 144.619 278.117 143.955 277.822C143.295 277.521 142.773 277.078 142.386 276.492C142.006 275.907 141.815 275.186 141.815 274.328C141.815 273.589 141.952 272.978 142.224 272.495C142.497 272.012 142.869 271.626 143.341 271.336C143.813 271.046 144.344 270.828 144.935 270.68C145.531 270.527 146.148 270.416 146.784 270.348C147.551 270.268 148.173 270.197 148.651 270.134C149.128 270.066 149.474 269.964 149.69 269.828C149.912 269.686 150.023 269.467 150.023 269.171V269.12C150.023 268.478 149.832 267.981 149.452 267.629C149.071 267.277 148.523 267.1 147.807 267.1C147.051 267.1 146.452 267.265 146.009 267.595C145.571 267.924 145.276 268.313 145.122 268.762L142.241 268.353C142.469 267.558 142.844 266.893 143.366 266.359C143.889 265.819 144.528 265.416 145.284 265.149C146.04 264.876 146.875 264.74 147.79 264.74C148.42 264.74 149.048 264.813 149.673 264.961C150.298 265.109 150.869 265.353 151.386 265.694C151.903 266.029 152.318 266.487 152.631 267.066C152.949 267.646 153.108 268.37 153.108 269.24V278.001H150.142V276.203H150.04C149.852 276.566 149.588 276.907 149.247 277.225C148.912 277.538 148.489 277.791 147.977 277.984C147.472 278.171 146.878 278.265 146.196 278.265ZM146.997 275.998C147.616 275.998 148.153 275.876 148.608 275.632C149.063 275.382 149.412 275.052 149.656 274.643C149.906 274.234 150.031 273.788 150.031 273.305V271.762C149.935 271.842 149.77 271.916 149.537 271.984C149.31 272.052 149.054 272.112 148.77 272.163C148.486 272.214 148.205 272.259 147.926 272.299C147.648 272.339 147.406 272.373 147.202 272.402C146.741 272.464 146.33 272.566 145.966 272.708C145.602 272.85 145.315 273.049 145.105 273.305C144.895 273.555 144.79 273.879 144.79 274.277C144.79 274.845 144.997 275.274 145.412 275.563C145.827 275.853 146.355 275.998 146.997 275.998ZM159.295 260.546V278.001H156.21V260.546H159.295ZM178.043 265.345C177.964 264.6 177.629 264.021 177.038 263.606C176.452 263.191 175.691 262.984 174.754 262.984C174.094 262.984 173.529 263.083 173.058 263.282C172.586 263.481 172.225 263.751 171.975 264.092C171.725 264.433 171.597 264.822 171.592 265.259C171.592 265.623 171.674 265.938 171.839 266.206C172.009 266.473 172.239 266.7 172.529 266.887C172.819 267.069 173.14 267.223 173.492 267.348C173.844 267.473 174.2 267.578 174.558 267.663L176.194 268.072C176.853 268.225 177.487 268.433 178.094 268.694C178.708 268.956 179.256 269.285 179.739 269.683C180.228 270.081 180.614 270.561 180.898 271.123C181.183 271.686 181.325 272.345 181.325 273.1C181.325 274.123 181.063 275.024 180.54 275.802C180.018 276.575 179.262 277.18 178.273 277.617C177.29 278.049 176.1 278.265 174.702 278.265C173.344 278.265 172.165 278.055 171.165 277.634C170.171 277.214 169.393 276.6 168.83 275.794C168.273 274.987 167.972 274.004 167.927 272.845H171.038C171.083 273.453 171.271 273.958 171.6 274.362C171.93 274.765 172.359 275.066 172.887 275.265C173.421 275.464 174.018 275.563 174.677 275.563C175.364 275.563 175.967 275.461 176.484 275.257C177.006 275.046 177.415 274.757 177.711 274.387C178.006 274.012 178.157 273.575 178.163 273.075C178.157 272.62 178.023 272.245 177.762 271.95C177.501 271.649 177.134 271.399 176.663 271.2C176.197 270.995 175.651 270.813 175.026 270.654L173.04 270.143C171.603 269.774 170.467 269.214 169.631 268.464C168.802 267.708 168.387 266.706 168.387 265.456C168.387 264.427 168.665 263.527 169.222 262.754C169.785 261.981 170.549 261.382 171.515 260.956C172.481 260.524 173.575 260.308 174.796 260.308C176.035 260.308 177.12 260.524 178.052 260.956C178.989 261.382 179.725 261.975 180.259 262.737C180.793 263.492 181.069 264.362 181.086 265.345H178.043ZM189.803 278.257C188.49 278.257 187.357 277.984 186.402 277.438C185.453 276.887 184.723 276.109 184.212 275.103C183.7 274.092 183.445 272.902 183.445 271.532C183.445 270.186 183.7 269.004 184.212 267.987C184.729 266.964 185.45 266.169 186.376 265.6C187.303 265.027 188.391 264.74 189.641 264.74C190.447 264.74 191.209 264.87 191.925 265.132C192.646 265.387 193.283 265.785 193.834 266.325C194.391 266.865 194.828 267.552 195.146 268.387C195.464 269.217 195.624 270.206 195.624 271.353V272.299H184.893V270.22H192.666C192.661 269.629 192.533 269.103 192.283 268.643C192.033 268.177 191.683 267.811 191.234 267.544C190.791 267.277 190.274 267.143 189.683 267.143C189.053 267.143 188.499 267.296 188.021 267.603C187.544 267.904 187.172 268.302 186.905 268.796C186.643 269.285 186.51 269.822 186.504 270.407V272.223C186.504 272.984 186.643 273.637 186.922 274.183C187.2 274.723 187.589 275.137 188.089 275.427C188.589 275.711 189.175 275.853 189.845 275.853C190.294 275.853 190.7 275.791 191.064 275.666C191.428 275.535 191.743 275.345 192.01 275.095C192.277 274.845 192.479 274.535 192.615 274.166L195.496 274.49C195.314 275.251 194.967 275.916 194.456 276.484C193.95 277.046 193.303 277.484 192.513 277.796C191.723 278.103 190.82 278.257 189.803 278.257ZM203.944 278.257C202.637 278.257 201.515 277.97 200.577 277.396C199.646 276.822 198.927 276.029 198.421 275.018C197.921 274.001 197.671 272.831 197.671 271.507C197.671 270.177 197.927 269.004 198.438 267.987C198.95 266.964 199.671 266.169 200.603 265.6C201.54 265.027 202.648 264.74 203.927 264.74C204.989 264.74 205.93 264.936 206.748 265.328C207.572 265.714 208.228 266.262 208.717 266.973C209.205 267.677 209.484 268.501 209.552 269.444H206.603C206.484 268.813 206.2 268.288 205.751 267.867C205.308 267.441 204.714 267.228 203.969 267.228C203.339 267.228 202.785 267.399 202.308 267.74C201.83 268.075 201.458 268.558 201.191 269.188C200.93 269.819 200.799 270.575 200.799 271.456C200.799 272.348 200.93 273.115 201.191 273.757C201.452 274.393 201.819 274.884 202.29 275.231C202.768 275.572 203.327 275.742 203.969 275.742C204.424 275.742 204.83 275.657 205.188 275.487C205.552 275.311 205.856 275.058 206.1 274.728C206.344 274.399 206.512 273.998 206.603 273.527H209.552C209.478 274.453 209.205 275.274 208.734 275.99C208.262 276.7 207.62 277.257 206.808 277.66C205.995 278.058 205.04 278.257 203.944 278.257ZM220.429 272.495V264.91H223.514V278.001H220.523V275.674H220.386C220.091 276.407 219.605 277.007 218.929 277.473C218.259 277.938 217.432 278.171 216.449 278.171C215.591 278.171 214.832 277.981 214.173 277.6C213.52 277.214 213.009 276.654 212.639 275.921C212.27 275.183 212.085 274.291 212.085 273.245V264.91H215.17V272.768C215.17 273.598 215.398 274.257 215.852 274.745C216.307 275.234 216.903 275.478 217.642 275.478C218.097 275.478 218.537 275.367 218.963 275.146C219.389 274.924 219.739 274.595 220.011 274.157C220.29 273.714 220.429 273.16 220.429 272.495ZM226.687 278.001V264.91H229.678V267.092H229.815C230.053 266.336 230.462 265.754 231.042 265.345C231.627 264.93 232.295 264.723 233.045 264.723C233.215 264.723 233.406 264.731 233.616 264.748C233.832 264.759 234.011 264.779 234.153 264.808V267.646C234.022 267.6 233.815 267.561 233.531 267.527C233.252 267.487 232.982 267.467 232.721 267.467C232.158 267.467 231.653 267.589 231.204 267.833C230.761 268.072 230.411 268.404 230.156 268.831C229.9 269.257 229.772 269.748 229.772 270.305V278.001H226.687ZM236.202 278.001V264.91H239.288V278.001H236.202ZM237.754 263.052C237.265 263.052 236.844 262.89 236.492 262.566C236.14 262.237 235.964 261.842 235.964 261.382C235.964 260.916 236.14 260.521 236.492 260.197C236.844 259.867 237.265 259.703 237.754 259.703C238.248 259.703 238.668 259.867 239.015 260.197C239.367 260.521 239.543 260.916 239.543 261.382C239.543 261.842 239.367 262.237 239.015 262.566C238.668 262.89 238.248 263.052 237.754 263.052ZM248.997 264.91V267.296H241.472V264.91H248.997ZM243.33 261.774H246.415V274.063C246.415 274.478 246.477 274.796 246.602 275.018C246.733 275.234 246.903 275.382 247.114 275.461C247.324 275.541 247.557 275.581 247.812 275.581C248.006 275.581 248.182 275.566 248.341 275.538C248.506 275.509 248.631 275.484 248.716 275.461L249.236 277.873C249.071 277.93 248.835 277.992 248.528 278.061C248.227 278.129 247.858 278.169 247.42 278.18C246.648 278.203 245.952 278.086 245.332 277.831C244.713 277.569 244.222 277.166 243.858 276.62C243.5 276.075 243.324 275.393 243.33 274.575V261.774ZM253.495 282.91C253.075 282.91 252.685 282.876 252.327 282.808C251.975 282.745 251.694 282.671 251.484 282.586L252.2 280.183C252.648 280.313 253.049 280.376 253.401 280.37C253.754 280.365 254.063 280.254 254.33 280.038C254.603 279.828 254.833 279.475 255.021 278.981L255.285 278.274L250.538 264.91H253.81L256.827 274.796H256.964L259.989 264.91H263.271L258.029 279.586C257.785 280.279 257.461 280.873 257.058 281.367C256.654 281.867 256.16 282.248 255.575 282.509C254.995 282.777 254.302 282.91 253.495 282.91Z" fill="#101828"/>
</svg>
