<svg width="1427" height="143" viewBox="0 0 1427 143" fill="none" xmlns="http://www.w3.org/2000/svg">
<g opacity="0.5">
<path d="M352.663 50.4409C358.295 52.7661 363.603 55.8068 368.456 59.4879C365.865 63.5215 362.789 67.2223 359.296 70.5073C357.567 72.0716 355.533 73.2624 353.321 74.0051C352.233 74.4317 351.048 74.552 349.895 74.3527C348.743 74.1535 347.668 73.6425 346.786 72.8752C345.904 72.1079 345.249 71.1137 344.893 70.0007C344.537 68.8877 344.494 67.6985 344.767 66.5624C345.179 64.3224 345.952 62.164 347.057 60.1716C348.768 56.8053 351.031 53.8072 352.663 50.4409Z" fill="white"/>
<path d="M371.195 56.1215C365.795 53.2729 360.787 49.7369 356.297 45.6017C359.295 41.8468 362.743 38.4729 366.562 35.5554C368.447 34.1749 370.598 33.1989 372.879 32.6888C374.005 32.3734 375.197 32.3739 376.323 32.6903C377.449 33.0067 378.466 33.6267 379.262 34.4824C380.059 35.3381 380.604 36.3964 380.839 37.5413C381.073 38.6862 380.988 39.8735 380.591 40.973C379.97 43.1574 378.982 45.2205 377.67 47.0745C375.722 50.1778 373.169 52.9392 371.195 56.1215Z" fill="white"/>
<path d="M253.227 124.394C257.993 120.549 263.229 117.323 268.809 114.795C271.098 119.01 272.866 123.487 274.073 128.129C274.633 130.394 274.696 132.753 274.257 135.045C274.048 136.203 273.554 137.29 272.818 138.208C272.083 139.127 271.13 139.847 270.046 140.305C268.949 140.612 267.796 140.655 266.68 140.432C265.563 140.208 264.516 139.723 263.623 139.017C261.847 137.573 260.318 135.85 259.096 133.914C256.938 130.864 255.385 127.445 253.227 124.394Z" fill="#073C6A"/>
<path d="M267.12 110.903C261.988 114.226 256.451 116.877 250.643 118.793C248.791 114.365 247.483 109.729 246.748 104.986C246.446 102.669 246.625 100.314 247.274 98.069C247.545 96.9358 248.122 95.8983 248.94 95.0686C249.759 94.2389 250.789 93.6486 251.919 93.3615C253.049 93.0745 254.236 93.1016 255.352 93.44C256.468 93.7784 257.47 94.4151 258.25 95.2813C259.86 96.8894 261.202 98.7451 262.225 100.778C264.067 104.065 265.252 107.642 267.12 110.903Z" fill="white"/>
<path d="M434.022 121.526C437.055 126.851 439.39 132.543 440.971 138.463C436.436 140.042 431.725 141.058 426.942 141.487C424.611 141.663 422.269 141.34 420.072 140.541C418.978 140.135 418 139.467 417.225 138.596C416.449 137.725 415.9 136.677 415.624 135.544C415.501 134.41 415.65 133.263 416.057 132.198C416.464 131.133 417.118 130.179 417.966 129.416C419.668 127.921 421.595 126.705 423.678 125.813C427.021 124.156 430.653 123.183 434.022 121.526Z" fill="white"/>
<path d="M445.104 137.439C442.608 131.84 440.839 125.945 439.84 119.897C444.523 118.799 449.322 118.269 454.132 118.319C456.467 118.392 458.761 118.947 460.87 119.95C461.941 120.407 462.867 121.146 463.549 122.088C464.232 123.03 464.645 124.14 464.745 125.299C464.845 126.458 464.628 127.622 464.117 128.667C463.606 129.712 462.821 130.599 461.844 131.232C459.998 132.562 457.944 133.575 455.764 134.23C452.342 135.493 448.605 136.124 445.104 137.439Z" fill="white"/>
<path d="M137.461 40.2626C143.02 37.6832 148.884 35.8185 154.912 34.7134C156.117 39.362 156.754 44.1395 156.807 48.9413C156.777 51.2733 156.266 53.574 155.307 55.7002C154.821 56.7465 154.088 57.6593 153.171 58.3602C152.254 59.061 151.18 59.529 150.042 59.724C148.907 59.7518 147.782 59.5114 146.757 59.0224C145.733 58.5334 144.838 57.8096 144.146 56.91C142.776 55.0949 141.71 53.0699 140.988 50.9137C139.514 47.4422 138.83 43.7341 137.461 40.2626Z" fill="#073C6A"/>
<path d="M154.231 30.5047C148.454 32.5292 142.437 33.7848 136.332 34.2393C135.592 29.4983 135.442 24.684 135.885 19.9061C136.151 17.5874 136.895 15.3488 138.069 13.3313C138.668 12.3218 139.508 11.4764 140.514 10.8706C141.52 10.2648 142.661 9.91751 143.834 9.85986C144.968 9.94753 146.066 10.3031 147.036 10.8975C148.006 11.4919 148.821 12.3081 149.414 13.2787C150.581 15.2255 151.426 17.3481 151.914 19.5643C152.915 23.1673 153.204 26.928 154.231 30.5047Z" fill="white"/>
<path d="M399.278 75.45L390.592 63.7994C390.251 63.4557 389.988 63.0433 389.82 62.5897C389.652 62.1361 389.583 61.6518 389.618 61.1694C389.823 60.5891 390.188 60.0785 390.671 59.6967C396.251 54.2615 402.103 49.0981 408.227 44.2065C409.035 43.3524 410.024 42.6895 411.122 42.2664C412.219 41.8432 413.398 41.6704 414.571 41.7606C415.726 42.1142 416.781 42.7361 417.65 43.5752C425.301 49.8344 432.881 56.1814 440.392 62.616C441.02 63.0236 441.554 63.5606 441.958 64.191C442.362 64.8214 442.626 65.5307 442.734 66.2715C442.599 67.4323 442.08 68.515 441.26 69.3486L434.864 77.3698C432.864 76.6597 429.389 76.6597 427.363 75.9496C425.336 75.2395 423.467 74.1613 423.757 72.2941C423.941 71.1369 425.046 70.3742 425.546 69.2959C425.786 68.6642 425.865 67.9833 425.778 67.3134C425.691 66.6436 425.44 66.0057 425.046 65.4562C424.235 64.3873 423.257 63.455 422.151 62.6948C420.249 60.8049 417.674 59.7457 414.992 59.7493C412.831 60.3254 410.918 61.5905 409.543 63.3523C409.098 63.7329 408.792 64.2512 408.675 64.8251C408.705 65.3369 408.898 65.8255 409.227 66.2189L412.254 70.9265C412.503 71.218 412.626 71.5964 412.596 71.9785C412.596 72.4782 411.965 72.7149 411.491 72.899C407.51 74.1339 403.421 74.9881 399.278 75.45Z" fill="#073C6A"/>
<path d="M233.01 86.1554L219.85 80.1066C218.981 79.7121 218.007 79.2124 217.77 78.2656C217.662 77.664 217.725 77.044 217.955 76.4772C220.271 69.0433 222.903 61.7146 225.851 54.4911C226.746 52.3345 227.983 49.915 230.247 49.2312C231.424 48.9574 232.649 48.9574 233.826 49.2312C243.548 51.0722 253.199 53.0183 262.78 55.0697C263.527 55.1245 264.254 55.3383 264.913 55.6966C265.571 56.0549 266.145 56.5494 266.596 57.1473C267.023 58.2296 267.078 59.4227 266.754 60.5399C266.175 63.9062 265.57 67.2725 264.991 70.6388C262.885 70.9807 259.858 72.6638 257.752 73.0057C255.647 73.3476 253.462 73.2687 252.804 71.533C252.409 70.4021 253.015 69.1924 252.936 68.0352C252.851 67.3657 252.6 66.7283 252.204 66.1814C251.809 65.6345 251.282 65.1958 250.672 64.9056C249.441 64.3415 248.124 63.986 246.776 63.8536C245.642 63.3471 244.401 63.1249 243.161 63.2063C241.922 63.2877 240.721 63.6702 239.662 64.3207C238.604 64.9711 237.721 65.8699 237.089 66.9389C236.457 68.0078 236.096 69.2147 236.037 70.4547C235.847 71.0086 235.847 71.6103 236.037 72.1642C236.312 72.6014 236.717 72.9417 237.196 73.1373L242.118 75.7672C242.47 75.9195 242.758 76.1889 242.934 76.5298C242.957 76.775 242.921 77.0222 242.829 77.2509C242.738 77.4795 242.593 77.6831 242.407 77.8448C239.538 80.8987 236.393 83.6808 233.01 86.1554Z" fill="white"/>
<path d="M140.938 111.612C141.701 106.826 142.438 102.013 143.175 97.2266C143.184 96.7475 143.297 96.2759 143.506 95.8446C143.715 95.4132 144.015 95.0324 144.386 94.7282C144.932 94.4612 145.546 94.3606 146.149 94.4389C153.975 94.6318 161.766 95.2016 169.522 96.1484C170.698 96.1277 171.863 96.3695 172.934 96.8564C174.004 97.3432 174.952 98.0627 175.708 98.9623C176.26 100.038 176.557 101.225 176.576 102.434C177.454 112.27 178.217 122.114 178.866 131.968C179.082 132.603 179.134 133.283 179.018 133.944C178.902 134.605 178.621 135.226 178.202 135.75C177.782 136.274 177.238 136.684 176.618 136.942C175.998 137.201 175.323 137.299 174.655 137.228L164.442 138.28C163.547 136.36 161.126 133.861 160.205 131.942C159.283 130.022 158.783 127.892 160.205 126.682C161.152 125.998 162.495 126.261 163.6 125.866C164.221 125.599 164.763 125.179 165.178 124.646C165.592 124.112 165.864 123.483 165.969 122.816C166.193 121.493 166.193 120.141 165.969 118.818C165.99 116.145 164.948 113.572 163.074 111.665C161.152 110.513 158.905 110.024 156.678 110.271C156.093 110.223 155.51 110.371 155.019 110.692C154.68 111.076 154.46 111.552 154.388 112.059C153.993 113.874 153.572 115.689 153.151 117.503C153.122 117.889 152.942 118.248 152.65 118.503C152.421 118.598 152.171 118.636 151.923 118.613C151.676 118.59 151.437 118.507 151.229 118.371C147.601 116.434 144.156 114.172 140.938 111.612Z" fill="white"/>
<path d="M391.777 98.6727C392.308 101.635 393.446 104.455 395.12 106.957C395.989 108.181 397.209 109.112 398.619 109.629C400.028 110.145 401.562 110.222 403.016 109.85C406.833 108.482 408.57 103.091 412.65 102.749C416.151 102.46 418.546 106.142 421.652 107.799C423.316 108.612 425.199 108.862 427.018 108.511C428.837 108.16 430.492 107.227 431.733 105.852C432.865 104.537 433.549 102.907 434.549 101.487C436.429 99.0709 439.155 97.4563 442.178 96.9683C445.201 96.4803 448.297 97.1552 450.842 98.8568C451.752 99.6274 452.71 100.339 453.711 100.987C457.238 102.907 461.871 100.987 464.24 97.6733C466.34 94.23 467.586 90.3344 467.872 86.312L391.777 98.6727Z" fill="#FFD77D"/>
<path d="M-27.4126 89.5205C-29.1203 91.9893 -30.3029 94.7821 -30.887 97.7259C-31.1494 99.2087 -30.9522 100.736 -30.3219 102.104C-29.6916 103.472 -28.6581 104.614 -27.3599 105.379C-23.6749 107.115 -18.6213 104.537 -15.5154 107.167C-12.8832 109.429 -13.7519 113.716 -12.6991 117.082C-12.1008 118.835 -10.9473 120.345 -9.41333 121.384C-7.87933 122.424 -6.04828 122.935 -4.19729 122.842C-2.46009 122.71 -0.828199 122.026 0.882677 121.737C3.91832 121.338 6.99225 122.108 9.48043 123.891C11.9686 125.674 13.6846 128.336 14.2801 131.336C14.396 132.521 14.5806 133.697 14.8329 134.861C15.6147 136.711 17.0167 138.233 18.7985 139.164C20.5802 140.095 22.6307 140.377 24.5981 139.963C28.492 138.999 32.1008 137.124 35.1265 134.492L-27.4126 89.5205Z" fill="#FFD77D"/>
<path d="M72.2109 69.5596C72.2349 72.5693 72.8801 75.5417 74.1061 78.2909C74.7488 79.65 75.7911 80.7809 77.0938 81.5327C78.3965 82.2845 79.8976 82.6216 81.397 82.4988C85.4241 81.7888 88.0563 76.7656 92.1097 77.1075C95.6105 77.423 97.3739 81.4731 100.138 83.6034C101.638 84.6912 103.453 85.2594 105.306 85.2214C107.159 85.1834 108.949 84.5414 110.403 83.393C111.745 82.2884 112.693 80.7631 113.93 79.5796C116.168 77.4886 119.118 76.3253 122.182 76.3253C125.246 76.3253 128.195 77.4886 130.433 79.5796C131.186 80.5132 132.004 81.392 132.881 82.2095C134.597 83.2617 136.623 83.6898 138.619 83.4215C140.614 83.1532 142.455 82.2048 143.831 80.7368C146.463 77.7083 148.347 74.1052 149.332 70.2171L72.2109 69.5596Z" fill="#FFD77D"/>
<path d="M215.796 10.7021C215.036 13.6128 214.902 16.6513 215.401 19.6176C215.667 21.0983 216.383 22.461 217.453 23.52C218.522 24.579 219.892 25.2826 221.376 25.535C225.43 25.8769 229.273 21.6953 233.089 23.0892C236.406 24.2726 237.037 28.612 239.196 31.3998C240.367 32.8342 241.976 33.8469 243.777 34.2836C245.578 34.7204 247.472 34.5573 249.171 33.8192C250.751 33.0829 252.067 31.8994 253.567 31.0315C256.273 29.5932 259.425 29.2385 262.383 30.0397C265.342 30.8409 267.883 32.7378 269.491 35.3446C269.994 36.415 270.565 37.4516 271.202 38.4479C272.586 39.9081 274.435 40.8428 276.432 41.0922C278.429 41.3417 280.451 40.8904 282.152 39.8155C285.496 37.5646 288.25 34.5428 290.18 31.0052L215.796 10.7021Z" fill="#FFD77D"/>
<path d="M342.532 128.102C347.243 133.152 354.403 132.074 360.404 130.548C366.405 129.023 370.274 123.079 371.485 117.399C372.12 114.59 372.025 111.665 371.209 108.903C370.394 106.142 368.885 103.634 366.826 101.619C364.72 99.6268 362.003 98.4035 359.114 98.1475C356.721 98.1657 354.358 98.68 352.174 99.6579C349.99 100.636 348.034 102.056 346.427 103.828C343.041 106.914 340.642 110.93 339.531 115.374C338.983 117.581 338.969 119.887 339.491 122.101C340.013 124.314 341.055 126.372 342.532 128.102ZM348.322 115.426C348.73 113.98 349.489 112.657 350.531 111.574C351.573 110.492 352.867 109.683 354.297 109.22C355.739 108.808 357.276 108.875 358.676 109.411C360.076 109.947 361.265 110.923 362.062 112.191C362.61 113.274 362.868 114.479 362.813 115.691C362.757 116.903 362.39 118.08 361.746 119.108C358.983 123.631 351.218 126.445 348.401 120.186C347.81 118.659 347.782 116.972 348.322 115.426Z" fill="white"/>
<path d="M120.094 142.514C126.911 141.488 130.096 135.018 132.254 129.206C134.412 123.394 131.701 116.846 127.648 112.585C125.701 110.494 123.256 108.929 120.54 108.037C117.825 107.144 114.927 106.954 112.118 107.483C109.25 108.09 106.672 109.647 104.801 111.901C103.44 113.87 102.504 116.1 102.051 118.45C101.598 120.8 101.638 123.218 102.169 125.551C102.807 130.08 104.745 134.328 107.749 137.78C109.28 139.495 111.199 140.82 113.346 141.644C115.494 142.467 117.807 142.765 120.094 142.514ZM112.908 130.548C111.958 129.385 111.307 128.008 111.014 126.536C110.72 125.064 110.792 123.543 111.223 122.106C111.702 120.682 112.631 119.453 113.87 118.604C115.11 117.754 116.592 117.331 118.093 117.398C119.296 117.565 120.435 118.04 121.399 118.778C122.363 119.515 123.119 120.489 123.594 121.606C125.753 126.445 123.594 134.493 116.882 133.204C115.292 132.8 113.889 131.862 112.908 130.548Z" fill="white"/>
<path d="M445.368 36.5011C452.211 35.5017 455.396 29.0058 457.528 23.1937C459.66 17.3815 457.002 10.8331 452.948 6.57261C450.998 4.4788 448.548 2.91272 445.828 2.02056C443.108 1.12839 440.206 0.939192 437.393 1.47054C434.539 2.094 431.974 3.64837 430.102 5.8888C428.741 7.85782 427.804 10.0877 427.351 12.4373C426.898 14.7869 426.939 17.2049 427.47 19.5381C428.081 24.0703 430.012 28.323 433.023 31.7673C434.554 33.4826 436.473 34.8074 438.621 35.6309C440.768 36.4544 443.082 36.7527 445.368 36.5011ZM438.209 24.535C437.25 23.3773 436.592 22.001 436.294 20.5283C435.995 19.0556 436.065 17.5321 436.498 16.0929C436.977 14.6721 437.907 13.4462 439.147 12.6013C440.387 11.7565 441.869 11.3388 443.368 11.4117C444.573 11.5692 445.717 12.0377 446.686 12.7709C447.655 13.5041 448.416 14.4768 448.895 15.5932C451.053 20.4323 448.895 28.4799 442.183 27.1912C440.587 26.7993 439.18 25.859 438.209 24.535Z" fill="white"/>
<path d="M7.2249 56.7259C6.43527 49.8881 0.012949 46.5218 -5.72507 44.1812C-11.4631 41.8405 -18.0961 44.3653 -22.4917 48.2838C-24.6402 50.1727 -26.2759 52.5736 -27.2468 55.2634C-28.2178 57.9532 -28.4925 60.8446 -28.0454 63.6689C-27.5187 66.5448 -26.0345 69.1584 -23.834 71.0854C-21.8959 72.4852 -19.6879 73.4674 -17.35 73.9699C-15.012 74.4725 -12.5951 74.4842 -10.2523 74.0045C-5.69367 73.5016 -1.38307 71.6727 2.14494 68.7447C3.8797 67.2831 5.2441 65.4325 6.12693 63.3438C7.00975 61.2551 7.38597 58.9875 7.2249 56.7259ZM-4.93546 63.5375C-6.12478 64.4575 -7.52258 65.0707 -9.00533 65.3229C-10.4881 65.5752 -12.0102 65.4588 -13.4372 64.9839C-14.8427 64.4596 -16.0406 63.4949 -16.8519 62.2339C-17.6632 60.973 -18.0443 59.4836 -17.9381 57.9883C-17.7162 56.8132 -17.1987 55.7139 -16.4343 54.7937C-15.67 53.8736 -14.6839 53.1628 -13.5688 52.7284C-8.67307 50.7034 -0.697788 53.0967 -2.17177 59.7504C-2.63748 61.2889 -3.61179 62.624 -4.93546 63.5375Z" fill="#073C6A"/>
<path d="M185.631 43.9452C192.422 42.788 195.475 36.2132 197.502 30.3748C199.529 24.5363 196.686 18.0404 192.527 13.8588C190.534 11.8046 188.052 10.2901 185.312 9.45741C182.573 8.62477 179.667 8.50134 176.866 9.09865C174.021 9.76459 171.486 11.3784 169.681 13.6747C168.38 15.6799 167.509 17.9328 167.124 20.2913C166.739 22.6497 166.848 25.0624 167.443 27.3767C168.156 31.8963 170.189 36.1049 173.287 39.4743C174.841 41.1458 176.771 42.4233 178.918 43.2008C181.065 43.9783 183.366 44.2335 185.631 43.9452ZM178.182 32.1368C177.207 30.9982 176.527 29.6377 176.201 28.1749C175.875 26.7121 175.914 25.1918 176.314 23.7474C176.755 22.31 177.656 21.0565 178.877 20.178C180.098 19.2996 181.574 18.8444 183.078 18.882C184.283 19.0265 185.431 19.4771 186.413 20.1907C187.394 20.9043 188.176 21.8571 188.684 22.9583C190.948 27.7448 188.974 35.845 182.236 34.6879C180.628 34.336 179.194 33.4336 178.182 32.1368Z" fill="white"/>
<path d="M466.296 42.918C466.244 42.6086 466.125 42.3141 465.948 42.0552C465.771 41.7963 465.539 41.5792 465.269 41.419C464.348 41.0508 463.479 42.0238 462.953 42.8654C461.189 45.732 459.478 48.625 457.847 51.5968C457.218 52.5867 456.805 53.6979 456.636 54.8579C456.589 55.1516 456.655 55.452 456.82 55.6995C456.996 55.8687 457.214 55.9869 457.452 56.0414C459.812 56.6143 462.235 56.8882 464.664 56.8566C467.796 56.8566 470.402 57.4615 469.665 53.5692C469.033 50.1503 466.296 46.3632 466.296 42.918Z" fill="#073C6A"/>
<path d="M395.962 131.994C395.879 131.124 395.58 130.289 395.093 129.564C394.606 128.838 393.946 128.245 393.172 127.839C392.265 127.424 391.274 127.226 390.277 127.26C388.924 127.244 387.594 127.598 386.429 128.284C385.264 128.97 384.31 129.962 383.67 131.152C383.175 132.291 383.051 133.557 383.315 134.77C383.58 135.983 384.22 137.082 385.144 137.911C386.181 138.707 387.427 139.184 388.73 139.285C390.033 139.385 391.338 139.105 392.484 138.478C393.631 137.851 394.57 136.904 395.188 135.752C395.805 134.601 396.074 133.295 395.962 131.994Z" fill="#073C6A"/>
<path d="M210.898 101.567C210.818 100.7 210.523 99.8667 210.041 99.1415C209.558 98.4162 208.903 97.822 208.134 97.4121C207.218 96.9968 206.218 96.7988 205.213 96.8335C203.86 96.8169 202.53 97.1709 201.365 97.8572C200.2 98.5434 199.246 99.5356 198.606 100.726C198.115 101.865 197.993 103.129 198.257 104.342C198.522 105.554 199.159 106.653 200.08 107.485C201.117 108.28 202.363 108.757 203.666 108.858C204.969 108.959 206.274 108.678 207.42 108.051C208.567 107.424 209.506 106.477 210.124 105.326C210.741 104.174 211.01 102.869 210.898 101.567Z" fill="white"/>
<path d="M337.137 15.5419C337.07 14.6875 336.796 13.8622 336.337 13.138C335.878 12.4138 335.249 11.8126 334.505 11.3866C333.598 10.9717 332.607 10.7736 331.61 10.808C330.256 10.7855 328.923 11.1371 327.757 11.8239C326.592 12.5108 325.638 13.5063 325.003 14.7004C324.501 15.8357 324.371 17.1005 324.631 18.3143C324.891 19.528 325.528 20.6287 326.451 21.4593C327.488 22.2139 328.72 22.6566 330.001 22.7354C331.282 22.8142 332.559 22.5259 333.682 21.9043C334.804 21.2827 335.726 20.3537 336.338 19.2266C336.95 18.0994 337.227 16.8211 337.137 15.5419Z" fill="#FFD77D"/>
<path d="M345.48 37.6326C345.4 36.7655 345.105 35.9319 344.623 35.2067C344.14 34.4814 343.485 33.8871 342.716 33.4772C341.802 33.0575 340.799 32.8679 339.795 32.925C338.444 32.8999 337.113 33.2476 335.947 33.9297C334.782 34.6117 333.827 35.6018 333.188 36.791C332.697 37.9304 332.575 39.1947 332.84 40.4067C333.104 41.6188 333.741 42.7179 334.662 43.5499C335.699 44.3455 336.945 44.8227 338.248 44.9232C339.551 45.0238 340.856 44.7434 342.002 44.1162C343.149 43.489 344.088 42.5421 344.706 41.3909C345.323 40.2396 345.592 38.9339 345.48 37.6326Z" fill="white"/>
<path d="M67.6363 50.7548C67.5531 49.8852 67.2546 49.0499 66.7674 48.3244C66.2803 47.599 65.62 47.0062 64.8462 46.5996C63.9421 46.1778 62.9469 45.988 61.9509 46.0472C60.6003 46.0222 59.269 46.3698 58.1034 47.0519C56.9378 47.734 55.9831 48.7241 55.3442 49.9132C54.8533 51.0526 54.7314 52.317 54.9958 53.5291C55.2601 54.7411 55.8973 55.8401 56.8182 56.6722C57.8549 57.4678 59.1008 57.945 60.4041 58.0456C61.7074 58.1461 63.0119 57.8657 64.1585 57.2385C65.3052 56.6113 66.2445 55.6644 66.862 54.5132C67.4795 53.362 67.7485 52.0561 67.6363 50.7548Z" fill="white"/>
<path d="M221.455 128.55C221.376 127.675 221.079 126.835 220.592 126.104C220.105 125.374 219.442 124.777 218.665 124.368C217.756 123.961 216.765 123.772 215.77 123.816C214.415 123.774 213.075 124.106 211.896 124.774C210.717 125.441 209.744 126.42 209.084 127.603C208.589 128.742 208.465 130.007 208.73 131.22C208.994 132.433 209.634 133.532 210.558 134.362C211.59 135.162 212.831 135.647 214.133 135.758C215.434 135.869 216.74 135.601 217.893 134.986C219.045 134.371 219.995 133.437 220.627 132.294C221.259 131.152 221.547 129.852 221.455 128.55Z" fill="white"/>
<path d="M50.6558 116.058C50.5769 115.184 50.2802 114.343 49.7929 113.613C49.3056 112.883 48.6431 112.286 47.8657 111.877C46.9577 111.467 45.9656 111.278 44.9704 111.324C43.6177 111.305 42.2858 111.658 41.1204 112.344C39.9551 113.031 39.0014 114.024 38.3638 115.217C37.8729 116.356 37.7509 117.62 38.0153 118.832C38.2796 120.044 38.9169 121.143 39.8378 121.975C40.8774 122.759 42.1213 123.226 43.4201 123.321C44.7189 123.415 46.0174 123.133 47.1597 122.508C48.3019 121.883 49.2395 120.942 49.8596 119.798C50.4798 118.654 50.7562 117.355 50.6558 116.058Z" fill="white"/>
<path d="M469.796 68.2972C469.717 67.4229 469.42 66.5822 468.933 65.8519C468.446 65.1215 467.783 64.5246 467.006 64.1155C466.097 63.7087 465.106 63.5196 464.111 63.5633C462.758 63.5437 461.426 63.8966 460.261 64.5831C459.095 65.2697 458.142 66.2635 457.504 67.4556C457.01 68.5924 456.884 69.855 457.143 71.0669C457.403 72.2788 458.035 73.3794 458.952 74.2145C459.991 75.0064 461.238 75.4804 462.541 75.5793C463.844 75.6782 465.148 75.3977 466.296 74.7718C467.443 74.1458 468.384 73.2012 469.005 72.0522C469.626 70.9032 469.901 69.5989 469.796 68.2972Z" fill="white"/>
<path d="M341.454 86.418C341.643 86.3069 341.812 86.1647 341.954 85.9973C342.428 85.3661 341.823 84.5245 341.217 83.9986C338.449 81.4986 335.452 79.2622 332.268 77.3185C331.952 77.1081 331.478 76.9503 331.241 77.3185C331.201 77.4648 331.201 77.6193 331.241 77.7656C331.084 81.5527 330.952 85.3661 330.82 89.1795C330.82 92.3354 333.163 90.5734 334.953 89.8107C337.188 88.8152 339.359 87.6822 341.454 86.418Z" fill="#073C6A"/>
<path d="M212.083 50.4673C212.242 50.6051 212.419 50.7201 212.61 50.8091C213.373 51.0195 213.978 50.1779 214.268 49.4416C215.689 45.9881 216.799 42.4147 217.584 38.7641C217.584 38.3959 217.584 37.8962 217.295 37.791C217.15 37.7409 216.992 37.7409 216.847 37.791L205.95 41.2362C202.95 42.183 205.424 43.8661 206.74 45.3389C208.402 47.1682 210.187 48.8817 212.083 50.4673Z" fill="#073C6A"/>
<path d="M384.118 76.7133C384.273 76.5624 384.398 76.3841 384.487 76.1874C384.723 75.4247 383.881 74.8198 383.171 74.4779C379.776 72.9588 376.252 71.7443 372.642 70.8486C372.274 70.8486 371.773 70.8486 371.668 71.0853C371.616 71.2298 371.616 71.3879 371.668 71.5324C372.695 75.188 373.721 78.8699 374.774 82.5255C375.616 85.5762 377.406 83.1566 378.906 81.868C380.753 80.2633 382.493 78.5416 384.118 76.7133Z" fill="white"/>
<path d="M88.1888 35.8189C88.3407 35.6658 88.4653 35.4879 88.5573 35.2929C88.7942 34.5565 87.9519 33.9253 87.2412 33.6097C83.8469 32.0822 80.3236 30.8588 76.7127 29.9541C76.3442 29.9541 75.8441 29.9541 75.7389 30.2171C75.686 30.3524 75.686 30.5026 75.7389 30.6379L78.8185 41.6573C79.6871 44.6817 81.4506 42.2622 82.9772 40.9998C84.8236 39.3861 86.5644 37.6556 88.1888 35.8189Z" fill="white"/>
<path d="M65.6871 107.562C65.8624 107.679 66.0593 107.759 66.2662 107.799C67.0558 107.799 67.477 106.905 67.635 106.142C68.4155 102.491 68.856 98.7757 68.951 95.0436C68.951 94.6754 68.951 94.1758 68.4772 94.1495C68.348 94.1136 68.2115 94.1136 68.0824 94.1495L57.9751 99.5408C55.185 101.014 57.9751 102.171 59.5017 103.433C61.4707 104.943 63.5369 106.323 65.6871 107.562Z" fill="white"/>
<path d="M124.408 47.7324C124.448 47.5239 124.448 47.3097 124.408 47.1012C124.092 46.3648 123.039 46.4437 122.302 46.6804C118.724 47.7543 115.253 49.154 111.931 50.862C111.589 51.0461 111.194 51.3617 111.352 51.7036C111.422 51.8389 111.533 51.9491 111.668 52.0192L121.223 58.2784C123.855 60.0142 123.644 56.9897 123.855 55.0699C124.21 52.6399 124.395 50.1881 124.408 47.7324Z" fill="white"/>
<path d="M225.483 99.2507C225.266 99.2107 225.043 99.2107 224.825 99.2507C224.062 99.3822 223.904 100.434 223.983 101.223C224.255 104.945 224.871 108.634 225.826 112.243C225.826 112.611 226.141 113.058 226.51 112.979C226.652 112.935 226.78 112.853 226.878 112.742L235.064 104.852C237.328 102.643 234.354 102.223 232.432 101.539C230.169 100.625 227.847 99.8605 225.483 99.2507Z" fill="white"/>
<path d="M85.3745 112.007C85.4567 112.209 85.5724 112.395 85.7166 112.559C86.2694 113.111 87.217 112.559 87.796 112.112C90.6589 109.723 93.3016 107.083 95.6924 104.222C95.9293 103.933 96.1661 103.486 95.8766 103.223C95.7661 103.128 95.6272 103.072 95.4818 103.065L84.2163 101.066C81.1104 100.514 82.5055 103.196 83.0056 105.064C83.6496 107.425 84.4408 109.744 85.3745 112.007Z" fill="#073C6A"/>
<path d="M285.152 104.722C295.88 92.0548 305.646 78.6048 314.369 64.4845C315.027 63.4326 316.001 62.2491 317.185 62.5384C317.669 62.7112 318.103 63.0001 318.449 63.3799L323.055 67.8772C312.974 82.973 302.972 98.1739 291.812 112.586C289.557 110.531 287.463 108.306 285.547 105.932C285.416 105.327 284.652 104.459 285.152 104.722Z" fill="white"/>
<path d="M283.914 68.6389C285.338 71.6174 287.201 74.3656 289.442 76.7917C300.537 63.6864 310.913 49.9908 320.527 35.7648C318.026 34.6076 315.263 32.8193 312.762 31.6621C303.155 44.3384 293.916 56.2782 283.914 68.6389Z" fill="#073C6A"/>
<path d="M291.811 130.363L318.79 98.1465C319.079 97.8046 319.422 97.4365 319.869 97.4628C320.244 97.5182 320.584 97.716 320.817 98.015L327.028 104.327C317.605 116.898 308.472 129.022 297.917 140.672C295.693 139.383 293.634 137.829 291.784 136.044C291.036 135.427 290.487 134.604 290.205 133.677C290.021 132.862 290.863 130.495 291.811 130.363Z" fill="white"/>
<path d="M14.8868 72.7686C25.6605 60.0847 35.4622 46.6077 44.2086 32.4518C44.8666 31.3998 45.8405 30.19 47.0513 30.5056C47.5287 30.6762 47.9546 30.9659 48.2884 31.3472L52.8946 35.8444C42.8136 50.9401 32.8116 66.1411 21.6514 80.5531C19.4098 78.4846 17.3165 76.2612 15.3869 73.8994C15.0447 73.3734 14.3077 72.5056 14.8868 72.7686Z" fill="white"/>
<path d="M13.6484 36.7121C15.0725 39.6906 16.9358 42.4388 19.1759 44.8649C30.2586 31.7498 40.635 18.0548 50.2612 3.83803C47.787 2.68086 44.997 0.89252 42.3648 -0.264648C32.8892 12.4116 23.6505 24.3252 13.6484 36.7121Z" fill="#073C6A"/>
<path d="M21.5451 98.4369L48.5243 66.2203C48.6052 66.0251 48.7392 65.8564 48.911 65.7334C49.0829 65.6104 49.2858 65.538 49.4968 65.5244C49.7077 65.5107 49.9183 65.5562 50.1047 65.656C50.291 65.7557 50.4456 65.9057 50.551 66.0887L56.7892 72.4006C47.3662 84.9717 38.2065 97.0693 27.6517 108.72C25.4277 107.43 23.3684 105.876 21.5188 104.091C20.7728 103.473 20.224 102.65 19.9396 101.724C19.7553 100.778 20.5976 98.6736 21.5451 98.4369Z" fill="white"/>
<path d="M392.462 29.138C392.462 30.5056 392.699 32.1625 393.988 32.7148C394.462 32.8783 394.962 32.9497 395.462 32.9251C399.489 32.9251 403.517 32.7147 407.544 32.3465C408.992 32.3699 410.402 31.8756 411.518 30.9527C412.333 29.8847 412.735 28.5585 412.65 27.2181C412.958 21.6064 412.498 15.979 411.281 10.4918C411.142 9.71705 410.875 8.97064 410.492 8.28269C408.254 4.67969 397.121 3.54884 393.857 6.57326C391.672 8.6246 392.435 12.9903 392.409 15.6202C392.33 20.1437 392.33 24.6408 392.462 29.138Z" fill="#FFD77D"/>
<path d="M84.2153 141.909C85.0049 141.909 85.9788 141.909 86.3473 141.12C86.5063 140.748 86.5609 140.338 86.5052 139.937L86.3473 135.861C86.3539 135.426 86.264 134.994 86.084 134.598C85.8105 134.182 85.4153 133.861 84.9523 133.678C83.1819 132.943 81.3241 132.439 79.4248 132.179C73.7719 130.994 68.0331 130.264 62.2634 129.996C61.5985 129.92 60.9251 130.016 60.3083 130.276C59.6915 130.536 59.1522 130.95 58.7422 131.479C58.3322 132.007 58.0655 132.633 57.9676 133.294C57.8698 133.956 57.9442 134.631 58.1837 135.256C58.9997 137.886 60.9474 137.886 63.4479 138.333C70.3441 139.516 77.1875 141.673 84.2153 141.909Z" fill="#FFD77D"/>
<path d="M103.586 34.3194C103.586 35.1083 103.586 36.0814 104.376 36.4496C104.76 36.5993 105.178 36.6447 105.586 36.5811L109.64 36.3707C110.086 36.3687 110.526 36.27 110.929 36.0814C111.322 35.7844 111.623 35.3835 111.798 34.9243C112.508 33.1521 112.986 31.2958 113.219 29.4014C114.327 23.7293 114.978 17.9776 115.167 12.2017C115.216 11.5476 115.1 10.8917 114.83 10.2941C114.56 9.69642 114.143 9.17621 113.62 8.78102C113.096 8.38582 112.481 8.1283 111.831 8.03212C111.182 7.93594 110.519 8.00411 109.903 8.23044C107.271 9.07202 107.271 11.0182 106.902 13.4903C105.744 20.4333 103.797 27.2975 103.586 34.3194Z" fill="#FFD77D"/>
<path d="M196.398 68.6914C197.108 68.3232 197.872 67.7446 197.845 66.9556C197.794 66.5504 197.63 66.1676 197.371 65.851L195.16 62.4321C194.957 62.0401 194.659 61.7054 194.292 61.4591C193.842 61.2431 193.337 61.1697 192.844 61.2486C190.954 61.5127 189.106 62.0164 187.343 62.7477C181.905 64.6019 176.623 66.8885 171.55 69.5855C170.935 69.8582 170.401 70.2855 170 70.8258C169.6 71.366 169.346 72.0008 169.264 72.6683C169.181 73.3357 169.274 74.0131 169.531 74.6343C169.789 75.2555 170.204 75.7994 170.734 76.2129C172.814 78.1328 174.446 77.0808 176.815 76.2129C183.237 73.6882 190.238 72.084 196.398 68.6914Z" fill="#073C6A"/>
<path d="M853.48 50.4409C859.111 52.7661 864.419 55.8068 869.272 59.4879C866.682 63.5215 863.605 67.2223 860.113 70.5073C858.383 72.0716 856.349 73.2624 854.138 74.0051C853.049 74.4317 851.864 74.552 850.712 74.3527C849.56 74.1535 848.484 73.6425 847.602 72.8752C846.72 72.1079 846.066 71.1137 845.71 70.0007C845.354 68.8877 845.31 67.6985 845.583 66.5624C845.995 64.3224 846.769 62.164 847.873 60.1716C849.584 56.8053 851.848 53.8072 853.48 50.4409Z" fill="white"/>
<path d="M872.011 56.1215C866.611 53.2729 861.603 49.7369 857.113 45.6017C860.112 41.8468 863.559 38.4729 867.379 35.5554C869.264 34.1749 871.415 33.1989 873.696 32.6888C874.822 32.3734 876.013 32.3739 877.139 32.6903C878.265 33.0067 879.282 33.6267 880.079 34.4824C880.875 35.3381 881.421 36.3964 881.655 37.5413C881.89 38.6862 881.804 39.8735 881.408 40.973C880.786 43.1574 879.798 45.2205 878.486 47.0745C876.538 50.1778 873.985 52.9392 872.011 56.1215Z" fill="white"/>
<path d="M754.043 124.394C758.81 120.549 764.046 117.323 769.625 114.795C771.915 119.01 773.682 123.487 774.889 128.129C775.449 130.394 775.512 132.753 775.074 135.045C774.865 136.203 774.37 137.29 773.635 138.208C772.899 139.127 771.946 139.847 770.862 140.305C769.766 140.612 768.612 140.655 767.496 140.432C766.38 140.208 765.333 139.723 764.44 139.017C762.663 137.573 761.134 135.85 759.913 133.914C757.754 130.864 756.201 127.445 754.043 124.394Z" fill="#073C6A"/>
<path d="M767.937 110.903C762.804 114.226 757.267 116.877 751.46 118.793C749.607 114.365 748.299 109.729 747.564 104.986C747.262 102.669 747.442 100.314 748.091 98.069C748.362 96.9358 748.938 95.8983 749.757 95.0686C750.575 94.2389 751.605 93.6486 752.736 93.3615C753.866 93.0745 755.053 93.1016 756.169 93.44C757.285 93.7784 758.287 94.4151 759.067 95.2813C760.677 96.8894 762.019 98.7451 763.041 100.778C764.883 104.065 766.068 107.642 767.937 110.903Z" fill="white"/>
<path d="M934.839 121.526C937.871 126.851 940.207 132.543 941.788 138.463C937.253 140.042 932.541 141.058 927.758 141.487C925.427 141.663 923.085 141.34 920.888 140.541C919.795 140.135 918.817 139.467 918.041 138.596C917.266 137.725 916.716 136.677 916.44 135.544C916.318 134.41 916.466 133.263 916.873 132.198C917.28 131.133 917.935 130.179 918.783 129.416C920.484 127.921 922.412 126.705 924.494 125.813C927.837 124.156 931.47 123.183 934.839 121.526Z" fill="white"/>
<path d="M945.92 137.439C943.425 131.84 941.656 125.945 940.656 119.897C945.34 118.799 950.138 118.269 954.949 118.319C957.283 118.392 959.577 118.947 961.687 119.95C962.757 120.407 963.683 121.146 964.366 122.088C965.048 123.03 965.461 124.14 965.561 125.299C965.661 126.458 965.444 127.622 964.933 128.667C964.423 129.712 963.637 130.599 962.661 131.232C960.815 132.562 958.76 133.575 956.581 134.23C953.159 135.493 949.421 136.124 945.92 137.439Z" fill="white"/>
<path d="M638.277 40.2626C643.836 37.6832 649.7 35.8185 655.728 34.7134C656.934 39.362 657.57 44.1395 657.623 48.9413C657.593 51.2733 657.082 53.574 656.123 55.7002C655.637 56.7465 654.904 57.6593 653.987 58.3602C653.07 59.061 651.997 59.529 650.859 59.724C649.724 59.7518 648.598 59.5114 647.574 59.0224C646.549 58.5334 645.655 57.8096 644.963 56.91C643.593 55.0949 642.526 53.0699 641.804 50.9137C640.33 47.4422 639.646 43.7341 638.277 40.2626Z" fill="#073C6A"/>
<path d="M655.047 30.5047C649.271 32.5292 643.253 33.7848 637.149 34.2393C636.409 29.4983 636.258 24.684 636.701 19.9061C636.968 17.5874 637.711 15.3488 638.886 13.3313C639.485 12.3218 640.325 11.4764 641.331 10.8706C642.337 10.2648 643.477 9.91751 644.65 9.85986C645.785 9.94753 646.882 10.3031 647.853 10.8975C648.823 11.4919 649.638 12.3081 650.23 13.2787C651.398 15.2255 652.242 17.3481 652.731 19.5643C653.731 23.1673 654.021 26.928 655.047 30.5047Z" fill="white"/>
<path d="M900.094 75.45L891.408 63.7994C891.068 63.4557 890.805 63.0433 890.637 62.5897C890.469 62.1361 890.4 61.6518 890.434 61.1694C890.639 60.5891 891.004 60.0785 891.487 59.6967C897.067 54.2615 902.92 49.0981 909.044 44.2065C909.852 43.3524 910.841 42.6895 911.938 42.2664C913.036 41.8432 914.214 41.6704 915.387 41.7606C916.542 42.1142 917.598 42.7361 918.466 43.5752C926.117 49.8344 933.698 56.1814 941.208 62.616C941.836 63.0236 942.37 63.5606 942.774 64.191C943.178 64.8214 943.443 65.5307 943.551 66.2715C943.415 67.4323 942.896 68.515 942.077 69.3486L935.681 77.3698C933.68 76.6597 930.206 76.6597 928.179 75.9496C926.152 75.2395 924.283 74.1613 924.573 72.2941C924.757 71.1369 925.863 70.3742 926.363 69.2959C926.602 68.6642 926.682 67.9833 926.595 67.3134C926.507 66.6436 926.256 66.0057 925.863 65.4562C925.051 64.3873 924.074 63.455 922.967 62.6948C921.065 60.8049 918.491 59.7457 915.808 59.7493C913.648 60.3254 911.735 61.5905 910.36 63.3523C909.914 63.7329 909.608 64.2512 909.491 64.8251C909.521 65.3369 909.715 65.8255 910.044 66.2189L913.071 70.9265C913.32 71.218 913.443 71.5964 913.413 71.9785C913.413 72.4782 912.781 72.7149 912.307 72.899C908.326 74.1339 904.237 74.9881 900.094 75.45Z" fill="#073C6A"/>
<path d="M733.827 86.1554L720.666 80.1066C719.798 79.7121 718.824 79.2124 718.587 78.2656C718.478 77.664 718.542 77.044 718.771 76.4772C721.087 69.0433 723.72 61.7146 726.668 54.4911C727.562 52.3345 728.8 49.915 731.063 49.2312C732.241 48.9574 733.465 48.9574 734.643 49.2312C744.364 51.0722 754.015 53.0183 763.596 55.0697C764.344 55.1245 765.071 55.3383 765.729 55.6966C766.387 56.0549 766.961 56.5494 767.413 57.1473C767.839 58.2296 767.895 59.4227 767.571 60.5399C766.992 63.9062 766.386 67.2725 765.807 70.6388C763.701 70.9807 760.674 72.6638 758.569 73.0057C756.463 73.3476 754.278 73.2687 753.62 71.533C753.226 70.4021 753.831 69.1924 753.752 68.0352C753.668 67.3657 753.416 66.7283 753.02 66.1814C752.625 65.6345 752.098 65.1958 751.488 64.9056C750.257 64.3415 748.941 63.986 747.593 63.8536C746.459 63.3471 745.218 63.1249 743.978 63.2063C742.738 63.2877 741.537 63.6702 740.479 64.3207C739.421 64.9711 738.537 65.8699 737.905 66.9389C737.274 68.0078 736.913 69.2147 736.854 70.4547C736.663 71.0086 736.663 71.6103 736.854 72.1642C737.129 72.6014 737.534 72.9417 738.012 73.1373L742.934 75.7672C743.286 75.9195 743.574 76.1889 743.75 76.5298C743.773 76.775 743.737 77.0222 743.646 77.2509C743.554 77.4795 743.409 77.6831 743.224 77.8448C740.355 80.8987 737.209 83.6808 733.827 86.1554Z" fill="white"/>
<path d="M641.754 111.612C642.517 106.826 643.254 102.013 643.991 97.2266C644 96.7475 644.113 96.2759 644.322 95.8446C644.531 95.4132 644.831 95.0324 645.202 94.7282C645.749 94.4612 646.362 94.3606 646.966 94.4389C654.792 94.6318 662.583 95.2016 670.339 96.1484C671.514 96.1277 672.68 96.3695 673.75 96.8564C674.82 97.3432 675.768 98.0627 676.524 98.9623C677.076 100.038 677.373 101.225 677.393 102.434C678.27 112.27 679.033 122.114 679.683 131.968C679.899 132.603 679.951 133.283 679.835 133.944C679.719 134.605 679.438 135.226 679.018 135.75C678.599 136.274 678.054 136.684 677.434 136.942C676.814 137.201 676.139 137.299 675.471 137.228L665.259 138.28C664.364 136.36 661.942 133.861 661.021 131.942C660.1 130.022 659.6 127.892 661.021 126.682C661.969 125.998 663.311 126.261 664.416 125.866C665.037 125.599 665.58 125.179 665.994 124.646C666.408 124.112 666.68 123.483 666.785 122.816C667.009 121.493 667.009 120.141 666.785 118.818C666.806 116.145 665.765 113.572 663.89 111.665C661.968 110.513 659.721 110.024 657.494 110.271C656.91 110.223 656.326 110.371 655.836 110.692C655.496 111.076 655.277 111.552 655.204 112.059C654.809 113.874 654.388 115.689 653.967 117.503C653.938 117.889 653.758 118.248 653.467 118.503C653.237 118.598 652.988 118.636 652.74 118.613C652.492 118.59 652.254 118.507 652.045 118.371C648.417 116.434 644.972 114.172 641.754 111.612Z" fill="white"/>
<path d="M892.594 98.6727C893.125 101.635 894.263 104.455 895.937 106.957C896.805 108.181 898.025 109.112 899.435 109.629C900.845 110.145 902.378 110.222 903.833 109.85C907.649 108.482 909.387 103.091 913.466 102.749C916.967 102.46 919.362 106.142 922.468 107.799C924.132 108.612 926.016 108.862 927.835 108.511C929.654 108.16 931.308 107.227 932.549 105.852C933.681 104.537 934.365 102.907 935.366 101.487C937.245 99.0709 939.971 97.4563 942.994 96.9683C946.017 96.4803 949.113 97.1552 951.658 98.8568C952.568 99.6274 953.527 100.339 954.527 100.987C958.054 102.907 962.687 100.987 965.056 97.6733C967.157 94.23 968.402 90.3344 968.688 86.312L892.594 98.6727Z" fill="#FFD77D"/>
<path d="M473.404 89.5205C471.696 91.9893 470.514 94.7821 469.929 97.7259C469.667 99.2087 469.864 100.736 470.495 102.104C471.125 103.472 472.158 104.614 473.457 105.379C477.141 107.115 482.195 104.537 485.301 107.167C487.933 109.429 487.065 113.716 488.117 117.082C488.716 118.835 489.869 120.345 491.403 121.384C492.937 122.424 494.768 122.935 496.619 122.842C498.356 122.71 499.988 122.026 501.699 121.737C504.735 121.338 507.809 122.108 510.297 123.891C512.785 125.674 514.501 128.336 515.097 131.336C515.212 132.521 515.397 133.697 515.649 134.861C516.431 136.711 517.833 138.233 519.615 139.164C521.397 140.095 523.447 140.377 525.414 139.963C529.308 138.999 532.917 137.124 535.943 134.492L473.404 89.5205Z" fill="#FFD77D"/>
<path d="M573.027 69.5596C573.051 72.5693 573.696 75.5417 574.922 78.2909C575.565 79.65 576.608 80.7809 577.91 81.5327C579.213 82.2845 580.714 82.6216 582.213 82.4988C586.241 81.7888 588.873 76.7656 592.926 77.1075C596.427 77.423 598.19 81.4731 600.954 83.6034C602.454 84.6912 604.269 85.2594 606.122 85.2214C607.975 85.1834 609.765 84.5414 611.219 83.393C612.562 82.2884 613.509 80.7631 614.746 79.5796C616.984 77.4886 619.934 76.3253 622.998 76.3253C626.062 76.3253 629.012 77.4886 631.25 79.5796C632.002 80.5132 632.82 81.392 633.698 82.2095C635.413 83.2617 637.44 83.6898 639.435 83.4215C641.43 83.1532 643.271 82.2048 644.647 80.7368C647.279 77.7083 649.163 74.1052 650.148 70.2171L573.027 69.5596Z" fill="#FFD77D"/>
<path d="M716.613 10.7021C715.852 13.6128 715.718 16.6513 716.218 19.6176C716.483 21.0983 717.2 22.461 718.269 23.52C719.338 24.579 720.709 25.2826 722.193 25.535C726.246 25.8769 730.089 21.6953 733.906 23.0892C737.222 24.2726 737.854 28.612 740.012 31.3998C741.184 32.8342 742.793 33.8469 744.593 34.2836C746.394 34.7204 748.288 34.5573 749.988 33.8192C751.567 33.0829 752.883 31.8994 754.383 31.0315C757.089 29.5932 760.242 29.2385 763.2 30.0397C766.158 30.8409 768.7 32.7378 770.308 35.3446C770.81 36.415 771.382 37.4516 772.019 38.4479C773.403 39.9081 775.251 40.8428 777.248 41.0922C779.245 41.3417 781.267 40.8904 782.968 39.8155C786.313 37.5646 789.066 34.5428 790.996 31.0052L716.613 10.7021Z" fill="#FFD77D"/>
<path d="M843.348 128.102C848.06 133.152 855.219 132.074 861.22 130.548C867.221 129.023 871.091 123.079 872.302 117.399C872.936 114.59 872.841 111.665 872.026 108.903C871.21 106.142 869.701 103.634 867.643 101.619C865.537 99.6268 862.819 98.4035 859.931 98.1475C857.538 98.1657 855.174 98.68 852.991 99.6579C850.807 100.636 848.85 102.056 847.244 103.828C843.857 106.914 841.458 110.93 840.348 115.374C839.799 117.581 839.785 119.887 840.307 122.101C840.829 124.314 841.872 126.372 843.348 128.102ZM849.139 115.426C849.547 113.98 850.305 112.657 851.347 111.574C852.39 110.492 853.684 109.683 855.114 109.22C856.556 108.808 858.092 108.875 859.492 109.411C860.893 109.947 862.081 110.923 862.878 112.191C863.426 113.274 863.685 114.479 863.629 115.691C863.574 116.903 863.207 118.08 862.563 119.108C859.799 123.631 852.034 126.445 849.218 120.186C848.626 118.659 848.598 116.972 849.139 115.426Z" fill="white"/>
<path d="M620.91 142.514C627.727 141.488 630.912 135.018 633.07 129.206C635.229 123.394 632.518 116.846 628.464 112.585C626.517 110.494 624.072 108.929 621.357 108.037C618.641 107.144 615.744 106.954 612.935 107.483C610.067 108.09 607.488 109.647 605.617 111.901C604.257 113.87 603.32 116.1 602.867 118.45C602.414 120.8 602.454 123.218 602.985 125.551C603.624 130.08 605.562 134.328 608.565 137.78C610.096 139.495 612.015 140.82 614.163 141.644C616.31 142.467 618.624 142.765 620.91 142.514ZM613.724 130.548C612.774 129.385 612.124 128.008 611.83 126.536C611.536 125.064 611.608 123.543 612.04 122.106C612.518 120.682 613.447 119.453 614.687 118.604C615.926 117.754 617.408 117.331 618.91 117.398C620.112 117.565 621.251 118.04 622.215 118.778C623.179 119.515 623.936 120.489 624.411 121.606C626.569 126.445 624.411 134.493 617.699 133.204C616.108 132.8 614.705 131.862 613.724 130.548Z" fill="white"/>
<path d="M946.184 36.5011C953.028 35.5017 956.213 29.0058 958.345 23.1937C960.477 17.3815 957.818 10.8331 953.765 6.57261C951.814 4.4788 949.365 2.91272 946.644 2.02056C943.924 1.12839 941.022 0.939192 938.209 1.47054C935.355 2.094 932.79 3.64837 930.918 5.8888C929.557 7.85782 928.621 10.0877 928.168 12.4373C927.715 14.7869 927.755 17.2049 928.286 19.5381C928.898 24.0703 930.829 28.323 933.84 31.7673C935.371 33.4826 937.29 34.8074 939.437 35.6309C941.585 36.4544 943.898 36.7527 946.184 36.5011ZM939.025 24.535C938.066 23.3773 937.409 22.001 937.11 20.5283C936.812 19.0556 936.882 17.5321 937.314 16.0929C937.794 14.6721 938.724 13.4462 939.963 12.6013C941.203 11.7565 942.685 11.3388 944.184 11.4117C945.389 11.5692 946.533 12.0377 947.502 12.7709C948.471 13.5041 949.233 14.4768 949.711 15.5932C951.87 20.4323 949.711 28.4799 943 27.1912C941.404 26.7993 939.997 25.859 939.025 24.535Z" fill="white"/>
<path d="M508.041 56.7259C507.252 49.8881 500.829 46.5218 495.091 44.1812C489.353 41.8405 482.72 44.3653 478.325 48.2838C476.176 50.1727 474.541 52.5736 473.57 55.2634C472.599 57.9532 472.324 60.8446 472.771 63.6689C473.298 66.5448 474.782 69.1584 476.982 71.0854C478.92 72.4852 481.128 73.4674 483.466 73.9699C485.804 74.4725 488.221 74.4842 490.564 74.0045C495.123 73.5016 499.433 71.6727 502.961 68.7447C504.696 67.2831 506.061 65.4325 506.943 63.3438C507.826 61.2551 508.202 58.9875 508.041 56.7259ZM495.881 63.5375C494.692 64.4575 493.294 65.0707 491.811 65.3229C490.328 65.5752 488.806 65.4588 487.379 64.9839C485.974 64.4596 484.776 63.4949 483.965 62.2339C483.153 60.973 482.772 59.4836 482.878 57.9883C483.1 56.8132 483.618 55.7139 484.382 54.7937C485.146 53.8736 486.133 53.1628 487.248 52.7284C492.143 50.7034 500.119 53.0967 498.645 59.7504C498.179 61.2889 497.205 62.624 495.881 63.5375Z" fill="#073C6A"/>
<path d="M686.448 43.9452C693.238 42.788 696.292 36.2132 698.318 30.3748C700.345 24.5363 697.502 18.0404 693.344 13.8588C691.351 11.8046 688.868 10.2901 686.129 9.45741C683.389 8.62477 680.483 8.50134 677.683 9.09865C674.837 9.76459 672.303 11.3784 670.497 13.6747C669.196 15.6799 668.326 17.9328 667.94 20.2913C667.555 22.6497 667.664 25.0624 668.26 27.3767C668.972 31.8963 671.005 36.1049 674.103 39.4743C675.657 41.1458 677.588 42.4233 679.734 43.2008C681.881 43.9783 684.182 44.2335 686.448 43.9452ZM678.999 32.1368C678.024 30.9982 677.343 29.6377 677.017 28.1749C676.692 26.7121 676.73 25.1918 677.13 23.7474C677.572 22.31 678.472 21.0565 679.693 20.178C680.915 19.2996 682.39 18.8444 683.894 18.882C685.1 19.0265 686.248 19.4771 687.229 20.1907C688.21 20.9043 688.993 21.8571 689.501 22.9583C691.764 27.7448 689.79 35.845 683.052 34.6879C681.445 34.336 680.011 33.4336 678.999 32.1368Z" fill="white"/>
<path d="M967.112 42.918C967.06 42.6086 966.942 42.3141 966.764 42.0552C966.587 41.7963 966.355 41.5792 966.085 41.419C965.164 41.0508 964.296 42.0238 963.769 42.8654C962.006 45.732 960.295 48.625 958.663 51.5968C958.034 52.5867 957.622 53.6979 957.452 54.8579C957.406 55.1516 957.471 55.452 957.636 55.6995C957.812 55.8687 958.03 55.9869 958.268 56.0414C960.628 56.6143 963.051 56.8882 965.48 56.8566C968.612 56.8566 971.218 57.4615 970.481 53.5692C969.849 50.1503 967.112 46.3632 967.112 42.918Z" fill="#073C6A"/>
<path d="M896.778 131.994C896.695 131.124 896.397 130.289 895.91 129.564C895.422 128.838 894.762 128.245 893.988 127.839C893.081 127.424 892.09 127.226 891.093 127.26C889.741 127.244 888.41 127.598 887.245 128.284C886.08 128.97 885.126 129.962 884.486 131.152C883.991 132.291 883.867 133.557 884.132 134.77C884.396 135.983 885.036 137.082 885.96 137.911C886.997 138.707 888.243 139.184 889.546 139.285C890.85 139.385 892.154 139.105 893.301 138.478C894.447 137.851 895.387 136.904 896.004 135.752C896.622 134.601 896.891 133.295 896.778 131.994Z" fill="#073C6A"/>
<path d="M711.714 101.567C711.634 100.7 711.339 99.8667 710.857 99.1415C710.375 98.4162 709.72 97.822 708.951 97.4121C708.034 96.9968 707.034 96.7988 706.029 96.8335C704.677 96.8169 703.346 97.1709 702.181 97.8572C701.016 98.5434 700.062 99.5356 699.422 100.726C698.931 101.865 698.81 103.129 699.074 104.342C699.338 105.554 699.975 106.653 700.896 107.485C701.933 108.28 703.179 108.757 704.482 108.858C705.786 108.959 707.09 108.678 708.237 108.051C709.383 107.424 710.323 106.477 710.94 105.326C711.558 104.174 711.827 102.869 711.714 101.567Z" fill="white"/>
<path d="M837.953 15.5419C837.887 14.6875 837.612 13.8622 837.153 13.138C836.695 12.4138 836.066 11.8126 835.321 11.3866C834.414 10.9717 833.423 10.7736 832.426 10.808C831.073 10.7855 829.74 11.1371 828.574 11.8239C827.408 12.5108 826.455 13.5063 825.819 14.7004C825.317 15.8357 825.187 17.1005 825.447 18.3143C825.707 19.528 826.344 20.6287 827.267 21.4593C828.305 22.2139 829.537 22.6566 830.818 22.7354C832.099 22.8142 833.376 22.5259 834.498 21.9043C835.621 21.2827 836.542 20.3537 837.154 19.2266C837.767 18.0994 838.044 16.8211 837.953 15.5419Z" fill="#FFD77D"/>
<path d="M846.296 37.6326C846.216 36.7655 845.921 35.9319 845.439 35.2067C844.957 34.4814 844.302 33.8871 843.533 33.4772C842.619 33.0575 841.615 32.8679 840.611 32.925C839.26 32.8999 837.929 33.2476 836.764 33.9297C835.598 34.6117 834.643 35.6018 834.004 36.791C833.513 37.9304 833.392 39.1947 833.656 40.4067C833.92 41.6188 834.557 42.7179 835.478 43.5499C836.515 44.3455 837.761 44.8227 839.064 44.9232C840.368 45.0238 841.672 44.7434 842.819 44.1162C843.965 43.489 844.905 42.5421 845.522 41.3909C846.14 40.2396 846.409 38.9339 846.296 37.6326Z" fill="white"/>
<path d="M568.453 50.7548C568.37 49.8852 568.071 49.0499 567.584 48.3244C567.097 47.599 566.436 47.0062 565.663 46.5996C564.758 46.1778 563.763 45.988 562.767 46.0472C561.417 46.0222 560.085 46.3698 558.92 47.0519C557.754 47.734 556.799 48.7241 556.161 49.9132C555.67 51.0526 555.548 52.317 555.812 53.5291C556.077 54.7411 556.714 55.8401 557.635 56.6722C558.671 57.4678 559.917 57.945 561.221 58.0456C562.524 58.1461 563.828 57.8657 564.975 57.2385C566.122 56.6113 567.061 55.6644 567.678 54.5132C568.296 53.362 568.565 52.0561 568.453 50.7548Z" fill="white"/>
<path d="M722.271 128.55C722.192 127.675 721.896 126.835 721.408 126.104C720.921 125.374 720.259 124.777 719.481 124.368C718.572 123.961 717.581 123.772 716.586 123.816C715.231 123.774 713.891 124.106 712.712 124.774C711.533 125.441 710.56 126.42 709.9 127.603C709.405 128.742 709.281 130.007 709.546 131.22C709.81 132.433 710.45 133.532 711.374 134.362C712.406 135.162 713.648 135.647 714.949 135.758C716.251 135.869 717.557 135.601 718.709 134.986C719.861 134.371 720.811 133.437 721.443 132.294C722.075 131.152 722.363 129.852 722.271 128.55Z" fill="white"/>
<path d="M551.472 116.058C551.393 115.184 551.097 114.343 550.609 113.613C550.122 112.883 549.459 112.286 548.682 111.877C547.774 111.467 546.782 111.278 545.787 111.324C544.434 111.305 543.102 111.658 541.937 112.344C540.772 113.031 539.818 114.024 539.18 115.217C538.689 116.356 538.567 117.62 538.832 118.832C539.096 120.044 539.733 121.143 540.654 121.975C541.694 122.759 542.938 123.226 544.236 123.321C545.535 123.415 546.834 123.133 547.976 122.508C549.118 121.883 550.056 120.942 550.676 119.798C551.296 118.654 551.573 117.355 551.472 116.058Z" fill="white"/>
<path d="M970.612 68.2972C970.533 67.4229 970.237 66.5822 969.75 65.8519C969.262 65.1215 968.6 64.5246 967.822 64.1155C966.913 63.7087 965.922 63.5196 964.927 63.5633C963.574 63.5437 962.242 63.8966 961.077 64.5831C959.912 65.2697 958.958 66.2635 958.32 67.4556C957.826 68.5924 957.7 69.855 957.96 71.0669C958.219 72.2788 958.852 73.3794 959.768 74.2145C960.807 75.0064 962.054 75.4804 963.357 75.5793C964.661 75.6782 965.965 75.3977 967.112 74.7718C968.259 74.1458 969.2 73.2012 969.821 72.0522C970.443 70.9032 970.717 69.5989 970.612 68.2972Z" fill="white"/>
<path d="M842.267 86.418C842.456 86.3069 842.625 86.1647 842.767 85.9973C843.24 85.3661 842.635 84.5245 842.03 83.9986C839.261 81.4986 836.265 79.2622 833.08 77.3185C832.765 77.1081 832.291 76.9503 832.054 77.3185C832.014 77.4648 832.014 77.6193 832.054 77.7656C831.896 81.5527 831.764 85.3661 831.633 89.1795C831.633 92.3354 833.975 90.5734 835.765 89.8107C838 88.8152 840.172 87.6822 842.267 86.418Z" fill="#073C6A"/>
<path d="M712.9 50.4673C713.058 50.6051 713.236 50.7201 713.426 50.8091C714.189 51.0195 714.795 50.1779 715.084 49.4416C716.506 45.9881 717.616 42.4147 718.401 38.7641C718.401 38.3959 718.401 37.8962 718.111 37.791C717.966 37.7409 717.809 37.7409 717.664 37.791L706.767 41.2362C703.766 42.183 706.24 43.8661 707.556 45.3389C709.218 47.1682 711.004 48.8817 712.9 50.4673Z" fill="#073C6A"/>
<path d="M884.934 76.7133C885.089 76.5624 885.214 76.3841 885.303 76.1874C885.54 75.4247 884.698 74.8198 883.987 74.4779C880.592 72.9588 877.069 71.7443 873.458 70.8486C873.09 70.8486 872.59 70.8486 872.485 71.0853C872.432 71.2298 872.432 71.3879 872.485 71.5324C873.511 75.188 874.538 78.8699 875.59 82.5255C876.433 85.5762 878.223 83.1566 879.723 81.868C881.569 80.2633 883.31 78.5416 884.934 76.7133Z" fill="white"/>
<path d="M589.005 35.8189C589.157 35.6658 589.282 35.4879 589.374 35.2929C589.611 34.5565 588.768 33.9253 588.058 33.6097C584.663 32.0822 581.14 30.8588 577.529 29.9541C577.161 29.9541 576.661 29.9541 576.555 30.2171C576.502 30.3524 576.502 30.5026 576.555 30.6379L579.635 41.6573C580.503 44.6817 582.267 42.2622 583.794 40.9998C585.64 39.3861 587.381 37.6556 589.005 35.8189Z" fill="white"/>
<path d="M566.504 107.562C566.679 107.679 566.876 107.759 567.083 107.799C567.872 107.799 568.293 106.905 568.451 106.142C569.232 102.491 569.672 98.7757 569.767 95.0436C569.767 94.6754 569.767 94.1758 569.294 94.1495C569.164 94.1136 569.028 94.1136 568.899 94.1495L558.791 99.5408C556.001 101.014 558.792 102.171 560.318 103.433C562.287 104.943 564.353 106.323 566.504 107.562Z" fill="white"/>
<path d="M625.224 47.7324C625.264 47.5239 625.264 47.3097 625.224 47.1012C624.908 46.3648 623.855 46.4437 623.118 46.6804C619.541 47.7543 616.069 49.154 612.748 50.862C612.406 51.0461 612.011 51.3617 612.169 51.7036C612.239 51.8389 612.349 51.9491 612.485 52.0192L622.039 58.2784C624.671 60.0142 624.461 56.9897 624.671 55.0699C625.027 52.6399 625.211 50.1881 625.224 47.7324Z" fill="white"/>
<path d="M726.3 99.2507C726.082 99.2107 725.859 99.2107 725.642 99.2507C724.879 99.3822 724.721 100.434 724.8 101.223C725.071 104.945 725.688 108.634 726.642 112.243C726.642 112.611 726.958 113.058 727.326 112.979C727.468 112.935 727.596 112.853 727.695 112.742L735.881 104.852C738.144 102.643 735.17 102.223 733.249 101.539C730.985 100.625 728.664 99.8605 726.3 99.2507Z" fill="white"/>
<path d="M586.191 112.007C586.273 112.209 586.389 112.395 586.533 112.559C587.086 113.111 588.033 112.559 588.612 112.112C591.475 109.723 594.118 107.083 596.509 104.222C596.746 103.933 596.983 103.486 596.693 103.223C596.582 103.128 596.444 103.072 596.298 103.065L585.033 101.066C581.927 100.514 583.322 103.196 583.822 105.064C584.466 107.425 585.257 109.744 586.191 112.007Z" fill="#073C6A"/>
<path d="M785.969 104.722C796.696 92.0548 806.462 78.6048 815.185 64.4845C815.843 63.4326 816.817 62.2491 818.002 62.5384C818.486 62.7112 818.919 63.0001 819.265 63.3799L823.871 67.8772C813.79 82.973 803.788 98.1739 792.628 112.586C790.373 110.531 788.279 108.306 786.364 105.932C786.232 105.327 785.469 104.459 785.969 104.722Z" fill="white"/>
<path d="M784.73 68.6389C786.155 71.6174 788.018 74.3656 790.258 76.7917C801.353 63.6864 811.73 49.9908 821.343 35.7648C818.843 34.6076 816.079 32.8193 813.579 31.6621C803.971 44.3384 794.733 56.2782 784.73 68.6389Z" fill="#073C6A"/>
<path d="M792.627 130.363L819.606 98.1465C819.896 97.8046 820.238 97.4365 820.685 97.4628C821.061 97.5182 821.4 97.716 821.633 98.015L827.845 104.327C818.422 116.898 809.288 129.022 798.734 140.672C796.51 139.383 794.45 137.829 792.601 136.044C791.853 135.427 791.303 134.604 791.022 133.677C790.837 132.862 791.68 130.495 792.627 130.363Z" fill="white"/>
<path d="M515.703 72.7686C526.477 60.0847 536.279 46.6077 545.025 32.4518C545.683 31.3998 546.657 30.19 547.868 30.5056C548.345 30.6762 548.771 30.9659 549.105 31.3472L553.711 35.8444C543.63 50.9401 533.628 66.1411 522.468 80.5531C520.226 78.4846 518.133 76.2612 516.203 73.8994C515.861 73.3734 515.124 72.5056 515.703 72.7686Z" fill="white"/>
<path d="M514.465 36.7121C515.889 39.6906 517.752 42.4388 519.992 44.8649C531.075 31.7498 541.451 18.0548 551.078 3.83803C548.603 2.68086 545.813 0.89252 543.181 -0.264648C533.706 12.4116 524.467 24.3252 514.465 36.7121Z" fill="#073C6A"/>
<path d="M522.362 98.4369L549.341 66.2203C549.422 66.0251 549.556 65.8564 549.727 65.7334C549.899 65.6104 550.102 65.538 550.313 65.5244C550.524 65.5107 550.735 65.5562 550.921 65.656C551.107 65.7557 551.262 65.9057 551.367 66.0887L557.606 72.4006C548.183 84.9717 539.023 97.0693 528.468 108.72C526.244 107.43 524.185 105.876 522.335 104.091C521.589 103.473 521.04 102.65 520.756 101.724C520.572 100.778 521.414 98.6736 522.362 98.4369Z" fill="white"/>
<path d="M893.278 29.138C893.278 30.5056 893.515 32.1625 894.805 32.7148C895.278 32.8783 895.778 32.9497 896.279 32.9251C900.306 32.9251 904.333 32.7147 908.36 32.3465C909.809 32.3699 911.218 31.8756 912.335 30.9527C913.15 29.8847 913.552 28.5585 913.466 27.2181C913.775 21.6064 913.314 15.979 912.098 10.4918C911.958 9.71705 911.691 8.97064 911.308 8.28269C909.071 4.67969 897.937 3.54884 894.673 6.57326C892.489 8.6246 893.252 12.9903 893.225 15.6202C893.146 20.1437 893.147 24.6408 893.278 29.138Z" fill="#FFD77D"/>
<path d="M585.032 141.909C585.821 141.909 586.795 141.909 587.164 141.12C587.323 140.748 587.377 140.338 587.322 139.937L587.164 135.861C587.17 135.426 587.08 134.994 586.9 134.598C586.627 134.182 586.232 133.861 585.769 133.678C583.998 132.943 582.14 132.439 580.241 132.179C574.588 130.994 568.849 130.264 563.08 129.996C562.415 129.92 561.741 130.016 561.125 130.276C560.508 130.536 559.969 130.95 559.559 131.479C559.149 132.007 558.882 132.633 558.784 133.294C558.686 133.956 558.761 134.631 559 135.256C559.816 137.886 561.764 137.886 564.264 138.333C571.16 139.516 578.004 141.673 585.032 141.909Z" fill="#FFD77D"/>
<path d="M604.402 34.3194C604.402 35.1083 604.402 36.0814 605.192 36.4496C605.577 36.5993 605.995 36.6447 606.403 36.5811L610.456 36.3707C610.902 36.3687 611.342 36.27 611.746 36.0814C612.138 35.7844 612.439 35.3835 612.615 34.9243C613.324 33.1521 613.802 31.2958 614.036 29.4014C615.143 23.7293 615.795 17.9776 615.984 12.2017C616.033 11.5476 615.917 10.8917 615.646 10.2941C615.376 9.69642 614.96 9.17621 614.436 8.78102C613.912 8.38582 613.297 8.1283 612.648 8.03212C611.999 7.93594 611.336 8.00411 610.719 8.23044C608.087 9.07202 608.087 11.0182 607.719 13.4903C606.561 20.4333 604.613 27.2975 604.402 34.3194Z" fill="#FFD77D"/>
<path d="M697.214 68.6914C697.925 68.3232 698.688 67.7446 698.662 66.9556C698.61 66.5504 698.446 66.1676 698.188 65.851L695.977 62.4321C695.774 62.0401 695.475 61.7054 695.108 61.4591C694.658 61.2431 694.153 61.1697 693.661 61.2486C691.771 61.5127 689.922 62.0164 688.159 62.7477C682.721 64.6019 677.44 66.8885 672.367 69.5855C671.752 69.8582 671.218 70.2855 670.817 70.8258C670.416 71.366 670.162 72.0008 670.08 72.6683C669.998 73.3357 670.09 74.0131 670.348 74.6343C670.606 75.2555 671.02 75.7994 671.551 76.2129C673.63 78.1328 675.262 77.0808 677.631 76.2129C684.053 73.6882 691.055 72.084 697.214 68.6914Z" fill="#073C6A"/>
<path d="M1354.3 50.4409C1359.93 52.7661 1365.24 55.8068 1370.09 59.4879C1367.5 63.5215 1364.42 67.2223 1360.93 70.5073C1359.2 72.0716 1357.17 73.2624 1354.95 74.0051C1353.87 74.4317 1352.68 74.552 1351.53 74.3527C1350.38 74.1535 1349.3 73.6425 1348.42 72.8752C1347.54 72.1079 1346.88 71.1137 1346.53 70.0007C1346.17 68.8877 1346.13 67.6985 1346.4 66.5624C1346.81 64.3224 1347.59 62.164 1348.69 60.1716C1350.4 56.8053 1352.66 53.8072 1354.3 50.4409Z" fill="white"/>
<path d="M1372.83 56.1215C1367.43 53.2729 1362.42 49.7369 1357.93 45.6017C1360.93 41.8468 1364.38 38.4729 1368.19 35.5554C1370.08 34.1749 1372.23 33.1989 1374.51 32.6888C1375.64 32.3734 1376.83 32.3739 1377.96 32.6903C1379.08 33.0067 1380.1 33.6267 1380.9 34.4824C1381.69 35.3381 1382.24 36.3964 1382.47 37.5413C1382.71 38.6862 1382.62 39.8735 1382.22 40.973C1381.6 43.1574 1380.61 45.2205 1379.3 47.0745C1377.35 50.1778 1374.8 52.9392 1372.83 56.1215Z" fill="white"/>
<path d="M1254.86 124.394C1259.63 120.549 1264.86 117.323 1270.44 114.795C1272.73 119.01 1274.5 123.487 1275.71 128.129C1276.27 130.394 1276.33 132.753 1275.89 135.045C1275.68 136.203 1275.19 137.29 1274.45 138.208C1273.72 139.127 1272.76 139.847 1271.68 140.305C1270.58 140.612 1269.43 140.655 1268.31 140.432C1267.2 140.208 1266.15 139.723 1265.26 139.017C1263.48 137.573 1261.95 135.85 1260.73 133.914C1258.57 130.864 1257.02 127.445 1254.86 124.394Z" fill="#073C6A"/>
<path d="M1268.75 110.903C1263.62 114.226 1258.08 116.877 1252.28 118.793C1250.42 114.365 1249.12 109.729 1248.38 104.986C1248.08 102.669 1248.26 100.314 1248.91 98.069C1249.18 96.9358 1249.75 95.8983 1250.57 95.0686C1251.39 94.2389 1252.42 93.6486 1253.55 93.3615C1254.68 93.0745 1255.87 93.1016 1256.99 93.44C1258.1 93.7784 1259.1 94.4151 1259.88 95.2813C1261.49 96.8894 1262.84 98.7451 1263.86 100.778C1265.7 104.065 1266.88 107.642 1268.75 110.903Z" fill="white"/>
<path d="M1435.66 121.526C1438.69 126.851 1441.02 132.543 1442.6 138.463C1438.07 140.042 1433.36 141.058 1428.57 141.487C1426.24 141.663 1423.9 141.34 1421.7 140.541C1420.61 140.135 1419.63 139.467 1418.86 138.596C1418.08 137.725 1417.53 136.677 1417.26 135.544C1417.13 134.41 1417.28 133.263 1417.69 132.198C1418.1 131.133 1418.75 130.179 1419.6 129.416C1421.3 127.921 1423.23 126.705 1425.31 125.813C1428.65 124.156 1432.29 123.183 1435.66 121.526Z" fill="white"/>
<path d="M1139.09 40.2626C1144.65 37.6832 1150.52 35.8185 1156.54 34.7134C1157.75 39.362 1158.39 44.1395 1158.44 48.9413C1158.41 51.2733 1157.9 53.574 1156.94 55.7002C1156.45 56.7465 1155.72 57.6593 1154.8 58.3602C1153.89 59.061 1152.81 59.529 1151.68 59.724C1150.54 59.7518 1149.41 59.5114 1148.39 59.0224C1147.37 58.5334 1146.47 57.8096 1145.78 56.91C1144.41 55.0949 1143.34 53.0699 1142.62 50.9137C1141.15 47.4422 1140.46 43.7341 1139.09 40.2626Z" fill="#073C6A"/>
<path d="M1155.86 30.5047C1150.09 32.5292 1144.07 33.7848 1137.97 34.2393C1137.23 29.4983 1137.07 24.684 1137.52 19.9061C1137.78 17.5874 1138.53 15.3488 1139.7 13.3313C1140.3 12.3218 1141.14 11.4764 1142.15 10.8706C1143.15 10.2648 1144.29 9.91751 1145.47 9.85986C1146.6 9.94753 1147.7 10.3031 1148.67 10.8975C1149.64 11.4919 1150.45 12.3081 1151.05 13.2787C1152.21 15.2255 1153.06 17.3481 1153.55 19.5643C1154.55 23.1673 1154.84 26.928 1155.86 30.5047Z" fill="white"/>
<path d="M1400.91 75.45L1392.22 63.7994C1391.88 63.4557 1391.62 63.0433 1391.45 62.5897C1391.29 62.1361 1391.22 61.6518 1391.25 61.1694C1391.46 60.5891 1391.82 60.0785 1392.3 59.6967C1397.88 54.2615 1403.74 49.0981 1409.86 44.2065C1410.67 43.3524 1411.66 42.6895 1412.75 42.2664C1413.85 41.8432 1415.03 41.6704 1416.2 41.7606C1417.36 42.1142 1418.41 42.7361 1419.28 43.5752C1426.93 49.8344 1434.51 56.1814 1442.02 62.616C1442.65 63.0236 1443.19 63.5606 1443.59 64.191C1443.99 64.8214 1444.26 65.5307 1444.37 66.2715C1444.23 67.4323 1443.71 68.515 1442.89 69.3486L1436.5 77.3698C1434.5 76.6597 1431.02 76.6597 1429 75.9496C1426.97 75.2395 1425.1 74.1613 1425.39 72.2941C1425.57 71.1369 1426.68 70.3742 1427.18 69.2959C1427.42 68.6642 1427.5 67.9833 1427.41 67.3134C1427.32 66.6436 1427.07 66.0057 1426.68 65.4562C1425.87 64.3873 1424.89 63.455 1423.78 62.6948C1421.88 60.8049 1419.31 59.7457 1416.62 59.7493C1414.46 60.3254 1412.55 61.5905 1411.18 63.3523C1410.73 63.7329 1410.42 64.2512 1410.31 64.8251C1410.34 65.3369 1410.53 65.8255 1410.86 66.2189L1413.89 70.9265C1414.14 71.218 1414.26 71.5964 1414.23 71.9785C1414.23 72.4782 1413.6 72.7149 1413.12 72.899C1409.14 74.1339 1405.05 74.9881 1400.91 75.45Z" fill="#073C6A"/>
<path d="M1234.64 86.1554L1221.48 80.1066C1220.61 79.7121 1219.64 79.2124 1219.4 78.2656C1219.29 77.664 1219.36 77.044 1219.59 76.4772C1221.9 69.0433 1224.54 61.7146 1227.48 54.4911C1228.38 52.3345 1229.62 49.915 1231.88 49.2312C1233.06 48.9574 1234.28 48.9574 1235.46 49.2312C1245.18 51.0722 1254.83 53.0183 1264.41 55.0697C1265.16 55.1245 1265.89 55.3383 1266.55 55.6966C1267.2 56.0549 1267.78 56.5494 1268.23 57.1473C1268.66 58.2296 1268.71 59.4227 1268.39 60.5399C1267.81 63.9062 1267.2 67.2725 1266.62 70.6388C1264.52 70.9807 1261.49 72.6638 1259.39 73.0057C1257.28 73.3476 1255.09 73.2687 1254.44 71.533C1254.04 70.4021 1254.65 69.1924 1254.57 68.0352C1254.48 67.3657 1254.23 66.7283 1253.84 66.1814C1253.44 65.6345 1252.91 65.1958 1252.3 64.9056C1251.07 64.3415 1249.76 63.986 1248.41 63.8536C1247.27 63.3471 1246.03 63.1249 1244.79 63.2063C1243.55 63.2877 1242.35 63.6702 1241.3 64.3207C1240.24 64.9711 1239.35 65.8699 1238.72 66.9389C1238.09 68.0078 1237.73 69.2147 1237.67 70.4547C1237.48 71.0086 1237.48 71.6103 1237.67 72.1642C1237.95 72.6014 1238.35 72.9417 1238.83 73.1373L1243.75 75.7672C1244.1 75.9195 1244.39 76.1889 1244.57 76.5298C1244.59 76.775 1244.55 77.0222 1244.46 77.2509C1244.37 77.4795 1244.23 77.6831 1244.04 77.8448C1241.17 80.8987 1238.03 83.6808 1234.64 86.1554Z" fill="white"/>
<path d="M1142.57 111.612C1143.33 106.826 1144.07 102.013 1144.81 97.2266C1144.82 96.7475 1144.93 96.2759 1145.14 95.8446C1145.35 95.4132 1145.65 95.0324 1146.02 94.7282C1146.57 94.4612 1147.18 94.3606 1147.78 94.4389C1155.61 94.6318 1163.4 95.2016 1171.16 96.1484C1172.33 96.1277 1173.5 96.3695 1174.57 96.8564C1175.64 97.3432 1176.58 98.0627 1177.34 98.9623C1177.89 100.038 1178.19 101.225 1178.21 102.434C1179.09 112.27 1179.85 122.114 1180.5 131.968C1180.71 132.603 1180.77 133.283 1180.65 133.944C1180.54 134.605 1180.25 135.226 1179.83 135.75C1179.42 136.274 1178.87 136.684 1178.25 136.942C1177.63 137.201 1176.96 137.299 1176.29 137.228L1166.08 138.28C1165.18 136.36 1162.76 133.861 1161.84 131.942C1160.92 130.022 1160.42 127.892 1161.84 126.682C1162.78 125.998 1164.13 126.261 1165.23 125.866C1165.85 125.599 1166.4 125.179 1166.81 124.646C1167.22 124.112 1167.5 123.483 1167.6 122.816C1167.83 121.493 1167.83 120.141 1167.6 118.818C1167.62 116.145 1166.58 113.572 1164.71 111.665C1162.78 110.513 1160.54 110.024 1158.31 110.271C1157.73 110.223 1157.14 110.371 1156.65 110.692C1156.31 111.076 1156.09 111.552 1156.02 112.059C1155.63 113.874 1155.2 115.689 1154.78 117.503C1154.75 117.889 1154.57 118.248 1154.28 118.503C1154.05 118.598 1153.8 118.636 1153.56 118.613C1153.31 118.59 1153.07 118.507 1152.86 118.371C1149.23 116.434 1145.79 114.172 1142.57 111.612Z" fill="white"/>
<path d="M1393.41 98.6727C1393.94 101.635 1395.08 104.455 1396.75 106.957C1397.62 108.181 1398.84 109.112 1400.25 109.629C1401.66 110.145 1403.19 110.222 1404.65 109.85C1408.47 108.482 1410.2 103.091 1414.28 102.749C1417.78 102.46 1420.18 106.142 1423.28 107.799C1424.95 108.612 1426.83 108.862 1428.65 108.511C1430.47 108.16 1432.12 107.227 1433.37 105.852C1434.5 104.537 1435.18 102.907 1436.18 101.487C1438.06 99.0709 1440.79 97.4563 1443.81 96.9683C1446.83 96.4803 1449.93 97.1552 1452.47 98.8568C1453.38 99.6274 1454.34 100.339 1455.34 100.987C1458.87 102.907 1463.5 100.987 1465.87 97.6733C1467.97 94.23 1469.22 90.3344 1469.5 86.312L1393.41 98.6727Z" fill="#FFD77D"/>
<path d="M974.22 89.5205C972.512 91.9893 971.33 94.7821 970.746 97.7259C970.483 99.2087 970.681 100.736 971.311 102.104C971.941 103.472 972.975 104.614 974.273 105.379C977.958 107.115 983.012 104.537 986.117 107.167C988.75 109.429 987.881 113.716 988.934 117.082C989.532 118.835 990.685 120.345 992.219 121.384C993.753 122.424 995.585 122.935 997.436 122.842C999.173 122.71 1000.8 122.026 1002.52 121.737C1005.55 121.338 1008.63 122.108 1011.11 123.891C1013.6 125.674 1015.32 128.336 1015.91 131.336C1016.03 132.521 1016.21 133.697 1016.47 134.861C1017.25 136.711 1018.65 138.233 1020.43 139.164C1022.21 140.095 1024.26 140.377 1026.23 139.963C1030.12 138.999 1033.73 137.124 1036.76 134.492L974.22 89.5205Z" fill="#FFD77D"/>
<path d="M1073.84 69.5596C1073.87 72.5693 1074.51 75.5417 1075.74 78.2909C1076.38 79.65 1077.42 80.7809 1078.73 81.5327C1080.03 82.2845 1081.53 82.6216 1083.03 82.4988C1087.06 81.7888 1089.69 76.7656 1093.74 77.1075C1097.24 77.423 1099.01 81.4731 1101.77 83.6034C1103.27 84.6912 1105.09 85.2594 1106.94 85.2214C1108.79 85.1834 1110.58 84.5414 1112.04 83.393C1113.38 82.2884 1114.33 80.7631 1115.56 79.5796C1117.8 77.4886 1120.75 76.3253 1123.81 76.3253C1126.88 76.3253 1129.83 77.4886 1132.07 79.5796C1132.82 80.5132 1133.64 81.392 1134.51 82.2095C1136.23 83.2617 1138.26 83.6898 1140.25 83.4215C1142.25 83.1532 1144.09 82.2048 1145.46 80.7368C1148.1 77.7083 1149.98 74.1052 1150.96 70.2171L1073.84 69.5596Z" fill="#FFD77D"/>
<path d="M1217.43 10.7021C1216.67 13.6128 1216.53 16.6513 1217.03 19.6176C1217.3 21.0983 1218.02 22.461 1219.09 23.52C1220.15 24.579 1221.52 25.2826 1223.01 25.535C1227.06 25.8769 1230.91 21.6953 1234.72 23.0892C1238.04 24.2726 1238.67 28.612 1240.83 31.3998C1242 32.8342 1243.61 33.8469 1245.41 34.2836C1247.21 34.7204 1249.1 34.5573 1250.8 33.8192C1252.38 33.0829 1253.7 31.8994 1255.2 31.0315C1257.91 29.5932 1261.06 29.2385 1264.02 30.0397C1266.97 30.8409 1269.52 32.7378 1271.12 35.3446C1271.63 36.415 1272.2 37.4516 1272.84 38.4479C1274.22 39.9081 1276.07 40.8428 1278.06 41.0922C1280.06 41.3417 1282.08 40.8904 1283.78 39.8155C1287.13 37.5646 1289.88 34.5428 1291.81 31.0052L1217.43 10.7021Z" fill="#FFD77D"/>
<path d="M1344.16 128.102C1348.88 133.152 1356.04 132.074 1362.04 130.548C1368.04 129.023 1371.91 123.079 1373.12 117.399C1373.75 114.59 1373.66 111.665 1372.84 108.903C1372.03 106.142 1370.52 103.634 1368.46 101.619C1366.35 99.6268 1363.64 98.4035 1360.75 98.1475C1358.35 98.1657 1355.99 98.68 1353.81 99.6579C1351.62 100.636 1349.67 102.056 1348.06 103.828C1344.67 106.914 1342.27 110.93 1341.16 115.374C1340.62 117.581 1340.6 119.887 1341.12 122.101C1341.65 124.314 1342.69 126.372 1344.16 128.102ZM1349.96 115.426C1350.36 113.98 1351.12 112.657 1352.16 111.574C1353.21 110.492 1354.5 109.683 1355.93 109.22C1357.37 108.808 1358.91 108.875 1360.31 109.411C1361.71 109.947 1362.9 110.923 1363.69 112.191C1364.24 113.274 1364.5 114.479 1364.45 115.691C1364.39 116.903 1364.02 118.08 1363.38 119.108C1360.62 123.631 1352.85 126.445 1350.03 120.186C1349.44 118.659 1349.41 116.972 1349.96 115.426Z" fill="white"/>
<path d="M1121.73 142.514C1128.54 141.488 1131.73 135.018 1133.89 129.206C1136.05 123.394 1133.33 116.846 1129.28 112.585C1127.33 110.494 1124.89 108.929 1122.17 108.037C1119.46 107.144 1116.56 106.954 1113.75 107.483C1110.88 108.09 1108.3 109.647 1106.43 111.901C1105.07 113.87 1104.14 116.1 1103.68 118.45C1103.23 120.8 1103.27 123.218 1103.8 125.551C1104.44 130.08 1106.38 134.328 1109.38 137.78C1110.91 139.495 1112.83 140.82 1114.98 141.644C1117.13 142.467 1119.44 142.765 1121.73 142.514ZM1114.54 130.548C1113.59 129.385 1112.94 128.008 1112.65 126.536C1112.35 125.064 1112.42 123.543 1112.86 122.106C1113.33 120.682 1114.26 119.453 1115.5 118.604C1116.74 117.754 1118.22 117.331 1119.73 117.398C1120.93 117.565 1122.07 118.04 1123.03 118.778C1124 119.515 1124.75 120.489 1125.23 121.606C1127.39 126.445 1125.23 134.493 1118.52 133.204C1116.92 132.8 1115.52 131.862 1114.54 130.548Z" fill="white"/>
<path d="M1008.86 56.7259C1008.07 49.8881 1001.65 46.5218 995.908 44.1812C990.17 41.8405 983.537 44.3653 979.141 48.2838C976.993 50.1727 975.357 52.5736 974.386 55.2634C973.415 57.9532 973.14 60.8446 973.587 63.6689C974.114 66.5448 975.598 69.1584 977.799 71.0854C979.737 72.4852 981.945 73.4674 984.283 73.9699C986.621 74.4725 989.038 74.4842 991.381 74.0045C995.939 73.5016 1000.25 71.6727 1003.78 68.7447C1005.51 67.2831 1006.88 65.4325 1007.76 63.3438C1008.64 61.2551 1009.02 58.9875 1008.86 56.7259ZM996.697 63.5375C995.508 64.4575 994.11 65.0707 992.627 65.3229C991.145 65.5752 989.623 65.4588 988.196 64.9839C986.79 64.4596 985.592 63.4949 984.781 62.2339C983.97 60.973 983.589 59.4836 983.695 57.9883C983.917 56.8132 984.434 55.7139 985.198 54.7937C985.963 53.8736 986.949 53.1628 988.064 52.7284C992.96 50.7034 1000.94 53.0967 999.461 59.7504C998.995 61.2889 998.021 62.624 996.697 63.5375Z" fill="#073C6A"/>
<path d="M1187.26 43.9452C1194.05 42.788 1197.11 36.2132 1199.13 30.3748C1201.16 24.5363 1198.32 18.0404 1194.16 13.8588C1192.17 11.8046 1189.68 10.2901 1186.95 9.45741C1184.21 8.62477 1181.3 8.50134 1178.5 9.09865C1175.65 9.76459 1173.12 11.3784 1171.31 13.6747C1170.01 15.6799 1169.14 17.9328 1168.76 20.2913C1168.37 22.6497 1168.48 25.0624 1169.08 27.3767C1169.79 31.8963 1171.82 36.1049 1174.92 39.4743C1176.47 41.1458 1178.4 42.4233 1180.55 43.2008C1182.7 43.9783 1185 44.2335 1187.26 43.9452ZM1179.82 32.1368C1178.84 30.9982 1178.16 29.6377 1177.83 28.1749C1177.51 26.7121 1177.55 25.1918 1177.95 23.7474C1178.39 22.31 1179.29 21.0565 1180.51 20.178C1181.73 19.2996 1183.21 18.8444 1184.71 18.882C1185.92 19.0265 1187.06 19.4771 1188.05 20.1907C1189.03 20.9043 1189.81 21.8571 1190.32 22.9583C1192.58 27.7448 1190.61 35.845 1183.87 34.6879C1182.26 34.336 1180.83 33.4336 1179.82 32.1368Z" fill="white"/>
<path d="M1397.59 131.994C1397.51 131.124 1397.21 130.289 1396.73 129.564C1396.24 128.838 1395.58 128.245 1394.8 127.839C1393.9 127.424 1392.91 127.226 1391.91 127.26C1390.56 127.244 1389.23 127.598 1388.06 128.284C1386.9 128.97 1385.94 129.962 1385.3 131.152C1384.81 132.291 1384.68 133.557 1384.95 134.77C1385.21 135.983 1385.85 137.082 1386.78 137.911C1387.81 138.707 1389.06 139.184 1390.36 139.285C1391.67 139.385 1392.97 139.105 1394.12 138.478C1395.26 137.851 1396.2 136.904 1396.82 135.752C1397.44 134.601 1397.71 133.295 1397.59 131.994Z" fill="#073C6A"/>
<path d="M1212.53 101.567C1212.45 100.7 1212.16 99.8667 1211.67 99.1415C1211.19 98.4162 1210.54 97.822 1209.77 97.4121C1208.85 96.9968 1207.85 96.7988 1206.85 96.8335C1205.49 96.8169 1204.16 97.1709 1203 97.8572C1201.83 98.5434 1200.88 99.5356 1200.24 100.726C1199.75 101.865 1199.63 103.129 1199.89 104.342C1200.15 105.554 1200.79 106.653 1201.71 107.485C1202.75 108.28 1204 108.757 1205.3 108.858C1206.6 108.959 1207.91 108.678 1209.05 108.051C1210.2 107.424 1211.14 106.477 1211.76 105.326C1212.37 104.174 1212.64 102.869 1212.53 101.567Z" fill="white"/>
<path d="M1338.77 15.5419C1338.7 14.6875 1338.43 13.8622 1337.97 13.138C1337.51 12.4138 1336.88 11.8126 1336.14 11.3866C1335.23 10.9717 1334.24 10.7736 1333.24 10.808C1331.89 10.7855 1330.56 11.1371 1329.39 11.8239C1328.22 12.5108 1327.27 13.5063 1326.64 14.7004C1326.13 15.8357 1326 17.1005 1326.26 18.3143C1326.52 19.528 1327.16 20.6287 1328.08 21.4593C1329.12 22.2139 1330.35 22.6566 1331.63 22.7354C1332.92 22.8142 1334.19 22.5259 1335.31 21.9043C1336.44 21.2827 1337.36 20.3537 1337.97 19.2266C1338.58 18.0994 1338.86 16.8211 1338.77 15.5419Z" fill="#FFD77D"/>
<path d="M1347.11 37.6326C1347.03 36.7655 1346.74 35.9319 1346.26 35.2067C1345.77 34.4814 1345.12 33.8871 1344.35 33.4772C1343.43 33.0575 1342.43 32.8679 1341.43 32.925C1340.08 32.8999 1338.75 33.2476 1337.58 33.9297C1336.41 34.6117 1335.46 35.6018 1334.82 36.791C1334.33 37.9304 1334.21 39.1947 1334.47 40.4067C1334.74 41.6188 1335.37 42.7179 1336.29 43.5499C1337.33 44.3455 1338.58 44.8227 1339.88 44.9232C1341.18 45.0238 1342.49 44.7434 1343.64 44.1162C1344.78 43.489 1345.72 42.5421 1346.34 41.3909C1346.96 40.2396 1347.23 38.9339 1347.11 37.6326Z" fill="white"/>
<path d="M1069.27 50.7548C1069.19 49.8852 1068.89 49.0499 1068.4 48.3244C1067.91 47.599 1067.25 47.0062 1066.48 46.5996C1065.57 46.1778 1064.58 45.988 1063.58 46.0472C1062.23 46.0222 1060.9 46.3698 1059.74 47.0519C1058.57 47.734 1057.62 48.7241 1056.98 49.9132C1056.49 51.0526 1056.36 52.317 1056.63 53.5291C1056.89 54.7411 1057.53 55.8401 1058.45 56.6722C1059.49 57.4678 1060.73 57.945 1062.04 58.0456C1063.34 58.1461 1064.64 57.8657 1065.79 57.2385C1066.94 56.6113 1067.88 55.6644 1068.49 54.5132C1069.11 53.362 1069.38 52.0561 1069.27 50.7548Z" fill="white"/>
<path d="M1223.09 128.55C1223.01 127.675 1222.71 126.835 1222.22 126.104C1221.74 125.374 1221.08 124.777 1220.3 124.368C1219.39 123.961 1218.4 123.772 1217.4 123.816C1216.05 123.774 1214.71 124.106 1213.53 124.774C1212.35 125.441 1211.38 126.42 1210.72 127.603C1210.22 128.742 1210.1 130.007 1210.36 131.22C1210.63 132.433 1211.27 133.532 1212.19 134.362C1213.22 135.162 1214.46 135.647 1215.77 135.758C1217.07 135.869 1218.37 135.601 1219.53 134.986C1220.68 134.371 1221.63 133.437 1222.26 132.294C1222.89 131.152 1223.18 129.852 1223.09 128.55Z" fill="white"/>
<path d="M1052.29 116.058C1052.21 115.184 1051.91 114.343 1051.43 113.613C1050.94 112.883 1050.28 112.286 1049.5 111.877C1048.59 111.467 1047.6 111.278 1046.6 111.324C1045.25 111.305 1043.92 111.658 1042.75 112.344C1041.59 113.031 1040.63 114.024 1040 115.217C1039.51 116.356 1039.38 117.62 1039.65 118.832C1039.91 120.044 1040.55 121.143 1041.47 121.975C1042.51 122.759 1043.75 123.226 1045.05 123.321C1046.35 123.415 1047.65 123.133 1048.79 122.508C1049.93 121.883 1050.87 120.942 1051.49 119.798C1052.11 118.654 1052.39 117.355 1052.29 116.058Z" fill="white"/>
<path d="M1343.09 86.418C1343.28 86.3069 1343.45 86.1647 1343.59 85.9973C1344.06 85.3661 1343.46 84.5245 1342.85 83.9986C1340.08 81.4986 1337.09 79.2622 1333.9 77.3185C1333.58 77.1081 1333.11 76.9503 1332.87 77.3185C1332.83 77.4648 1332.83 77.6193 1332.87 77.7656C1332.72 81.5527 1332.58 85.3661 1332.45 89.1795C1332.45 92.3354 1334.8 90.5734 1336.59 89.8107C1338.82 88.8152 1340.99 87.6822 1343.09 86.418Z" fill="#073C6A"/>
<path d="M1213.72 50.4673C1213.87 50.6051 1214.05 50.7201 1214.24 50.8091C1215.01 51.0195 1215.61 50.1779 1215.9 49.4416C1217.32 45.9881 1218.43 42.4147 1219.22 38.7641C1219.22 38.3959 1219.22 37.8962 1218.93 37.791C1218.78 37.7409 1218.63 37.7409 1218.48 37.791L1207.58 41.2362C1204.58 42.183 1207.06 43.8661 1208.37 45.3389C1210.03 47.1682 1211.82 48.8817 1213.72 50.4673Z" fill="#073C6A"/>
<path d="M1385.75 76.7133C1385.91 76.5624 1386.03 76.3841 1386.12 76.1874C1386.36 75.4247 1385.51 74.8198 1384.8 74.4779C1381.41 72.9588 1377.89 71.7443 1374.27 70.8486C1373.91 70.8486 1373.41 70.8486 1373.3 71.0853C1373.25 71.2298 1373.25 71.3879 1373.3 71.5324C1374.33 75.188 1375.35 78.8699 1376.41 82.5255C1377.25 85.5762 1379.04 83.1566 1380.54 81.868C1382.39 80.2633 1384.13 78.5416 1385.75 76.7133Z" fill="white"/>
<path d="M1089.82 35.8189C1089.97 35.6658 1090.1 35.4879 1090.19 35.2929C1090.43 34.5565 1089.58 33.9253 1088.87 33.6097C1085.48 32.0822 1081.96 30.8588 1078.35 29.9541C1077.98 29.9541 1077.48 29.9541 1077.37 30.2171C1077.32 30.3524 1077.32 30.5026 1077.37 30.6379L1080.45 41.6573C1081.32 44.6817 1083.08 42.2622 1084.61 40.9998C1086.46 39.3861 1088.2 37.6556 1089.82 35.8189Z" fill="white"/>
<path d="M1067.32 107.562C1067.5 107.679 1067.69 107.759 1067.9 107.799C1068.69 107.799 1069.11 106.905 1069.27 106.142C1070.05 102.491 1070.49 98.7757 1070.58 95.0436C1070.58 94.6754 1070.58 94.1758 1070.11 94.1495C1069.98 94.1136 1069.84 94.1136 1069.72 94.1495L1059.61 99.5408C1056.82 101.014 1059.61 102.171 1061.13 103.433C1063.1 104.943 1065.17 106.323 1067.32 107.562Z" fill="white"/>
<path d="M1126.04 47.7324C1126.08 47.5239 1126.08 47.3097 1126.04 47.1012C1125.72 46.3648 1124.67 46.4437 1123.93 46.6804C1120.36 47.7543 1116.89 49.154 1113.56 50.862C1113.22 51.0461 1112.83 51.3617 1112.99 51.7036C1113.06 51.8389 1113.17 51.9491 1113.3 52.0192L1122.86 58.2784C1125.49 60.0142 1125.28 56.9897 1125.49 55.0699C1125.84 52.6399 1126.03 50.1881 1126.04 47.7324Z" fill="white"/>
<path d="M1227.12 99.2507C1226.9 99.2107 1226.68 99.2107 1226.46 99.2507C1225.69 99.3822 1225.54 100.434 1225.62 101.223C1225.89 104.945 1226.5 108.634 1227.46 112.243C1227.46 112.611 1227.77 113.058 1228.14 112.979C1228.28 112.935 1228.41 112.853 1228.51 112.742L1236.7 104.852C1238.96 102.643 1235.99 102.223 1234.07 101.539C1231.8 100.625 1229.48 99.8605 1227.12 99.2507Z" fill="white"/>
<path d="M1087.01 112.007C1087.09 112.209 1087.21 112.395 1087.35 112.559C1087.9 113.111 1088.85 112.559 1089.43 112.112C1092.29 109.723 1094.93 107.083 1097.33 104.222C1097.56 103.933 1097.8 103.486 1097.51 103.223C1097.4 103.128 1097.26 103.072 1097.11 103.065L1085.85 101.066C1082.74 100.514 1084.14 103.196 1084.64 105.064C1085.28 107.425 1086.07 109.744 1087.01 112.007Z" fill="#073C6A"/>
<path d="M1286.79 104.722C1297.51 92.0548 1307.28 78.6048 1316 64.4845C1316.66 63.4326 1317.63 62.2491 1318.82 62.5384C1319.3 62.7112 1319.74 63.0001 1320.08 63.3799L1324.69 67.8772C1314.61 82.973 1304.6 98.1739 1293.44 112.586C1291.19 110.531 1289.1 108.306 1287.18 105.932C1287.05 105.327 1286.29 104.459 1286.79 104.722Z" fill="white"/>
<path d="M1285.55 68.6389C1286.97 71.6174 1288.83 74.3656 1291.07 76.7917C1302.17 63.6864 1312.55 49.9908 1322.16 35.7648C1319.66 34.6076 1316.9 32.8193 1314.39 31.6621C1304.79 44.3384 1295.55 56.2782 1285.55 68.6389Z" fill="#073C6A"/>
<path d="M1293.44 130.363L1320.42 98.1465C1320.71 97.8046 1321.05 97.4365 1321.5 97.4628C1321.88 97.5182 1322.22 97.716 1322.45 98.015L1328.66 104.327C1319.24 116.898 1310.1 129.022 1299.55 140.672C1297.33 139.383 1295.27 137.829 1293.42 136.044C1292.67 135.427 1292.12 134.604 1291.84 133.677C1291.65 132.862 1292.5 130.495 1293.44 130.363Z" fill="white"/>
<path d="M1016.52 72.7686C1027.29 60.0847 1037.09 46.6077 1045.84 32.4518C1046.5 31.3998 1047.47 30.19 1048.68 30.5056C1049.16 30.6762 1049.59 30.9659 1049.92 31.3472L1054.53 35.8444C1044.45 50.9401 1034.44 66.1411 1023.28 80.5531C1021.04 78.4846 1018.95 76.2612 1017.02 73.8994C1016.68 73.3734 1015.94 72.5056 1016.52 72.7686Z" fill="white"/>
<path d="M1015.28 36.7121C1016.71 39.6906 1018.57 42.4388 1020.81 44.8649C1031.89 31.7498 1042.27 18.0548 1051.89 3.83803C1049.42 2.68086 1046.63 0.89252 1044 -0.264648C1034.52 12.4116 1025.28 24.3252 1015.28 36.7121Z" fill="#073C6A"/>
<path d="M1023.18 98.4369L1050.16 66.2203C1050.24 66.0251 1050.37 65.8564 1050.54 65.7334C1050.72 65.6104 1050.92 65.538 1051.13 65.5244C1051.34 65.5107 1051.55 65.5562 1051.74 65.656C1051.92 65.7557 1052.08 65.9057 1052.18 66.0887L1058.42 72.4006C1049 84.9717 1039.84 97.0693 1029.28 108.72C1027.06 107.43 1025 105.876 1023.15 104.091C1022.41 103.473 1021.86 102.65 1021.57 101.724C1021.39 100.778 1022.23 98.6736 1023.18 98.4369Z" fill="white"/>
<path d="M1394.09 29.138C1394.09 30.5056 1394.33 32.1625 1395.62 32.7148C1396.09 32.8783 1396.59 32.9497 1397.1 32.9251C1401.12 32.9251 1405.15 32.7147 1409.18 32.3465C1410.63 32.3699 1412.03 31.8756 1413.15 30.9527C1413.97 29.8847 1414.37 28.5585 1414.28 27.2181C1414.59 21.6064 1414.13 15.979 1412.91 10.4918C1412.77 9.71705 1412.51 8.97064 1412.12 8.28269C1409.89 4.67969 1398.75 3.54884 1395.49 6.57326C1393.3 8.6246 1394.07 12.9903 1394.04 15.6202C1393.96 20.1437 1393.96 24.6408 1394.09 29.138Z" fill="#FFD77D"/>
<path d="M1085.85 141.909C1086.64 141.909 1087.61 141.909 1087.98 141.12C1088.14 140.748 1088.19 140.338 1088.14 139.937L1087.98 135.861C1087.99 135.426 1087.9 134.994 1087.72 134.598C1087.44 134.182 1087.05 133.861 1086.59 133.678C1084.81 132.943 1082.96 132.439 1081.06 132.179C1075.4 130.994 1069.67 130.264 1063.9 129.996C1063.23 129.92 1062.56 130.016 1061.94 130.276C1061.32 130.536 1060.79 130.95 1060.38 131.479C1059.97 132.007 1059.7 132.633 1059.6 133.294C1059.5 133.956 1059.58 134.631 1059.82 135.256C1060.63 137.886 1062.58 137.886 1065.08 138.333C1071.98 139.516 1078.82 141.673 1085.85 141.909Z" fill="#FFD77D"/>
<path d="M1105.22 34.3194C1105.22 35.1083 1105.22 36.0814 1106.01 36.4496C1106.39 36.5993 1106.81 36.6447 1107.22 36.5811L1111.27 36.3707C1111.72 36.3687 1112.16 36.27 1112.56 36.0814C1112.95 35.7844 1113.26 35.3835 1113.43 34.9243C1114.14 33.1521 1114.62 31.2958 1114.85 29.4014C1115.96 23.7293 1116.61 17.9776 1116.8 12.2017C1116.85 11.5476 1116.73 10.8917 1116.46 10.2941C1116.19 9.69642 1115.78 9.17621 1115.25 8.78102C1114.73 8.38582 1114.11 8.1283 1113.46 8.03212C1112.81 7.93594 1112.15 8.00411 1111.54 8.23044C1108.9 9.07202 1108.9 11.0182 1108.54 13.4903C1107.38 20.4333 1105.43 27.2975 1105.22 34.3194Z" fill="#FFD77D"/>
<path d="M1198.03 68.6914C1198.74 68.3232 1199.5 67.7446 1199.48 66.9556C1199.43 66.5504 1199.26 66.1676 1199 65.851L1196.79 62.4321C1196.59 62.0401 1196.29 61.7054 1195.92 61.4591C1195.47 61.2431 1194.97 61.1697 1194.48 61.2486C1192.59 61.5127 1190.74 62.0164 1188.98 62.7477C1183.54 64.6019 1178.26 66.8885 1173.18 69.5855C1172.57 69.8582 1172.03 70.2855 1171.63 70.8258C1171.23 71.366 1170.98 72.0008 1170.9 72.6683C1170.81 73.3357 1170.91 74.0131 1171.16 74.6343C1171.42 75.2555 1171.84 75.7994 1172.37 76.2129C1174.45 78.1328 1176.08 77.0808 1178.45 76.2129C1184.87 73.6882 1191.87 72.084 1198.03 68.6914Z" fill="#073C6A"/>
</g>
</svg>
